RemmenGSUBDemo-Regular.ufo
<glyph name="cid00003" format="1">
  <advance width="1000"/>
  <unicode hex="3001"/>
  <outline>
    <contour>
      <point x="85" y="166" type="line"/>
      <point x="154" y="137"/>
      <point x="208" y="101"/>
      <point x="248" y="58" type="curve"/>
      <point x="271" y="32"/>
      <point x="282" y="7"/>
      <point x="282" y="-18" type="curve"/>
      <point x="282" y="-30"/>
      <point x="279" y="-42"/>
      <point x="272" y="-52" type="curve"/>
      <point x="263" y="-67"/>
      <point x="250" y="-75"/>
      <point x="232" y="-75" type="curve"/>
      <point x="217" y="-75"/>
      <point x="205" y="-69"/>
      <point x="196" y="-57" type="curve"/>
      <point x="194" y="-55"/>
      <point x="191" y="-46"/>
      <point x="186" y="-33" type="curve"/>
      <point x="158" y="37"/>
      <point x="117" y="95"/>
      <point x="63" y="140" type="curve"/>
    </contour>
  </outline>
</glyph>
<glyph name="cid00004" format="1">
  <advance width="1000"/>
  <unicode hex="3002"/>
  <outline>
    <contour>
      <point x="190" y="175" type="curve"/>
      <point x="221" y="175"/>
      <point x="249" y="165"/>
      <point x="272" y="145" type="curve"/>
      <point x="304" y="119"/>
      <point x="320" y="85"/>
      <point x="320" y="44" type="curve"/>
      <point x="320" y="19"/>
      <point x="313" y="-6"/>
      <point x="297" y="-28" type="curve"/>
      <point x="271" y="-66"/>
      <point x="235" y="-85"/>
      <point x="189" y="-85" type="curve"/>
      <point x="167" y="-85"/>
      <point x="147" y="-80"/>
      <point x="127" y="-69" type="curve"/>
      <point x="112" y="-61"/>
      <point x="99" y="-49"/>
      <point x="88" y="-36" type="curve"/>
      <point x="69" y="-12"/>
      <point x="60" y="16"/>
      <point x="60" y="46" type="curve"/>
      <point x="60" y="64"/>
      <point x="64" y="81"/>
      <point x="72" y="98" type="curve"/>
      <point x="89" y="135"/>
      <point x="116" y="159"/>
      <point x="155" y="170" type="curve"/>
      <point x="167" y="173"/>
      <point x="178" y="175"/>
    </contour>
    <contour>
      <point x="189" y="129" type="curve"/>
      <point x="175" y="129"/>
      <point x="162" y="125"/>
      <point x="149" y="118" type="curve"/>
      <point x="120" y="102"/>
      <point x="106" y="78"/>
      <point x="106" y="45" type="curve"/>
      <point x="106" y="30"/>
      <point x="110" y="15"/>
      <point x="118" y="1" type="curve"/>
      <point x="135" y="-25"/>
      <point x="159" y="-39"/>
      <point x="190" y="-39" type="curve"/>
      <point x="211" y="-39"/>
      <point x="230" y="-32"/>
      <point x="247" y="-17" type="curve"/>
      <point x="265" y="0"/>
      <point x="274" y="21"/>
      <point x="274" y="44" type="curve"/>
      <point x="274" y="71"/>
      <point x="264" y="93"/>
      <point x="243" y="110" type="curve"/>
      <point x="228" y="123"/>
      <point x="209" y="129"/>
    </contour>
  </outline>
</glyph>
<glyph name="cid00006" format="1">
  <advance width="1000"/>
  <unicode hex="3041"/>
  <outline>
    <contour>
      <point x="271" y="539" type="line"/>
      <point x="289" y="506"/>
      <point x="322" y="490"/>
      <point x="371" y="490" type="curve"/>
      <point x="385" y="490"/>
      <point x="400" y="491"/>
      <point x="418" y="493" type="curve"/>
      <point x="421" y="513"/>
      <point x="423" y="530"/>
      <point x="423" y="543" type="curve"/>
      <point x="423" y="557"/>
      <point x="420" y="568"/>
      <point x="416" y="577" type="curve"/>
      <point x="412" y="585"/>
      <point x="399" y="590"/>
      <point x="378" y="593" type="curve"/>
      <point x="395" y="626" type="line"/>
      <point x="405" y="628"/>
      <point x="414" y="629"/>
      <point x="423" y="629" type="curve"/>
      <point x="439" y="629"/>
      <point x="453" y="625"/>
      <point x="465" y="619" type="curve"/>
      <point x="486" y="606"/>
      <point x="497" y="592"/>
      <point x="497" y="575" type="curve"/>
      <point x="497" y="570"/>
      <point x="496" y="564"/>
      <point x="492" y="557" type="curve"/>
      <point x="486" y="544"/>
      <point x="480" y="526"/>
      <point x="474" y="502" type="curve"/>
      <point x="533" y="513"/>
      <point x="569" y="527"/>
      <point x="583" y="545" type="curve"/>
      <point x="592" y="557"/>
      <point x="605" y="563"/>
      <point x="621" y="563" type="curve"/>
      <point x="634" y="563"/>
      <point x="646" y="561"/>
      <point x="655" y="556" type="curve"/>
      <point x="668" y="548"/>
      <point x="675" y="540"/>
      <point x="675" y="528" type="curve"/>
      <point x="675" y="514"/>
      <point x="661" y="501"/>
      <point x="631" y="489" type="curve"/>
      <point x="588" y="471"/>
      <point x="533" y="457"/>
      <point x="465" y="447" type="curve"/>
      <point x="462" y="424"/>
      <point x="459" y="392"/>
      <point x="457" y="350" type="curve"/>
      <point x="492" y="358"/>
      <point x="529" y="364"/>
      <point x="567" y="365" type="curve"/>
      <point x="565" y="383"/>
      <point x="559" y="397"/>
      <point x="548" y="408" type="curve"/>
      <point x="576" y="425" type="line"/>
      <point x="602" y="412"/>
      <point x="617" y="392"/>
      <point x="621" y="365" type="curve"/>
      <point x="676" y="358"/>
      <point x="721" y="342"/>
      <point x="756" y="317" type="curve"/>
      <point x="806" y="282"/>
      <point x="831" y="235"/>
      <point x="831" y="177" type="curve"/>
      <point x="831" y="56"/>
      <point x="744" y="-23"/>
      <point x="568" y="-61" type="curve"/>
      <point x="547" y="-26" type="line"/>
      <point x="607" y="-9"/>
      <point x="652" y="12"/>
      <point x="683" y="37" type="curve"/>
      <point x="734" y="77"/>
      <point x="759" y="123"/>
      <point x="759" y="174" type="curve"/>
      <point x="759" y="224"/>
      <point x="739" y="262"/>
      <point x="698" y="290" type="curve"/>
      <point x="677" y="305"/>
      <point x="650" y="315"/>
      <point x="617" y="321" type="curve"/>
      <point x="602" y="271"/>
      <point x="573" y="220"/>
      <point x="532" y="167" type="curve"/>
      <point x="512" y="143"/>
      <point x="490" y="120"/>
      <point x="464" y="97" type="curve"/>
      <point x="465" y="91"/>
      <point x="466" y="84"/>
      <point x="468" y="76" type="curve"/>
      <point x="469" y="72"/>
      <point x="470" y="69"/>
      <point x="471" y="66" type="curve"/>
      <point x="473" y="53"/>
      <point x="474" y="44"/>
      <point x="474" y="38" type="curve"/>
      <point x="474" y="13"/>
      <point x="467" y="-5"/>
      <point x="454" y="-16" type="curve"/>
      <point x="448" y="-21"/>
      <point x="442" y="-23"/>
      <point x="436" y="-23" type="curve"/>
      <point x="418" y="-23"/>
      <point x="407" y="0"/>
      <point x="401" y="46" type="curve"/>
      <point x="343" y="6"/>
      <point x="295" y="-13"/>
      <point x="257" y="-13" type="curve"/>
      <point x="234" y="-13"/>
      <point x="216" y="-5"/>
      <point x="202" y="12" type="curve"/>
      <point x="188" y="29"/>
      <point x="181" y="51"/>
      <point x="181" y="78" type="curve"/>
      <point x="181" y="147"/>
      <point x="214" y="209"/>
      <point x="279" y="264" type="curve"/>
      <point x="313" y="292"/>
      <point x="355" y="316"/>
      <point x="404" y="334" type="curve"/>
      <point x="406" y="371"/>
      <point x="409" y="407"/>
      <point x="413" y="441" type="curve"/>
      <point x="396" y="439"/>
      <point x="380" y="438"/>
      <point x="365" y="438" type="curve"/>
      <point x="330" y="438"/>
      <point x="302" y="446"/>
      <point x="283" y="461" type="curve"/>
      <point x="268" y="472"/>
      <point x="255" y="490"/>
      <point x="246" y="513" type="curve"/>
    </contour>
    <contour>
      <point x="401" y="283" type="curve"/>
      <point x="365" y="267"/>
      <point x="333" y="244"/>
      <point x="306" y="215" type="curve"/>
      <point x="266" y="173"/>
      <point x="246" y="128"/>
      <point x="246" y="80" type="curve"/>
      <point x="246" y="57"/>
      <point x="257" y="45"/>
      <point x="278" y="45" type="curve"/>
      <point x="305" y="45"/>
      <point x="345" y="67"/>
      <point x="398" y="111" type="curve"/>
      <point x="398" y="130"/>
      <point x="398" y="146"/>
      <point x="398" y="158" type="curve"/>
      <point x="398" y="198"/>
      <point x="399" y="240"/>
    </contour>
    <contour>
      <point x="562" y="322" type="curve"/>
      <point x="524" y="320"/>
      <point x="489" y="314"/>
      <point x="454" y="304" type="curve"/>
      <point x="454" y="288"/>
      <point x="453" y="271"/>
      <point x="453" y="253" type="curve"/>
      <point x="453" y="216"/>
      <point x="454" y="187"/>
      <point x="456" y="164" type="curve"/>
      <point x="510" y="220"/>
      <point x="545" y="273"/>
    </contour>
  </outline>
</glyph>
<glyph name="cid00008" format="1">
  <advance width="1000"/>
  <unicode hex="3043"/>
  <outline>
    <contour>
      <point x="423" y="245" type="line"/>
      <point x="392" y="172"/>
      <point x="377" y="122"/>
      <point x="377" y="94" type="curve"/>
      <point x="377" y="89"/>
      <point x="377" y="84"/>
      <point x="379" y="79" type="curve"/>
      <point x="382" y="65"/>
      <point x="384" y="55"/>
      <point x="384" y="46" type="curve"/>
      <point x="384" y="23"/>
      <point x="374" y="12"/>
      <point x="353" y="12" type="curve"/>
      <point x="323" y="12"/>
      <point x="290" y="39"/>
      <point x="253" y="93" type="curve"/>
      <point x="213" y="151"/>
      <point x="193" y="244"/>
      <point x="193" y="371" type="curve"/>
      <point x="193" y="407" type="line"/>
      <point x="193" y="444"/>
      <point x="188" y="470"/>
      <point x="177" y="485" type="curve"/>
      <point x="170" y="496"/>
      <point x="159" y="503"/>
      <point x="144" y="509" type="curve"/>
      <point x="165" y="536" type="line"/>
      <point x="193" y="536"/>
      <point x="217" y="529"/>
      <point x="235" y="516" type="curve"/>
      <point x="257" y="501"/>
      <point x="268" y="481"/>
      <point x="268" y="458" type="curve"/>
      <point x="268" y="445"/>
      <point x="266" y="429"/>
      <point x="261" y="408" type="curve"/>
      <point x="255" y="381"/>
      <point x="252" y="351"/>
      <point x="252" y="317" type="curve"/>
      <point x="252" y="275"/>
      <point x="260" y="231"/>
      <point x="275" y="185" type="curve"/>
      <point x="288" y="147"/>
      <point x="300" y="128"/>
      <point x="310" y="128" type="curve"/>
      <point x="313" y="128"/>
      <point x="317" y="131"/>
      <point x="322" y="139" type="curve"/>
      <point x="346" y="177"/>
      <point x="370" y="223"/>
      <point x="395" y="276" type="curve"/>
    </contour>
    <contour>
      <point x="625" y="513" type="line"/>
      <point x="689" y="481"/>
      <point x="742" y="442"/>
      <point x="782" y="394" type="curve"/>
      <point x="825" y="342"/>
      <point x="846" y="294"/>
      <point x="846" y="248" type="curve"/>
      <point x="846" y="225"/>
      <point x="839" y="207"/>
      <point x="826" y="196" type="curve"/>
      <point x="819" y="190"/>
      <point x="812" y="187"/>
      <point x="803" y="187" type="curve"/>
      <point x="785" y="187"/>
      <point x="773" y="200"/>
      <point x="768" y="226" type="curve"/>
      <point x="757" y="286"/>
      <point x="737" y="336"/>
      <point x="710" y="376" type="curve"/>
      <point x="683" y="417"/>
      <point x="645" y="455"/>
      <point x="596" y="489" type="curve"/>
    </contour>
  </outline>
</glyph>
<glyph name="cid00010" format="1">
  <advance width="1000"/>
  <unicode hex="3045"/>
  <outline>
    <contour>
      <point x="388" y="497" type="line"/>
      <point x="478" y="543" type="line"/>
      <point x="426" y="555"/>
      <point x="388" y="583"/>
      <point x="366" y="626" type="curve"/>
      <point x="392" y="649" type="line"/>
      <point x="424" y="608"/>
      <point x="479" y="588"/>
      <point x="556" y="588" type="curve"/>
      <point x="562" y="588" type="line"/>
      <point x="581" y="588"/>
      <point x="596" y="585"/>
      <point x="608" y="579" type="curve"/>
      <point x="625" y="570"/>
      <point x="634" y="557"/>
      <point x="634" y="540" type="curve"/>
      <point x="634" y="517"/>
      <point x="621" y="505"/>
      <point x="595" y="505" type="curve"/>
      <point x="591" y="505"/>
      <point x="584" y="505"/>
      <point x="576" y="507" type="curve"/>
      <point x="564" y="509"/>
      <point x="553" y="510"/>
      <point x="542" y="510" type="curve"/>
      <point x="513" y="510"/>
      <point x="469" y="498"/>
      <point x="409" y="473" type="curve"/>
    </contour>
    <contour>
      <point x="292" y="403" type="line"/>
      <point x="292" y="379"/>
      <point x="298" y="367"/>
      <point x="311" y="367" type="curve"/>
      <point x="317" y="367"/>
      <point x="329" y="371"/>
      <point x="346" y="379" type="curve"/>
      <point x="375" y="393"/>
      <point x="409" y="405"/>
      <point x="446" y="416" type="curve"/>
      <point x="489" y="428"/>
      <point x="527" y="434"/>
      <point x="559" y="434" type="curve"/>
      <point x="666" y="434"/>
      <point x="719" y="370"/>
      <point x="719" y="242" type="curve"/>
      <point x="719" y="160"/>
      <point x="691" y="94"/>
      <point x="636" y="42" type="curve"/>
      <point x="580" y="-12"/>
      <point x="498" y="-50"/>
      <point x="392" y="-71" type="curve"/>
      <point x="368" y="-34" type="line"/>
      <point x="553" y="13"/>
      <point x="645" y="107"/>
      <point x="645" y="247" type="curve"/>
      <point x="645" y="293"/>
      <point x="639" y="327"/>
      <point x="627" y="348" type="curve"/>
      <point x="613" y="374"/>
      <point x="590" y="386"/>
      <point x="558" y="386" type="curve"/>
      <point x="489" y="386"/>
      <point x="417" y="355"/>
      <point x="342" y="292" type="curve"/>
      <point x="330" y="282"/>
      <point x="319" y="277"/>
      <point x="310" y="277" type="curve"/>
      <point x="292" y="277"/>
      <point x="277" y="287"/>
      <point x="266" y="308" type="curve"/>
      <point x="259" y="321"/>
      <point x="255" y="338"/>
      <point x="255" y="357" type="curve"/>
      <point x="255" y="364"/>
      <point x="255" y="373"/>
      <point x="257" y="383" type="curve"/>
    </contour>
  </outline>
</glyph>
<glyph name="cid00011" format="1">
  <advance width="1000"/>
  <unicode hex="3046"/>
  <outline>
    <contour>
      <point x="367" y="641" type="line"/>
      <point x="463" y="697" type="line"/>
      <point x="409" y="715"/>
      <point x="367" y="747"/>
      <point x="335" y="792" type="curve"/>
      <point x="365" y="820" type="line"/>
      <point x="396" y="789"/>
      <point x="430" y="768"/>
      <point x="468" y="758" type="curve"/>
      <point x="496" y="750"/>
      <point x="533" y="746"/>
      <point x="578" y="746" type="curve"/>
      <point x="633" y="746"/>
      <point x="661" y="728"/>
      <point x="661" y="692" type="curve"/>
      <point x="661" y="667"/>
      <point x="648" y="655"/>
      <point x="623" y="655" type="curve"/>
      <point x="617" y="655"/>
      <point x="608" y="656"/>
      <point x="596" y="658" type="curve"/>
      <point x="583" y="661"/>
      <point x="568" y="662"/>
      <point x="554" y="662" type="curve"/>
      <point x="511" y="662"/>
      <point x="457" y="645"/>
      <point x="393" y="612" type="curve"/>
    </contour>
    <contour>
      <point x="239" y="511" type="line"/>
      <point x="241" y="484"/>
      <point x="250" y="470"/>
      <point x="266" y="470" type="curve"/>
      <point x="274" y="470"/>
      <point x="291" y="475"/>
      <point x="313" y="485" type="curve"/>
      <point x="419" y="531"/>
      <point x="504" y="554"/>
      <point x="570" y="554" type="curve"/>
      <point x="643" y="554"/>
      <point x="694" y="533"/>
      <point x="724" y="491" type="curve"/>
      <point x="753" y="451"/>
      <point x="767" y="393"/>
      <point x="767" y="317" type="curve"/>
      <point x="767" y="219"/>
      <point x="733" y="137"/>
      <point x="667" y="73" type="curve"/>
      <point x="598" y="7"/>
      <point x="498" y="-39"/>
      <point x="367" y="-64" type="curve"/>
      <point x="344" y="-27" type="line"/>
      <point x="573" y="30"/>
      <point x="687" y="147"/>
      <point x="687" y="325" type="curve"/>
      <point x="687" y="383"/>
      <point x="680" y="426"/>
      <point x="666" y="456" type="curve"/>
      <point x="656" y="477"/>
      <point x="643" y="491"/>
      <point x="628" y="498" type="curve"/>
      <point x="615" y="503"/>
      <point x="597" y="506"/>
      <point x="573" y="506" type="curve"/>
      <point x="482" y="506"/>
      <point x="391" y="468"/>
      <point x="301" y="390" type="curve"/>
      <point x="286" y="377"/>
      <point x="273" y="370"/>
      <point x="263" y="370" type="curve"/>
      <point x="242" y="370"/>
      <point x="226" y="382"/>
      <point x="214" y="406" type="curve"/>
      <point x="205" y="424"/>
      <point x="201" y="445"/>
      <point x="201" y="469" type="curve"/>
      <point x="201" y="476"/>
      <point x="201" y="483"/>
      <point x="202" y="492" type="curve"/>
    </contour>
  </outline>
</glyph>
<glyph name="cid00012" format="1">
  <advance width="1000"/>
  <unicode hex="3047"/>
  <outline>
    <contour>
      <point x="397" y="493" type="line"/>
      <point x="474" y="535" type="line"/>
      <point x="423" y="545"/>
      <point x="388" y="573"/>
      <point x="368" y="616" type="curve"/>
      <point x="391" y="643" type="line"/>
      <point x="423" y="599"/>
      <point x="478" y="577"/>
      <point x="554" y="577" type="curve"/>
      <point x="581" y="577"/>
      <point x="599" y="575"/>
      <point x="609" y="571" type="curve"/>
      <point x="629" y="563"/>
      <point x="639" y="549"/>
      <point x="639" y="528" type="curve"/>
      <point x="639" y="506"/>
      <point x="626" y="495"/>
      <point x="601" y="495" type="curve"/>
      <point x="595" y="495"/>
      <point x="589" y="495"/>
      <point x="583" y="497" type="curve"/>
      <point x="559" y="501"/>
      <point x="544" y="503"/>
      <point x="539" y="503" type="curve"/>
      <point x="510" y="503"/>
      <point x="471" y="491"/>
      <point x="422" y="468" type="curve"/>
    </contour>
    <contour>
      <point x="317" y="427" type="line"/>
      <point x="320" y="399"/>
      <point x="329" y="385"/>
      <point x="342" y="385" type="curve"/>
      <point x="357" y="385"/>
      <point x="408" y="395"/>
      <point x="495" y="415" type="curve"/>
      <point x="553" y="429"/>
      <point x="586" y="439"/>
      <point x="596" y="445" type="curve"/>
      <point x="601" y="449"/>
      <point x="606" y="451"/>
      <point x="613" y="451" type="curve"/>
      <point x="626" y="451"/>
      <point x="640" y="444"/>
      <point x="656" y="430" type="curve"/>
      <point x="676" y="412"/>
      <point x="686" y="398"/>
      <point x="686" y="389" type="curve"/>
      <point x="686" y="380"/>
      <point x="677" y="373"/>
      <point x="660" y="365" type="curve"/>
      <point x="631" y="352"/>
      <point x="571" y="304"/>
      <point x="479" y="222" type="curve"/>
      <point x="460" y="205" type="line"/>
      <point x="442" y="188" type="line"/>
      <point x="444" y="185" type="line"/>
      <point x="479" y="208"/>
      <point x="504" y="220"/>
      <point x="522" y="220" type="curve"/>
      <point x="544" y="220"/>
      <point x="563" y="210"/>
      <point x="579" y="189" type="curve"/>
      <point x="589" y="175"/>
      <point x="594" y="156"/>
      <point x="594" y="130" type="curve"/>
      <point x="594" y="118"/>
      <point x="592" y="98"/>
      <point x="590" y="71" type="curve"/>
      <point x="589" y="62"/>
      <point x="588" y="55"/>
      <point x="588" y="51" type="curve"/>
      <point x="588" y="36"/>
      <point x="594" y="25"/>
      <point x="605" y="21" type="curve"/>
      <point x="616" y="17"/>
      <point x="633" y="14"/>
      <point x="657" y="14" type="curve"/>
      <point x="692" y="14"/>
      <point x="723" y="18"/>
      <point x="748" y="25" type="curve"/>
      <point x="757" y="27"/>
      <point x="765" y="29"/>
      <point x="771" y="29" type="curve"/>
      <point x="785" y="29"/>
      <point x="799" y="24"/>
      <point x="815" y="14" type="curve"/>
      <point x="829" y="5"/>
      <point x="836" y="-4"/>
      <point x="836" y="-15" type="curve"/>
      <point x="836" y="-29"/>
      <point x="826" y="-38"/>
      <point x="806" y="-43" type="curve"/>
      <point x="788" y="-48"/>
      <point x="749" y="-50"/>
      <point x="688" y="-50" type="curve"/>
      <point x="628" y="-50"/>
      <point x="589" y="-44"/>
      <point x="568" y="-31" type="curve"/>
      <point x="541" y="-15"/>
      <point x="528" y="13"/>
      <point x="528" y="50" type="curve"/>
      <point x="528" y="56"/>
      <point x="528" y="63"/>
      <point x="529" y="72" type="curve"/>
      <point x="532" y="95"/>
      <point x="533" y="117"/>
      <point x="533" y="140" type="curve"/>
      <point x="533" y="164"/>
      <point x="527" y="175"/>
      <point x="515" y="175" type="curve"/>
      <point x="498" y="175"/>
      <point x="467" y="158"/>
      <point x="424" y="123" type="curve"/>
      <point x="358" y="69"/>
      <point x="311" y="24"/>
      <point x="282" y="-11" type="curve"/>
      <point x="262" y="-37"/>
      <point x="244" y="-50"/>
      <point x="229" y="-50" type="curve"/>
      <point x="208" y="-50"/>
      <point x="197" y="-36"/>
      <point x="197" y="-7" type="curve"/>
      <point x="197" y="8"/>
      <point x="200" y="21"/>
      <point x="207" y="33" type="curve"/>
      <point x="211" y="40"/>
      <point x="222" y="49"/>
      <point x="237" y="59" type="curve"/>
      <point x="263" y="75"/>
      <point x="313" y="117"/>
      <point x="384" y="186" type="curve"/>
      <point x="489" y="285"/>
      <point x="556" y="352"/>
      <point x="586" y="385" type="curve"/>
      <point x="584" y="388" type="line"/>
      <point x="501" y="370"/>
      <point x="433" y="348"/>
      <point x="377" y="322" type="curve"/>
      <point x="357" y="312"/>
      <point x="342" y="307"/>
      <point x="332" y="307" type="curve"/>
      <point x="314" y="307"/>
      <point x="301" y="317"/>
      <point x="290" y="337" type="curve"/>
      <point x="283" y="350"/>
      <point x="279" y="365"/>
      <point x="279" y="381" type="curve"/>
      <point x="279" y="390"/>
      <point x="281" y="400"/>
      <point x="284" y="411" type="curve"/>
    </contour>
  </outline>
</glyph>
<glyph name="cid00013" format="1">
  <advance width="1000"/>
  <unicode hex="3048"/>
  <outline>
    <contour>
      <point x="381" y="632" type="line"/>
      <point x="468" y="687" type="line"/>
      <point x="416" y="701"/>
      <point x="373" y="732"/>
      <point x="340" y="781" type="curve"/>
      <point x="364" y="811" type="line"/>
      <point x="402" y="759"/>
      <point x="469" y="733"/>
      <point x="566" y="732" type="curve"/>
      <point x="598" y="731"/>
      <point x="620" y="729"/>
      <point x="632" y="726" type="curve"/>
      <point x="656" y="719"/>
      <point x="668" y="702"/>
      <point x="668" y="676" type="curve"/>
      <point x="668" y="653"/>
      <point x="654" y="642"/>
      <point x="626" y="642" type="curve"/>
      <point x="621" y="642"/>
      <point x="614" y="643"/>
      <point x="604" y="645" type="curve"/>
      <point x="580" y="649"/>
      <point x="562" y="652"/>
      <point x="551" y="652" type="curve"/>
      <point x="507" y="652"/>
      <point x="460" y="637"/>
      <point x="408" y="606" type="curve"/>
    </contour>
    <contour>
      <point x="266" y="541" type="line"/>
      <point x="270" y="508"/>
      <point x="282" y="492"/>
      <point x="302" y="492" type="curve"/>
      <point x="327" y="492"/>
      <point x="396" y="506"/>
      <point x="510" y="534" type="curve"/>
      <point x="573" y="549"/>
      <point x="611" y="561"/>
      <point x="624" y="570" type="curve"/>
      <point x="629" y="573"/>
      <point x="635" y="575"/>
      <point x="642" y="575" type="curve"/>
      <point x="655" y="575"/>
      <point x="669" y="569"/>
      <point x="684" y="556" type="curve"/>
      <point x="712" y="533"/>
      <point x="726" y="516"/>
      <point x="726" y="503" type="curve"/>
      <point x="726" y="497"/>
      <point x="717" y="489"/>
      <point x="698" y="479" type="curve"/>
      <point x="645" y="451"/>
      <point x="546" y="367"/>
      <point x="403" y="227" type="curve"/>
      <point x="405" y="223" type="line"/>
      <point x="457" y="265"/>
      <point x="499" y="286"/>
      <point x="531" y="286" type="curve"/>
      <point x="555" y="286"/>
      <point x="575" y="275"/>
      <point x="592" y="252" type="curve"/>
      <point x="605" y="234"/>
      <point x="611" y="211"/>
      <point x="611" y="183" type="curve"/>
      <point x="611" y="165"/>
      <point x="609" y="138"/>
      <point x="606" y="102" type="curve"/>
      <point x="605" y="92"/>
      <point x="604" y="85"/>
      <point x="604" y="81" type="curve"/>
      <point x="604" y="58"/>
      <point x="614" y="43"/>
      <point x="633" y="37" type="curve"/>
      <point x="645" y="32"/>
      <point x="664" y="30"/>
      <point x="692" y="30" type="curve"/>
      <point x="739" y="30"/>
      <point x="781" y="35"/>
      <point x="816" y="44" type="curve"/>
      <point x="825" y="46"/>
      <point x="834" y="48"/>
      <point x="842" y="48" type="curve"/>
      <point x="855" y="48"/>
      <point x="869" y="43"/>
      <point x="884" y="35" type="curve"/>
      <point x="904" y="24"/>
      <point x="914" y="12"/>
      <point x="914" y="-1" type="curve"/>
      <point x="914" y="-17"/>
      <point x="901" y="-27"/>
      <point x="876" y="-32" type="curve"/>
      <point x="852" y="-37"/>
      <point x="807" y="-40"/>
      <point x="742" y="-40" type="curve"/>
      <point x="667" y="-40"/>
      <point x="617" y="-32"/>
      <point x="590" y="-16" type="curve"/>
      <point x="583" y="-12"/>
      <point x="577" y="-6"/>
      <point x="570" y="0" type="curve"/>
      <point x="551" y="21"/>
      <point x="541" y="48"/>
      <point x="541" y="80" type="curve"/>
      <point x="541" y="86"/>
      <point x="542" y="95"/>
      <point x="543" y="108" type="curve"/>
      <point x="547" y="141"/>
      <point x="549" y="167"/>
      <point x="549" y="185" type="curve"/>
      <point x="549" y="206"/>
      <point x="547" y="220"/>
      <point x="544" y="226" type="curve"/>
      <point x="538" y="237"/>
      <point x="530" y="243"/>
      <point x="519" y="243" type="curve"/>
      <point x="496" y="243"/>
      <point x="458" y="222"/>
      <point x="407" y="180" type="curve"/>
      <point x="319" y="107"/>
      <point x="258" y="49"/>
      <point x="224" y="8" type="curve"/>
      <point x="198" y="-23"/>
      <point x="177" y="-39"/>
      <point x="162" y="-39" type="curve"/>
      <point x="139" y="-39"/>
      <point x="127" y="-23"/>
      <point x="127" y="10" type="curve"/>
      <point x="127" y="33"/>
      <point x="133" y="51"/>
      <point x="146" y="65" type="curve"/>
      <point x="151" y="69"/>
      <point x="160" y="77"/>
      <point x="175" y="86" type="curve"/>
      <point x="210" y="109"/>
      <point x="272" y="162"/>
      <point x="360" y="244" type="curve"/>
      <point x="473" y="350"/>
      <point x="562" y="439"/>
      <point x="626" y="511" type="curve"/>
      <point x="624" y="514" type="line"/>
      <point x="497" y="485"/>
      <point x="404" y="456"/>
      <point x="345" y="425" type="curve"/>
      <point x="322" y="413"/>
      <point x="304" y="407"/>
      <point x="291" y="407" type="curve"/>
      <point x="271" y="407"/>
      <point x="254" y="419"/>
      <point x="241" y="444" type="curve"/>
      <point x="232" y="460"/>
      <point x="228" y="479"/>
      <point x="228" y="502" type="curve"/>
      <point x="228" y="509"/>
      <point x="228" y="516"/>
      <point x="229" y="524" type="curve"/>
    </contour>
  </outline>
</glyph>
<glyph name="cid00014" format="1">
  <advance width="1000"/>
  <unicode hex="3049"/>
  <outline>
    <contour>
      <point x="349" y="428" type="curve"/>
      <point x="349" y="499" type="line"/>
      <point x="349" y="526"/>
      <point x="345" y="545"/>
      <point x="335" y="556" type="curve"/>
      <point x="327" y="566"/>
      <point x="312" y="573"/>
      <point x="292" y="574" type="curve"/>
      <point x="309" y="606" type="line"/>
      <point x="317" y="606"/>
      <point x="325" y="607"/>
      <point x="332" y="607" type="curve"/>
      <point x="356" y="607"/>
      <point x="375" y="603"/>
      <point x="390" y="596" type="curve"/>
      <point x="410" y="585"/>
      <point x="419" y="571"/>
      <point x="419" y="552" type="curve"/>
      <point x="419" y="547"/>
      <point x="418" y="540"/>
      <point x="415" y="531" type="curve"/>
      <point x="410" y="514"/>
      <point x="407" y="483"/>
      <point x="405" y="440" type="curve"/>
      <point x="431" y="446"/>
      <point x="453" y="456"/>
      <point x="469" y="469" type="curve"/>
      <point x="482" y="480"/>
      <point x="495" y="486"/>
      <point x="507" y="486" type="curve"/>
      <point x="519" y="486"/>
      <point x="530" y="482"/>
      <point x="541" y="475" type="curve"/>
      <point x="550" y="468"/>
      <point x="554" y="459"/>
      <point x="554" y="450" type="curve"/>
      <point x="554" y="437"/>
      <point x="542" y="425"/>
      <point x="518" y="414" type="curve"/>
      <point x="483" y="398"/>
      <point x="445" y="387"/>
      <point x="404" y="381" type="curve"/>
      <point x="404" y="258" type="line"/>
      <point x="470" y="281"/>
      <point x="534" y="292"/>
      <point x="597" y="292" type="curve"/>
      <point x="650" y="292"/>
      <point x="695" y="280"/>
      <point x="733" y="257" type="curve"/>
      <point x="778" y="229"/>
      <point x="801" y="188"/>
      <point x="801" y="137" type="curve"/>
      <point x="801" y="75"/>
      <point x="774" y="30"/>
      <point x="720" y="2" type="curve"/>
      <point x="676" y="-20"/>
      <point x="606" y="-32"/>
      <point x="512" y="-33" type="curve"/>
      <point x="495" y="8" type="line"/>
      <point x="579" y="11"/>
      <point x="638" y="23"/>
      <point x="672" y="43" type="curve"/>
      <point x="709" y="64"/>
      <point x="728" y="95"/>
      <point x="728" y="137" type="curve"/>
      <point x="728" y="173"/>
      <point x="712" y="201"/>
      <point x="682" y="220" type="curve"/>
      <point x="655" y="237"/>
      <point x="622" y="246"/>
      <point x="584" y="246" type="curve"/>
      <point x="533" y="246"/>
      <point x="473" y="232"/>
      <point x="404" y="204" type="curve"/>
      <point x="404" y="41" type="line"/>
      <point x="404" y="-18"/>
      <point x="380" y="-47"/>
      <point x="332" y="-47" type="curve"/>
      <point x="297" y="-47"/>
      <point x="261" y="-27"/>
      <point x="224" y="13" type="curve"/>
      <point x="198" y="42"/>
      <point x="185" y="67"/>
      <point x="185" y="90" type="curve"/>
      <point x="185" y="136"/>
      <point x="239" y="184"/>
      <point x="348" y="234" type="curve"/>
      <point x="348" y="373" type="line"/>
      <point x="330" y="371"/>
      <point x="311" y="370"/>
      <point x="293" y="370" type="curve"/>
      <point x="237" y="370"/>
      <point x="201" y="393"/>
      <point x="184" y="438" type="curve"/>
      <point x="209" y="465" type="line"/>
      <point x="226" y="437"/>
      <point x="250" y="423"/>
      <point x="284" y="423" type="curve"/>
      <point x="303" y="423"/>
      <point x="325" y="425"/>
    </contour>
    <contour>
      <point x="347" y="177" type="curve"/>
      <point x="278" y="138"/>
      <point x="244" y="108"/>
      <point x="244" y="86" type="curve"/>
      <point x="244" y="70"/>
      <point x="255" y="55"/>
      <point x="276" y="40" type="curve"/>
      <point x="294" y="26"/>
      <point x="311" y="19"/>
      <point x="326" y="19" type="curve"/>
      <point x="335" y="19"/>
      <point x="341" y="27"/>
      <point x="343" y="42" type="curve"/>
      <point x="346" y="62"/>
      <point x="347" y="107"/>
    </contour>
    <contour>
      <point x="639" y="564" type="line"/>
      <point x="697" y="556"/>
      <point x="745" y="537"/>
      <point x="783" y="505" type="curve"/>
      <point x="820" y="475"/>
      <point x="839" y="445"/>
      <point x="839" y="416" type="curve"/>
      <point x="839" y="403"/>
      <point x="836" y="393"/>
      <point x="830" y="384" type="curve"/>
      <point x="822" y="374"/>
      <point x="813" y="369"/>
      <point x="799" y="369" type="curve"/>
      <point x="781" y="369"/>
      <point x="768" y="379"/>
      <point x="760" y="400" type="curve"/>
      <point x="747" y="436"/>
      <point x="732" y="462"/>
      <point x="714" y="479" type="curve"/>
      <point x="688" y="504"/>
      <point x="656" y="522"/>
      <point x="619" y="534" type="curve"/>
    </contour>
  </outline>
</glyph>
<glyph name="cid00015" format="1">
  <advance width="1000"/>
  <unicode hex="304A"/>
  <outline>
    <contour>
      <point x="318" y="555" type="curve"/>
      <point x="318" y="649" type="line"/>
      <point x="318" y="684"/>
      <point x="312" y="708"/>
      <point x="300" y="723" type="curve"/>
      <point x="289" y="736"/>
      <point x="272" y="743"/>
      <point x="248" y="744" type="curve"/>
      <point x="267" y="780" type="line"/>
      <point x="351" y="779"/>
      <point x="392" y="757"/>
      <point x="392" y="715" type="curve"/>
      <point x="392" y="709"/>
      <point x="390" y="698"/>
      <point x="385" y="682" type="curve"/>
      <point x="379" y="661"/>
      <point x="375" y="622"/>
      <point x="374" y="567" type="curve"/>
      <point x="411" y="575"/>
      <point x="440" y="588"/>
      <point x="462" y="605" type="curve"/>
      <point x="480" y="619"/>
      <point x="495" y="626"/>
      <point x="508" y="626" type="curve"/>
      <point x="519" y="626"/>
      <point x="530" y="623"/>
      <point x="541" y="616" type="curve"/>
      <point x="554" y="608"/>
      <point x="561" y="599"/>
      <point x="561" y="588" type="curve"/>
      <point x="561" y="573"/>
      <point x="549" y="561"/>
      <point x="525" y="550" type="curve"/>
      <point x="482" y="531"/>
      <point x="432" y="517"/>
      <point x="374" y="507" type="curve"/>
      <point x="374" y="337" type="line"/>
      <point x="457" y="369"/>
      <point x="539" y="384"/>
      <point x="623" y="384" type="curve"/>
      <point x="690" y="384"/>
      <point x="747" y="369"/>
      <point x="793" y="337" type="curve"/>
      <point x="844" y="302"/>
      <point x="870" y="255"/>
      <point x="870" y="196" type="curve"/>
      <point x="870" y="139"/>
      <point x="854" y="96"/>
      <point x="821" y="66" type="curve"/>
      <point x="789" y="36"/>
      <point x="743" y="16"/>
      <point x="683" y="3" type="curve"/>
      <point x="642" y="-5"/>
      <point x="585" y="-10"/>
      <point x="514" y="-10" type="curve"/>
      <point x="503" y="34" type="line"/>
      <point x="596" y="37"/>
      <point x="665" y="49"/>
      <point x="709" y="70" type="curve"/>
      <point x="763" y="95"/>
      <point x="790" y="138"/>
      <point x="790" y="199" type="curve"/>
      <point x="790" y="242"/>
      <point x="771" y="276"/>
      <point x="735" y="302" type="curve"/>
      <point x="700" y="327"/>
      <point x="658" y="339"/>
      <point x="607" y="339" type="curve"/>
      <point x="539" y="339"/>
      <point x="461" y="321"/>
      <point x="374" y="284" type="curve"/>
      <point x="374" y="76" type="line"/>
      <point x="374" y="7"/>
      <point x="346" y="-28"/>
      <point x="290" y="-28" type="curve"/>
      <point x="255" y="-28"/>
      <point x="218" y="-10"/>
      <point x="179" y="25" type="curve"/>
      <point x="135" y="65"/>
      <point x="113" y="103"/>
      <point x="113" y="138" type="curve"/>
      <point x="113" y="193"/>
      <point x="181" y="252"/>
      <point x="316" y="313" type="curve"/>
      <point x="316" y="328" type="line"/>
      <point x="316" y="379" type="line"/>
      <point x="317" y="444"/>
      <point x="317" y="484"/>
      <point x="318" y="499" type="curve"/>
      <point x="298" y="496"/>
      <point x="272" y="494"/>
      <point x="243" y="494" type="curve"/>
      <point x="203" y="494"/>
      <point x="172" y="502"/>
      <point x="149" y="517" type="curve"/>
      <point x="132" y="528"/>
      <point x="118" y="545"/>
      <point x="107" y="567" type="curve"/>
      <point x="135" y="596" type="line"/>
      <point x="154" y="563"/>
      <point x="187" y="547"/>
      <point x="231" y="547" type="curve"/>
      <point x="264" y="547"/>
      <point x="292" y="550"/>
    </contour>
    <contour>
      <point x="315" y="255" type="line"/>
      <point x="221" y="206"/>
      <point x="174" y="165"/>
      <point x="174" y="132" type="curve"/>
      <point x="174" y="114"/>
      <point x="185" y="96"/>
      <point x="207" y="77" type="curve"/>
      <point x="234" y="54"/>
      <point x="259" y="42"/>
      <point x="282" y="42" type="curve"/>
      <point x="298" y="42"/>
      <point x="308" y="53"/>
      <point x="310" y="76" type="curve"/>
      <point x="313" y="101"/>
      <point x="314" y="149"/>
      <point x="314" y="220" type="curve"/>
      <point x="314" y="240" type="line"/>
    </contour>
    <contour>
      <point x="682" y="728" type="line"/>
      <point x="768" y="709"/>
      <point x="833" y="675"/>
      <point x="879" y="625" type="curve"/>
      <point x="905" y="596"/>
      <point x="918" y="570"/>
      <point x="918" y="545" type="curve"/>
      <point x="918" y="529"/>
      <point x="914" y="517"/>
      <point x="906" y="508" type="curve"/>
      <point x="897" y="498"/>
      <point x="886" y="493"/>
      <point x="873" y="493" type="curve"/>
      <point x="853" y="493"/>
      <point x="839" y="504"/>
      <point x="832" y="527" type="curve"/>
      <point x="804" y="614"/>
      <point x="747" y="670"/>
      <point x="659" y="696" type="curve"/>
    </contour>
  </outline>
</glyph>
<glyph name="cid00018" format="1">
  <advance width="1000"/>
  <unicode hex="304D"/>
  <outline>
    <contour>
      <point x="297" y="796" type="line"/>
      <point x="328" y="812"/>
      <point x="356" y="819"/>
      <point x="383" y="819" type="curve"/>
      <point x="418" y="819"/>
      <point x="441" y="800"/>
      <point x="453" y="763" type="curve"/>
      <point x="464" y="729"/>
      <point x="478" y="695"/>
      <point x="494" y="660" type="curve"/>
      <point x="523" y="672"/>
      <point x="543" y="682"/>
      <point x="554" y="688" type="curve"/>
      <point x="570" y="698"/>
      <point x="583" y="708"/>
      <point x="593" y="721" type="curve"/>
      <point x="605" y="737"/>
      <point x="620" y="745"/>
      <point x="639" y="745" type="curve"/>
      <point x="660" y="745"/>
      <point x="677" y="740"/>
      <point x="689" y="731" type="curve"/>
      <point x="695" y="726"/>
      <point x="699" y="719"/>
      <point x="699" y="712" type="curve"/>
      <point x="699" y="703"/>
      <point x="692" y="694"/>
      <point x="680" y="686" type="curve"/>
      <point x="638" y="657"/>
      <point x="584" y="631"/>
      <point x="518" y="608" type="curve"/>
      <point x="543" y="556"/>
      <point x="566" y="511"/>
      <point x="588" y="472" type="curve"/>
      <point x="659" y="495"/>
      <point x="704" y="518"/>
      <point x="724" y="543" type="curve"/>
      <point x="737" y="560"/>
      <point x="755" y="568"/>
      <point x="777" y="568" type="curve"/>
      <point x="802" y="568"/>
      <point x="820" y="561"/>
      <point x="830" y="548" type="curve"/>
      <point x="834" y="543"/>
      <point x="836" y="538"/>
      <point x="836" y="532" type="curve"/>
      <point x="836" y="519"/>
      <point x="824" y="505"/>
      <point x="799" y="492" type="curve"/>
      <point x="753" y="466"/>
      <point x="693" y="441"/>
      <point x="619" y="417" type="curve"/>
      <point x="646" y="371"/>
      <point x="674" y="327"/>
      <point x="704" y="283" type="curve"/>
      <point x="724" y="254"/>
      <point x="734" y="231"/>
      <point x="734" y="213" type="curve"/>
      <point x="734" y="202"/>
      <point x="730" y="190"/>
      <point x="724" y="179" type="curve"/>
      <point x="717" y="168"/>
      <point x="709" y="163"/>
      <point x="699" y="163" type="curve"/>
      <point x="688" y="163"/>
      <point x="678" y="167"/>
      <point x="669" y="175" type="curve"/>
      <point x="643" y="197"/>
      <point x="597" y="215"/>
      <point x="529" y="229" type="curve"/>
      <point x="540" y="266" type="line"/>
      <point x="571" y="264"/>
      <point x="602" y="259"/>
      <point x="633" y="254" type="curve"/>
      <point x="626" y="266" type="line"/>
      <point x="607" y="305" type="line"/>
      <point x="587" y="345" type="line"/>
      <point x="566" y="386" type="line"/>
      <point x="559" y="400" type="line"/>
      <point x="460" y="373"/>
      <point x="384" y="360"/>
      <point x="332" y="360" type="curve"/>
      <point x="253" y="360"/>
      <point x="191" y="390"/>
      <point x="147" y="450" type="curve"/>
      <point x="170" y="483" type="line"/>
      <point x="211" y="437"/>
      <point x="264" y="413"/>
      <point x="329" y="413" type="curve"/>
      <point x="379" y="413"/>
      <point x="447" y="427"/>
      <point x="532" y="454" type="curve"/>
      <point x="528" y="460" type="line"/>
      <point x="506" y="503"/>
      <point x="485" y="543"/>
      <point x="466" y="580" type="curve"/>
      <point x="461" y="589" type="line"/>
      <point x="397" y="570"/>
      <point x="345" y="561"/>
      <point x="306" y="561" type="curve"/>
      <point x="253" y="561"/>
      <point x="208" y="581"/>
      <point x="170" y="619" type="curve"/>
      <point x="190" y="653" type="line"/>
      <point x="217" y="628"/>
      <point x="254" y="615"/>
      <point x="300" y="615" type="curve"/>
      <point x="332" y="615"/>
      <point x="376" y="624"/>
      <point x="434" y="640" type="curve"/>
      <point x="418" y="669"/>
      <point x="403" y="696"/>
      <point x="389" y="721" type="curve"/>
      <point x="373" y="750"/>
      <point x="355" y="765"/>
      <point x="337" y="765" type="curve"/>
      <point x="331" y="765"/>
      <point x="319" y="763"/>
      <point x="302" y="758" type="curve"/>
    </contour>
    <contour>
      <point x="233" y="163" type="line"/>
      <point x="248" y="116"/>
      <point x="281" y="79"/>
      <point x="333" y="52" type="curve"/>
      <point x="375" y="30"/>
      <point x="430" y="20"/>
      <point x="496" y="20" type="curve"/>
      <point x="536" y="20"/>
      <point x="569" y="24"/>
      <point x="595" y="33" type="curve"/>
      <point x="606" y="37"/>
      <point x="617" y="39"/>
      <point x="627" y="39" type="curve"/>
      <point x="646" y="39"/>
      <point x="663" y="34"/>
      <point x="678" y="24" type="curve"/>
      <point x="693" y="15"/>
      <point x="701" y="3"/>
      <point x="701" y="-11" type="curve"/>
      <point x="701" y="-39"/>
      <point x="656" y="-53"/>
      <point x="565" y="-53" type="curve"/>
      <point x="461" y="-53"/>
      <point x="375" y="-36"/>
      <point x="309" y="0" type="curve"/>
      <point x="246" y="34"/>
      <point x="207" y="81"/>
      <point x="193" y="143" type="curve"/>
    </contour>
  </outline>
</glyph>
<glyph name="cid00019" format="1">
  <advance width="1000"/>
  <unicode hex="304E"/>
  <outline>
    <contour>
      <point x="739" y="793" type="line"/>
      <point x="776" y="780"/>
      <point x="806" y="764"/>
      <point x="829" y="744" type="curve"/>
      <point x="856" y="721"/>
      <point x="870" y="696"/>
      <point x="870" y="671" type="curve"/>
      <point x="870" y="657"/>
      <point x="866" y="646"/>
      <point x="857" y="640" type="curve"/>
      <point x="851" y="635"/>
      <point x="844" y="633"/>
      <point x="837" y="633" type="curve"/>
      <point x="823" y="633"/>
      <point x="813" y="639"/>
      <point x="808" y="650" type="curve"/>
      <point x="807" y="652"/>
      <point x="805" y="658"/>
      <point x="802" y="667" type="curve"/>
      <point x="789" y="709"/>
      <point x="761" y="743"/>
      <point x="718" y="768" type="curve"/>
    </contour>
    <contour>
      <point x="833" y="866" type="line"/>
      <point x="869" y="854"/>
      <point x="899" y="837"/>
      <point x="923" y="817" type="curve"/>
      <point x="951" y="794"/>
      <point x="964" y="770"/>
      <point x="964" y="745" type="curve"/>
      <point x="964" y="730"/>
      <point x="960" y="720"/>
      <point x="951" y="713" type="curve"/>
      <point x="945" y="708"/>
      <point x="938" y="706"/>
      <point x="931" y="706" type="curve"/>
      <point x="917" y="706"/>
      <point x="908" y="712"/>
      <point x="902" y="723" type="curve"/>
      <point x="901" y="725"/>
      <point x="899" y="731"/>
      <point x="896" y="740" type="curve"/>
      <point x="883" y="783"/>
      <point x="855" y="816"/>
      <point x="812" y="841" type="curve"/>
    </contour>
    <contour>
      <point x="287" y="796" type="line"/>
      <point x="318" y="812"/>
      <point x="347" y="819"/>
      <point x="374" y="819" type="curve"/>
      <point x="408" y="819"/>
      <point x="432" y="800"/>
      <point x="443" y="763" type="curve"/>
      <point x="454" y="729"/>
      <point x="468" y="695"/>
      <point x="484" y="660" type="curve"/>
      <point x="513" y="672"/>
      <point x="533" y="682"/>
      <point x="544" y="688" type="curve"/>
      <point x="561" y="698"/>
      <point x="573" y="708"/>
      <point x="583" y="721" type="curve"/>
      <point x="595" y="737"/>
      <point x="610" y="745"/>
      <point x="629" y="745" type="curve"/>
      <point x="650" y="745"/>
      <point x="667" y="740"/>
      <point x="679" y="731" type="curve"/>
      <point x="686" y="726"/>
      <point x="689" y="719"/>
      <point x="689" y="712" type="curve"/>
      <point x="689" y="703"/>
      <point x="683" y="694"/>
      <point x="670" y="686" type="curve"/>
      <point x="628" y="657"/>
      <point x="574" y="631"/>
      <point x="508" y="608" type="curve"/>
      <point x="533" y="556"/>
      <point x="557" y="511"/>
      <point x="578" y="472" type="curve"/>
      <point x="649" y="495"/>
      <point x="694" y="518"/>
      <point x="714" y="543" type="curve"/>
      <point x="728" y="560"/>
      <point x="745" y="568"/>
      <point x="767" y="568" type="curve"/>
      <point x="792" y="568"/>
      <point x="810" y="561"/>
      <point x="820" y="548" type="curve"/>
      <point x="824" y="543"/>
      <point x="826" y="538"/>
      <point x="826" y="532" type="curve"/>
      <point x="826" y="519"/>
      <point x="814" y="505"/>
      <point x="789" y="492" type="curve"/>
      <point x="744" y="466"/>
      <point x="684" y="441"/>
      <point x="609" y="417" type="curve"/>
      <point x="636" y="371"/>
      <point x="664" y="327"/>
      <point x="694" y="283" type="curve"/>
      <point x="714" y="254"/>
      <point x="724" y="231"/>
      <point x="724" y="213" type="curve"/>
      <point x="724" y="202"/>
      <point x="721" y="190"/>
      <point x="714" y="179" type="curve"/>
      <point x="708" y="168"/>
      <point x="699" y="163"/>
      <point x="689" y="163" type="curve"/>
      <point x="678" y="163"/>
      <point x="668" y="167"/>
      <point x="659" y="175" type="curve"/>
      <point x="633" y="197"/>
      <point x="587" y="215"/>
      <point x="519" y="229" type="curve"/>
      <point x="530" y="266" type="line"/>
      <point x="561" y="264"/>
      <point x="592" y="259"/>
      <point x="623" y="254" type="curve"/>
      <point x="617" y="266" type="line"/>
      <point x="597" y="305" type="line"/>
      <point x="577" y="345" type="line"/>
      <point x="556" y="386" type="line"/>
      <point x="549" y="400" type="line"/>
      <point x="450" y="373"/>
      <point x="375" y="360"/>
      <point x="322" y="360" type="curve"/>
      <point x="243" y="360"/>
      <point x="182" y="390"/>
      <point x="137" y="450" type="curve"/>
      <point x="160" y="483" type="line"/>
      <point x="202" y="437"/>
      <point x="254" y="413"/>
      <point x="319" y="413" type="curve"/>
      <point x="370" y="413"/>
      <point x="438" y="427"/>
      <point x="522" y="454" type="curve"/>
      <point x="519" y="460" type="line"/>
      <point x="497" y="503"/>
      <point x="476" y="543"/>
      <point x="456" y="580" type="curve"/>
      <point x="451" y="589" type="line"/>
      <point x="387" y="570"/>
      <point x="335" y="561"/>
      <point x="296" y="561" type="curve"/>
      <point x="244" y="561"/>
      <point x="199" y="581"/>
      <point x="160" y="619" type="curve"/>
      <point x="180" y="653" type="line"/>
      <point x="208" y="628"/>
      <point x="244" y="615"/>
      <point x="291" y="615" type="curve"/>
      <point x="322" y="615"/>
      <point x="367" y="624"/>
      <point x="424" y="640" type="curve"/>
      <point x="409" y="669"/>
      <point x="394" y="696"/>
      <point x="379" y="721" type="curve"/>
      <point x="363" y="750"/>
      <point x="346" y="765"/>
      <point x="328" y="765" type="curve"/>
      <point x="321" y="765"/>
      <point x="309" y="763"/>
      <point x="292" y="758" type="curve"/>
    </contour>
    <contour>
      <point x="223" y="163" type="line"/>
      <point x="238" y="116"/>
      <point x="271" y="79"/>
      <point x="323" y="52" type="curve"/>
      <point x="366" y="30"/>
      <point x="420" y="20"/>
      <point x="486" y="20" type="curve"/>
      <point x="526" y="20"/>
      <point x="560" y="24"/>
      <point x="585" y="33" type="curve"/>
      <point x="597" y="37"/>
      <point x="607" y="39"/>
      <point x="618" y="39" type="curve"/>
      <point x="636" y="39"/>
      <point x="653" y="34"/>
      <point x="668" y="24" type="curve"/>
      <point x="684" y="15"/>
      <point x="691" y="3"/>
      <point x="691" y="-11" type="curve"/>
      <point x="691" y="-39"/>
      <point x="646" y="-53"/>
      <point x="556" y="-53" type="curve"/>
      <point x="451" y="-53"/>
      <point x="366" y="-36"/>
      <point x="299" y="0" type="curve"/>
      <point x="236" y="34"/>
      <point x="197" y="81"/>
      <point x="183" y="143" type="curve"/>
    </contour>
  </outline>
</glyph>
<glyph name="cid00023" format="1">
  <advance width="1000"/>
  <unicode hex="3052"/>
  <outline>
    <contour>
      <point x="377" y="579" type="line"/>
      <point x="411" y="539"/>
      <point x="462" y="519"/>
      <point x="531" y="519" type="curve"/>
      <point x="575" y="519"/>
      <point x="625" y="524"/>
      <point x="680" y="535" type="curve"/>
      <point x="679" y="543"/>
      <point x="679" y="554"/>
      <point x="679" y="568" type="curve"/>
      <point x="676" y="665"/>
      <point x="669" y="725"/>
      <point x="657" y="748" type="curve"/>
      <point x="648" y="764"/>
      <point x="627" y="772"/>
      <point x="596" y="774" type="curve"/>
      <point x="611" y="813" type="line"/>
      <point x="617" y="813"/>
      <point x="622" y="813"/>
      <point x="625" y="813" type="curve"/>
      <point x="654" y="813"/>
      <point x="683" y="807"/>
      <point x="711" y="792" type="curve"/>
      <point x="737" y="780"/>
      <point x="750" y="765"/>
      <point x="750" y="747" type="curve"/>
      <point x="750" y="742"/>
      <point x="749" y="733"/>
      <point x="747" y="721" type="curve"/>
      <point x="745" y="709"/>
      <point x="744" y="696"/>
      <point x="744" y="682" type="curve"/>
      <point x="744" y="674"/>
      <point x="744" y="661"/>
      <point x="745" y="643" type="curve"/>
      <point x="747" y="596"/>
      <point x="748" y="565"/>
      <point x="749" y="552" type="curve"/>
      <point x="767" y="559"/>
      <point x="785" y="568"/>
      <point x="801" y="580" type="curve"/>
      <point x="813" y="589"/>
      <point x="828" y="593"/>
      <point x="845" y="593" type="curve"/>
      <point x="872" y="593"/>
      <point x="891" y="585"/>
      <point x="902" y="569" type="curve"/>
      <point x="906" y="564"/>
      <point x="908" y="559"/>
      <point x="908" y="553" type="curve"/>
      <point x="908" y="527"/>
      <point x="855" y="505"/>
      <point x="751" y="487" type="curve"/>
      <point x="751" y="477" type="line"/>
      <point x="752" y="412"/>
      <point x="753" y="370"/>
      <point x="753" y="352" type="curve"/>
      <point x="753" y="251"/>
      <point x="740" y="173"/>
      <point x="714" y="117" type="curve"/>
      <point x="675" y="34"/>
      <point x="601" y="-36"/>
      <point x="490" y="-92" type="curve"/>
      <point x="460" y="-63" type="line"/>
      <point x="561" y="3"/>
      <point x="625" y="74"/>
      <point x="650" y="148" type="curve"/>
      <point x="670" y="206"/>
      <point x="681" y="294"/>
      <point x="681" y="413" type="curve"/>
      <point x="681" y="476" type="line"/>
      <point x="621" y="467"/>
      <point x="571" y="462"/>
      <point x="531" y="462" type="curve"/>
      <point x="492" y="462"/>
      <point x="458" y="468"/>
      <point x="428" y="481" type="curve"/>
      <point x="401" y="494"/>
      <point x="375" y="515"/>
      <point x="353" y="545" type="curve"/>
    </contour>
    <contour>
      <point x="312" y="212" type="line"/>
      <point x="277" y="141"/>
      <point x="260" y="88"/>
      <point x="260" y="54" type="curve"/>
      <point x="260" y="51"/>
      <point x="261" y="46"/>
      <point x="261" y="39" type="curve"/>
      <point x="263" y="26"/>
      <point x="263" y="15"/>
      <point x="263" y="4" type="curve"/>
      <point x="263" y="-30"/>
      <point x="253" y="-48"/>
      <point x="234" y="-48" type="curve"/>
      <point x="217" y="-48"/>
      <point x="200" y="-29"/>
      <point x="184" y="7" type="curve"/>
      <point x="175" y="27"/>
      <point x="167" y="51"/>
      <point x="160" y="80" type="curve"/>
      <point x="143" y="147"/>
      <point x="135" y="212"/>
      <point x="135" y="274" type="curve"/>
      <point x="135" y="350"/>
      <point x="149" y="452"/>
      <point x="177" y="582" type="curve"/>
      <point x="187" y="629"/>
      <point x="192" y="665"/>
      <point x="192" y="688" type="curve"/>
      <point x="192" y="722"/>
      <point x="180" y="748"/>
      <point x="156" y="765" type="curve"/>
      <point x="188" y="788" type="line"/>
      <point x="214" y="777"/>
      <point x="235" y="762"/>
      <point x="250" y="742" type="curve"/>
      <point x="267" y="720"/>
      <point x="275" y="696"/>
      <point x="275" y="669" type="curve"/>
      <point x="275" y="650"/>
      <point x="267" y="624"/>
      <point x="251" y="589" type="curve"/>
      <point x="233" y="548"/>
      <point x="218" y="499"/>
      <point x="207" y="440" type="curve"/>
      <point x="195" y="384"/>
      <point x="190" y="328"/>
      <point x="190" y="272" type="curve"/>
      <point x="190" y="218"/>
      <point x="198" y="159"/>
      <point x="215" y="96" type="curve"/>
      <point x="232" y="143"/>
      <point x="253" y="191"/>
      <point x="280" y="242" type="curve"/>
    </contour>
    <contour>
      <point x="773" y="811" type="line"/>
      <point x="810" y="798"/>
      <point x="839" y="782"/>
      <point x="862" y="762" type="curve"/>
      <point x="890" y="739"/>
      <point x="904" y="714"/>
      <point x="904" y="689" type="curve"/>
      <point x="904" y="675"/>
      <point x="899" y="665"/>
      <point x="891" y="658" type="curve"/>
      <point x="884" y="653"/>
      <point x="878" y="651"/>
      <point x="871" y="651" type="curve"/>
      <point x="854" y="651"/>
      <point x="844" y="659"/>
      <point x="839" y="676" type="curve"/>
      <point x="824" y="724"/>
      <point x="795" y="761"/>
      <point x="752" y="786" type="curve"/>
    </contour>
    <contour>
      <point x="868" y="874" type="line"/>
      <point x="904" y="861"/>
      <point x="934" y="845"/>
      <point x="957" y="825" type="curve"/>
      <point x="985" y="802"/>
      <point x="999" y="777"/>
      <point x="999" y="752" type="curve"/>
      <point x="999" y="738"/>
      <point x="994" y="728"/>
      <point x="985" y="721" type="curve"/>
      <point x="979" y="716"/>
      <point x="973" y="714"/>
      <point x="965" y="714" type="curve"/>
      <point x="952" y="714"/>
      <point x="942" y="720"/>
      <point x="937" y="731" type="curve"/>
      <point x="936" y="733"/>
      <point x="934" y="739"/>
      <point x="931" y="748" type="curve"/>
      <point x="917" y="791"/>
      <point x="890" y="824"/>
      <point x="847" y="849" type="curve"/>
    </contour>
  </outline>
</glyph>
<glyph name="cid00024" format="1">
  <advance width="1000"/>
  <unicode hex="3053"/>
  <outline>
    <contour>
      <point x="445" y="538" type="line"/>
      <point x="547" y="624" type="line"/>
      <point x="515" y="619"/>
      <point x="479" y="616"/>
      <point x="438" y="616" type="curve"/>
      <point x="360" y="616"/>
      <point x="300" y="642"/>
      <point x="258" y="694" type="curve"/>
      <point x="283" y="727" type="line"/>
      <point x="314" y="691"/>
      <point x="366" y="673"/>
      <point x="438" y="673" type="curve"/>
      <point x="490" y="673"/>
      <point x="537" y="680"/>
      <point x="577" y="692" type="curve"/>
      <point x="604" y="701"/>
      <point x="630" y="705"/>
      <point x="657" y="705" type="curve"/>
      <point x="679" y="705"/>
      <point x="698" y="699"/>
      <point x="712" y="687" type="curve"/>
      <point x="724" y="676"/>
      <point x="730" y="665"/>
      <point x="730" y="651" type="curve"/>
      <point x="730" y="634"/>
      <point x="716" y="625"/>
      <point x="689" y="623" type="curve"/>
      <point x="645" y="621"/>
      <point x="601" y="604"/>
      <point x="555" y="572" type="curve"/>
      <point x="536" y="559"/>
      <point x="510" y="539"/>
      <point x="477" y="511" type="curve"/>
    </contour>
    <contour>
      <point x="192" y="270" type="line"/>
      <point x="211" y="193"/>
      <point x="250" y="142"/>
      <point x="310" y="115" type="curve"/>
      <point x="356" y="94"/>
      <point x="419" y="84"/>
      <point x="499" y="84" type="curve"/>
      <point x="574" y="84"/>
      <point x="638" y="90"/>
      <point x="692" y="104" type="curve"/>
      <point x="706" y="107"/>
      <point x="718" y="111"/>
      <point x="729" y="116" type="curve"/>
      <point x="742" y="122"/>
      <point x="753" y="124"/>
      <point x="764" y="124" type="curve"/>
      <point x="785" y="124"/>
      <point x="804" y="117"/>
      <point x="819" y="102" type="curve"/>
      <point x="828" y="93"/>
      <point x="832" y="84"/>
      <point x="832" y="75" type="curve"/>
      <point x="832" y="61"/>
      <point x="821" y="50"/>
      <point x="800" y="42" type="curve"/>
      <point x="786" y="38"/>
      <point x="763" y="33"/>
      <point x="732" y="28" type="curve"/>
      <point x="672" y="20"/>
      <point x="604" y="15"/>
      <point x="530" y="15" type="curve"/>
      <point x="420" y="15"/>
      <point x="335" y="31"/>
      <point x="276" y="63" type="curve"/>
      <point x="217" y="94"/>
      <point x="176" y="157"/>
      <point x="153" y="251" type="curve"/>
    </contour>
  </outline>
</glyph>
<glyph name="cid00029" format="1">
  <advance width="1000"/>
  <unicode hex="3058"/>
  <outline>
    <contour>
      <point x="871" y="322" type="line"/>
      <point x="772" y="81"/>
      <point x="637" y="-39"/>
      <point x="467" y="-39" type="curve"/>
      <point x="416" y="-39"/>
      <point x="370" y="-24"/>
      <point x="332" y="7" type="curve"/>
      <point x="294" y="37"/>
      <point x="268" y="77"/>
      <point x="255" y="126" type="curve"/>
      <point x="246" y="160"/>
      <point x="241" y="205"/>
      <point x="241" y="262" type="curve"/>
      <point x="241" y="340"/>
      <point x="250" y="473"/>
      <point x="266" y="659" type="curve"/>
      <point x="266" y="668"/>
      <point x="267" y="675"/>
      <point x="267" y="679" type="curve"/>
      <point x="267" y="705"/>
      <point x="258" y="724"/>
      <point x="242" y="736" type="curve"/>
      <point x="233" y="743"/>
      <point x="221" y="749"/>
      <point x="206" y="754" type="curve"/>
      <point x="231" y="788" type="line"/>
      <point x="264" y="784"/>
      <point x="291" y="775"/>
      <point x="314" y="760" type="curve"/>
      <point x="342" y="742"/>
      <point x="356" y="718"/>
      <point x="356" y="688" type="curve"/>
      <point x="356" y="680"/>
      <point x="353" y="661"/>
      <point x="345" y="632" type="curve"/>
      <point x="338" y="605"/>
      <point x="331" y="562"/>
      <point x="322" y="502" type="curve"/>
      <point x="308" y="399"/>
      <point x="300" y="315"/>
      <point x="300" y="250" type="curve"/>
      <point x="300" y="104"/>
      <point x="357" y="32"/>
      <point x="470" y="32" type="curve"/>
      <point x="552" y="32"/>
      <point x="625" y="63"/>
      <point x="691" y="127" type="curve"/>
      <point x="749" y="183"/>
      <point x="797" y="255"/>
      <point x="834" y="343" type="curve"/>
    </contour>
    <contour>
      <point x="617" y="681" type="line"/>
      <point x="654" y="668"/>
      <point x="684" y="652"/>
      <point x="707" y="632" type="curve"/>
      <point x="734" y="609"/>
      <point x="748" y="584"/>
      <point x="748" y="560" type="curve"/>
      <point x="748" y="545"/>
      <point x="744" y="535"/>
      <point x="735" y="528" type="curve"/>
      <point x="729" y="523"/>
      <point x="722" y="521"/>
      <point x="715" y="521" type="curve"/>
      <point x="701" y="521"/>
      <point x="691" y="527"/>
      <point x="686" y="538" type="curve"/>
      <point x="685" y="540"/>
      <point x="683" y="546"/>
      <point x="680" y="555" type="curve"/>
      <point x="667" y="598"/>
      <point x="639" y="631"/>
      <point x="596" y="656" type="curve"/>
    </contour>
    <contour>
      <point x="711" y="754" type="line"/>
      <point x="747" y="742"/>
      <point x="777" y="726"/>
      <point x="801" y="706" type="curve"/>
      <point x="829" y="683"/>
      <point x="842" y="658"/>
      <point x="842" y="633" type="curve"/>
      <point x="842" y="619"/>
      <point x="838" y="608"/>
      <point x="829" y="601" type="curve"/>
      <point x="823" y="597"/>
      <point x="816" y="594"/>
      <point x="809" y="594" type="curve"/>
      <point x="795" y="594"/>
      <point x="786" y="600"/>
      <point x="780" y="611" type="curve"/>
      <point x="779" y="613"/>
      <point x="777" y="619"/>
      <point x="774" y="628" type="curve"/>
      <point x="761" y="670"/>
      <point x="733" y="704"/>
      <point x="690" y="729" type="curve"/>
    </contour>
  </outline>
</glyph>
<glyph name="cid00033" format="1">
  <advance width="1000"/>
  <unicode hex="305C"/>
  <outline>
    <contour>
      <point x="214" y="723" type="line"/>
      <point x="224" y="727"/>
      <point x="235" y="728"/>
      <point x="247" y="728" type="curve"/>
      <point x="279" y="728"/>
      <point x="306" y="721"/>
      <point x="327" y="708" type="curve"/>
      <point x="344" y="697"/>
      <point x="353" y="682"/>
      <point x="353" y="663" type="curve"/>
      <point x="353" y="655"/>
      <point x="351" y="645"/>
      <point x="347" y="631" type="curve"/>
      <point x="342" y="615"/>
      <point x="340" y="583"/>
      <point x="340" y="533" type="curve"/>
      <point x="340" y="494" type="line"/>
      <point x="442" y="506"/>
      <point x="549" y="517"/>
      <point x="661" y="525" type="curve"/>
      <point x="665" y="581"/>
      <point x="667" y="630"/>
      <point x="667" y="673" type="curve"/>
      <point x="667" y="704"/>
      <point x="661" y="724"/>
      <point x="650" y="733" type="curve"/>
      <point x="643" y="739"/>
      <point x="631" y="744"/>
      <point x="615" y="748" type="curve"/>
      <point x="630" y="780" type="line"/>
      <point x="633" y="780"/>
      <point x="636" y="780"/>
      <point x="637" y="780" type="curve"/>
      <point x="675" y="780"/>
      <point x="706" y="772"/>
      <point x="727" y="757" type="curve"/>
      <point x="742" y="746"/>
      <point x="749" y="733"/>
      <point x="749" y="718" type="curve"/>
      <point x="749" y="709"/>
      <point x="748" y="700"/>
      <point x="744" y="692" type="curve"/>
      <point x="737" y="674"/>
      <point x="732" y="644"/>
      <point x="730" y="599" type="curve"/>
      <point x="729" y="581"/>
      <point x="727" y="561"/>
      <point x="726" y="539" type="curve"/>
      <point x="725" y="530" type="line"/>
      <point x="731" y="530"/>
      <point x="742" y="531"/>
      <point x="759" y="532" type="curve"/>
      <point x="766" y="533"/>
      <point x="777" y="534"/>
      <point x="792" y="535" type="curve"/>
      <point x="821" y="536"/>
      <point x="845" y="541"/>
      <point x="864" y="547" type="curve"/>
      <point x="875" y="551"/>
      <point x="886" y="553"/>
      <point x="894" y="553" type="curve"/>
      <point x="915" y="553"/>
      <point x="934" y="543"/>
      <point x="952" y="524" type="curve"/>
      <point x="961" y="513"/>
      <point x="966" y="502"/>
      <point x="966" y="492" type="curve"/>
      <point x="966" y="476"/>
      <point x="954" y="468"/>
      <point x="930" y="468" type="curve"/>
      <point x="925" y="468"/>
      <point x="917" y="468"/>
      <point x="905" y="470" type="curve"/>
      <point x="855" y="476"/>
      <point x="794" y="479"/>
      <point x="720" y="479" type="curve"/>
      <point x="708" y="361"/>
      <point x="692" y="279"/>
      <point x="675" y="233" type="curve"/>
      <point x="663" y="203"/>
      <point x="647" y="187"/>
      <point x="627" y="187" type="curve"/>
      <point x="619" y="187"/>
      <point x="613" y="190"/>
      <point x="609" y="198" type="curve"/>
      <point x="608" y="201"/>
      <point x="606" y="207"/>
      <point x="603" y="216" type="curve"/>
      <point x="595" y="245"/>
      <point x="578" y="269"/>
      <point x="552" y="287" type="curve"/>
      <point x="539" y="297"/>
      <point x="519" y="308"/>
      <point x="493" y="321" type="curve"/>
      <point x="501" y="356" type="line"/>
      <point x="562" y="327"/>
      <point x="600" y="312"/>
      <point x="614" y="312" type="curve"/>
      <point x="625" y="312"/>
      <point x="632" y="321"/>
      <point x="636" y="338" type="curve"/>
      <point x="645" y="376"/>
      <point x="652" y="422"/>
      <point x="657" y="476" type="curve"/>
      <point x="570" y="470"/>
      <point x="464" y="457"/>
      <point x="340" y="437" type="curve"/>
      <point x="340" y="309"/>
      <point x="341" y="223"/>
      <point x="345" y="179" type="curve"/>
      <point x="348" y="126"/>
      <point x="367" y="92"/>
      <point x="400" y="76" type="curve"/>
      <point x="440" y="58"/>
      <point x="494" y="49"/>
      <point x="562" y="49" type="curve"/>
      <point x="619" y="49"/>
      <point x="671" y="54"/>
      <point x="721" y="65" type="curve"/>
      <point x="729" y="67"/>
      <point x="737" y="70"/>
      <point x="746" y="73" type="curve"/>
      <point x="761" y="80"/>
      <point x="771" y="83"/>
      <point x="777" y="83" type="curve"/>
      <point x="793" y="83"/>
      <point x="809" y="77"/>
      <point x="824" y="65" type="curve"/>
      <point x="837" y="55"/>
      <point x="844" y="43"/>
      <point x="844" y="31" type="curve"/>
      <point x="844" y="16"/>
      <point x="833" y="5"/>
      <point x="810" y="-1" type="curve"/>
      <point x="792" y="-5"/>
      <point x="764" y="-9"/>
      <point x="724" y="-13" type="curve"/>
      <point x="676" y="-17"/>
      <point x="632" y="-19"/>
      <point x="593" y="-19" type="curve"/>
      <point x="491" y="-19"/>
      <point x="416" y="-5"/>
      <point x="369" y="22" type="curve"/>
      <point x="318" y="52"/>
      <point x="290" y="107"/>
      <point x="282" y="188" type="curve"/>
      <point x="278" y="230"/>
      <point x="275" y="310"/>
      <point x="274" y="426" type="curve"/>
      <point x="268" y="425" type="line"/>
      <point x="198" y="413"/>
      <point x="157" y="403"/>
      <point x="144" y="398" type="curve"/>
      <point x="132" y="393"/>
      <point x="117" y="390"/>
      <point x="100" y="390" type="curve"/>
      <point x="56" y="390"/>
      <point x="29" y="424"/>
      <point x="18" y="491" type="curve"/>
      <point x="49" y="512" type="line"/>
      <point x="58" y="483"/>
      <point x="81" y="468"/>
      <point x="119" y="468" type="curve"/>
      <point x="144" y="468"/>
      <point x="176" y="471"/>
      <point x="217" y="478" type="curve"/>
      <point x="236" y="480"/>
      <point x="255" y="483"/>
      <point x="273" y="485" type="curve"/>
      <point x="273" y="531" type="line"/>
      <point x="273" y="592"/>
      <point x="271" y="630"/>
      <point x="267" y="647" type="curve"/>
      <point x="263" y="662"/>
      <point x="257" y="672"/>
      <point x="249" y="679" type="curve"/>
      <point x="240" y="687"/>
      <point x="224" y="690"/>
      <point x="203" y="691" type="curve"/>
    </contour>
    <contour>
      <point x="769" y="799" type="line"/>
      <point x="806" y="786"/>
      <point x="835" y="770"/>
      <point x="858" y="750" type="curve"/>
      <point x="886" y="727"/>
      <point x="900" y="703"/>
      <point x="900" y="678" type="curve"/>
      <point x="900" y="664"/>
      <point x="896" y="653"/>
      <point x="887" y="646" type="curve"/>
      <point x="880" y="642"/>
      <point x="874" y="639"/>
      <point x="867" y="639" type="curve"/>
      <point x="853" y="639"/>
      <point x="843" y="645"/>
      <point x="838" y="656" type="curve"/>
      <point x="837" y="658"/>
      <point x="835" y="664"/>
      <point x="832" y="673" type="curve"/>
      <point x="819" y="716"/>
      <point x="791" y="749"/>
      <point x="748" y="774" type="curve"/>
    </contour>
    <contour>
      <point x="863" y="872" type="line"/>
      <point x="900" y="859"/>
      <point x="930" y="843"/>
      <point x="953" y="823" type="curve"/>
      <point x="980" y="800"/>
      <point x="994" y="775"/>
      <point x="994" y="750" type="curve"/>
      <point x="994" y="736"/>
      <point x="990" y="726"/>
      <point x="981" y="719" type="curve"/>
      <point x="975" y="714"/>
      <point x="968" y="712"/>
      <point x="961" y="712" type="curve"/>
      <point x="947" y="712"/>
      <point x="938" y="718"/>
      <point x="932" y="729" type="curve"/>
      <point x="931" y="731"/>
      <point x="929" y="737"/>
      <point x="926" y="746" type="curve"/>
      <point x="913" y="789"/>
      <point x="885" y="822"/>
      <point x="842" y="847" type="curve"/>
    </contour>
  </outline>
</glyph>
<glyph name="cid00035" format="1">
  <advance width="1000"/>
  <unicode hex="305E"/>
  <outline>
    <contour>
      <point x="761" y="796" type="line"/>
      <point x="797" y="783"/>
      <point x="828" y="767"/>
      <point x="851" y="748" type="curve"/>
      <point x="878" y="724"/>
      <point x="892" y="700"/>
      <point x="892" y="675" type="curve"/>
      <point x="892" y="661"/>
      <point x="888" y="650"/>
      <point x="879" y="643" type="curve"/>
      <point x="873" y="639"/>
      <point x="866" y="636"/>
      <point x="859" y="636" type="curve"/>
      <point x="845" y="636"/>
      <point x="835" y="642"/>
      <point x="830" y="653" type="curve"/>
      <point x="829" y="655"/>
      <point x="827" y="661"/>
      <point x="824" y="670" type="curve"/>
      <point x="811" y="712"/>
      <point x="783" y="746"/>
      <point x="740" y="771" type="curve"/>
    </contour>
    <contour>
      <point x="855" y="869" type="line"/>
      <point x="892" y="856"/>
      <point x="922" y="839"/>
      <point x="944" y="820" type="curve"/>
      <point x="972" y="796"/>
      <point x="986" y="772"/>
      <point x="986" y="748" type="curve"/>
      <point x="986" y="733"/>
      <point x="981" y="723"/>
      <point x="973" y="716" type="curve"/>
      <point x="966" y="711"/>
      <point x="960" y="709"/>
      <point x="953" y="709" type="curve"/>
      <point x="939" y="709"/>
      <point x="929" y="715"/>
      <point x="924" y="726" type="curve"/>
      <point x="923" y="728"/>
      <point x="921" y="734"/>
      <point x="918" y="743" type="curve"/>
      <point x="905" y="786"/>
      <point x="877" y="819"/>
      <point x="834" y="844" type="curve"/>
    </contour>
    <contour>
      <point x="290" y="756" type="line"/>
      <point x="298" y="742"/>
      <point x="306" y="732"/>
      <point x="313" y="727" type="curve"/>
      <point x="322" y="720"/>
      <point x="334" y="717"/>
      <point x="350" y="717" type="curve"/>
      <point x="389" y="717"/>
      <point x="465" y="728"/>
      <point x="577" y="749" type="curve"/>
      <point x="598" y="753"/>
      <point x="615" y="760"/>
      <point x="626" y="768" type="curve"/>
      <point x="635" y="775"/>
      <point x="644" y="778"/>
      <point x="653" y="778" type="curve"/>
      <point x="669" y="778"/>
      <point x="687" y="768"/>
      <point x="706" y="746" type="curve"/>
      <point x="724" y="726"/>
      <point x="733" y="709"/>
      <point x="733" y="698" type="curve"/>
      <point x="733" y="687"/>
      <point x="725" y="677"/>
      <point x="708" y="671" type="curve"/>
      <point x="685" y="662"/>
      <point x="661" y="649"/>
      <point x="634" y="633" type="curve"/>
      <point x="587" y="604"/>
      <point x="500" y="544"/>
      <point x="371" y="455" type="curve"/>
      <point x="339" y="433" type="line"/>
      <point x="461" y="455"/>
      <point x="583" y="473"/>
      <point x="705" y="486" type="curve"/>
      <point x="749" y="492" type="line"/>
      <point x="759" y="494"/>
      <point x="765" y="494"/>
      <point x="767" y="495" type="curve"/>
      <point x="793" y="498"/>
      <point x="809" y="500"/>
      <point x="816" y="500" type="curve"/>
      <point x="839" y="500"/>
      <point x="860" y="492"/>
      <point x="877" y="476" type="curve"/>
      <point x="889" y="465"/>
      <point x="895" y="453"/>
      <point x="895" y="439" type="curve"/>
      <point x="895" y="423"/>
      <point x="880" y="415"/>
      <point x="850" y="415" type="curve"/>
      <point x="832" y="415"/>
      <point x="810" y="417"/>
      <point x="784" y="422" type="curve"/>
      <point x="754" y="428"/>
      <point x="731" y="430"/>
      <point x="715" y="430" type="curve"/>
      <point x="645" y="430"/>
      <point x="580" y="403"/>
      <point x="520" y="349" type="curve"/>
      <point x="462" y="298"/>
      <point x="434" y="241"/>
      <point x="434" y="178" type="curve"/>
      <point x="434" y="127"/>
      <point x="454" y="88"/>
      <point x="495" y="62" type="curve"/>
      <point x="528" y="40"/>
      <point x="569" y="28"/>
      <point x="619" y="28" type="curve"/>
      <point x="630" y="28"/>
      <point x="641" y="29"/>
      <point x="650" y="31" type="curve"/>
      <point x="658" y="32"/>
      <point x="667" y="33"/>
      <point x="676" y="33" type="curve"/>
      <point x="693" y="33"/>
      <point x="708" y="28"/>
      <point x="722" y="17" type="curve"/>
      <point x="735" y="6"/>
      <point x="741" y="-5"/>
      <point x="741" y="-19" type="curve"/>
      <point x="741" y="-39"/>
      <point x="711" y="-49"/>
      <point x="651" y="-49" type="curve"/>
      <point x="568" y="-49"/>
      <point x="501" y="-30"/>
      <point x="452" y="7" type="curve"/>
      <point x="399" y="46"/>
      <point x="373" y="100"/>
      <point x="373" y="168" type="curve"/>
      <point x="373" y="225"/>
      <point x="394" y="279"/>
      <point x="434" y="328" type="curve"/>
      <point x="465" y="365"/>
      <point x="506" y="396"/>
      <point x="556" y="421" type="curve"/>
      <point x="556" y="424" type="line"/>
      <point x="381" y="394"/>
      <point x="263" y="363"/>
      <point x="202" y="333" type="curve"/>
      <point x="192" y="328"/>
      <point x="182" y="325"/>
      <point x="172" y="325" type="curve"/>
      <point x="136" y="325"/>
      <point x="106" y="356"/>
      <point x="84" y="418" type="curve"/>
      <point x="112" y="442" type="line"/>
      <point x="127" y="417"/>
      <point x="149" y="404"/>
      <point x="176" y="404" type="curve"/>
      <point x="190" y="404"/>
      <point x="211" y="408"/>
      <point x="241" y="414" type="curve"/>
      <point x="390" y="532"/>
      <point x="520" y="632"/>
      <point x="632" y="715" type="curve"/>
      <point x="632" y="718" type="line"/>
      <point x="492" y="686"/>
      <point x="408" y="662"/>
      <point x="380" y="647" type="curve"/>
      <point x="368" y="641"/>
      <point x="354" y="637"/>
      <point x="338" y="637" type="curve"/>
      <point x="316" y="637"/>
      <point x="297" y="650"/>
      <point x="281" y="675" type="curve"/>
      <point x="271" y="692"/>
      <point x="263" y="712"/>
      <point x="258" y="736" type="curve"/>
    </contour>
  </outline>
</glyph>
<glyph name="cid00037" format="1">
  <advance width="1000"/>
  <unicode hex="3060"/>
  <outline>
    <contour>
      <point x="711" y="721" type="line"/>
      <point x="748" y="708"/>
      <point x="778" y="692"/>
      <point x="801" y="672" type="curve"/>
      <point x="829" y="649"/>
      <point x="842" y="625"/>
      <point x="842" y="600" type="curve"/>
      <point x="842" y="585"/>
      <point x="838" y="575"/>
      <point x="829" y="568" type="curve"/>
      <point x="823" y="563"/>
      <point x="816" y="561"/>
      <point x="809" y="561" type="curve"/>
      <point x="795" y="561"/>
      <point x="786" y="567"/>
      <point x="780" y="578" type="curve"/>
      <point x="779" y="580"/>
      <point x="777" y="586"/>
      <point x="774" y="595" type="curve"/>
      <point x="761" y="638"/>
      <point x="733" y="671"/>
      <point x="690" y="696" type="curve"/>
    </contour>
    <contour>
      <point x="805" y="794" type="line"/>
      <point x="842" y="781"/>
      <point x="872" y="765"/>
      <point x="895" y="745" type="curve"/>
      <point x="922" y="722"/>
      <point x="936" y="697"/>
      <point x="936" y="672" type="curve"/>
      <point x="936" y="658"/>
      <point x="932" y="648"/>
      <point x="923" y="641" type="curve"/>
      <point x="917" y="636"/>
      <point x="910" y="634"/>
      <point x="903" y="634" type="curve"/>
      <point x="889" y="634"/>
      <point x="879" y="640"/>
      <point x="874" y="651" type="curve"/>
      <point x="873" y="653"/>
      <point x="871" y="659"/>
      <point x="868" y="668" type="curve"/>
      <point x="855" y="710"/>
      <point x="827" y="744"/>
      <point x="784" y="769" type="curve"/>
    </contour>
    <contour>
      <point x="346" y="791" type="line"/>
      <point x="360" y="795"/>
      <point x="375" y="797"/>
      <point x="389" y="797" type="curve"/>
      <point x="417" y="797"/>
      <point x="440" y="787"/>
      <point x="460" y="766" type="curve"/>
      <point x="471" y="755"/>
      <point x="476" y="745"/>
      <point x="476" y="734" type="curve"/>
      <point x="476" y="728"/>
      <point x="473" y="718"/>
      <point x="466" y="705" type="curve"/>
      <point x="462" y="696"/>
      <point x="446" y="658"/>
      <point x="419" y="591" type="curve"/>
      <point x="412" y="573" type="line"/>
      <point x="439" y="579"/>
      <point x="459" y="583"/>
      <point x="472" y="587" type="curve"/>
      <point x="493" y="594"/>
      <point x="510" y="604"/>
      <point x="523" y="616" type="curve"/>
      <point x="533" y="626"/>
      <point x="547" y="631"/>
      <point x="565" y="631" type="curve"/>
      <point x="585" y="631"/>
      <point x="602" y="626"/>
      <point x="615" y="615" type="curve"/>
      <point x="623" y="609"/>
      <point x="627" y="603"/>
      <point x="627" y="595" type="curve"/>
      <point x="627" y="579"/>
      <point x="606" y="565"/>
      <point x="566" y="552" type="curve"/>
      <point x="517" y="536"/>
      <point x="458" y="523"/>
      <point x="389" y="513" type="curve"/>
      <point x="368" y="460"/>
      <point x="344" y="396"/>
      <point x="316" y="321" type="curve"/>
      <point x="297" y="269"/>
      <point x="262" y="192"/>
      <point x="212" y="91" type="curve"/>
      <point x="202" y="71"/>
      <point x="194" y="55"/>
      <point x="189" y="45" type="curve"/>
      <point x="177" y="18"/>
      <point x="167" y="1"/>
      <point x="161" y="-7" type="curve"/>
      <point x="152" y="-18"/>
      <point x="143" y="-23"/>
      <point x="132" y="-23" type="curve"/>
      <point x="125" y="-23"/>
      <point x="118" y="-21"/>
      <point x="113" y="-15" type="curve"/>
      <point x="103" y="-4"/>
      <point x="98" y="12"/>
      <point x="98" y="33" type="curve"/>
      <point x="98" y="54"/>
      <point x="107" y="76"/>
      <point x="124" y="97" type="curve"/>
      <point x="147" y="125"/>
      <point x="174" y="171"/>
      <point x="207" y="236" type="curve"/>
      <point x="249" y="318"/>
      <point x="288" y="408"/>
      <point x="324" y="506" type="curve"/>
      <point x="306" y="504"/>
      <point x="289" y="503"/>
      <point x="273" y="503" type="curve"/>
      <point x="232" y="503"/>
      <point x="199" y="511"/>
      <point x="174" y="528" type="curve"/>
      <point x="156" y="541"/>
      <point x="139" y="559"/>
      <point x="125" y="584" type="curve"/>
      <point x="154" y="612" type="line"/>
      <point x="180" y="575"/>
      <point x="218" y="556"/>
      <point x="269" y="556" type="curve"/>
      <point x="290" y="556"/>
      <point x="314" y="558"/>
      <point x="344" y="562" type="curve"/>
      <point x="346" y="566" type="line"/>
      <point x="354" y="593" type="line"/>
      <point x="363" y="619" type="line"/>
      <point x="377" y="662"/>
      <point x="384" y="695"/>
      <point x="384" y="717" type="curve"/>
      <point x="384" y="740"/>
      <point x="373" y="752"/>
      <point x="350" y="752" type="curve"/>
      <point x="344" y="752"/>
      <point x="337" y="751"/>
      <point x="329" y="749" type="curve"/>
    </contour>
    <contour>
      <point x="485" y="187" type="line"/>
      <point x="502" y="139"/>
      <point x="527" y="105"/>
      <point x="559" y="86" type="curve"/>
      <point x="592" y="66"/>
      <point x="636" y="56"/>
      <point x="692" y="56" type="curve"/>
      <point x="733" y="56"/>
      <point x="768" y="60"/>
      <point x="794" y="67" type="curve"/>
      <point x="810" y="71"/>
      <point x="825" y="73"/>
      <point x="839" y="73" type="curve"/>
      <point x="863" y="73"/>
      <point x="882" y="66"/>
      <point x="897" y="51" type="curve"/>
      <point x="904" y="45"/>
      <point x="907" y="37"/>
      <point x="907" y="29" type="curve"/>
      <point x="907" y="13"/>
      <point x="894" y="2"/>
      <point x="868" y="-4" type="curve"/>
      <point x="847" y="-10"/>
      <point x="809" y="-12"/>
      <point x="755" y="-12" type="curve"/>
      <point x="665" y="-12"/>
      <point x="597" y="0"/>
      <point x="552" y="24" type="curve"/>
      <point x="502" y="52"/>
      <point x="467" y="99"/>
      <point x="448" y="167" type="curve"/>
    </contour>
    <contour>
      <point x="643" y="346" type="line"/>
      <point x="701" y="404" type="line"/>
      <point x="630" y="400"/>
      <point x="563" y="383"/>
      <point x="498" y="352" type="curve"/>
      <point x="491" y="389" type="line"/>
      <point x="574" y="440"/>
      <point x="654" y="466"/>
      <point x="734" y="466" type="curve"/>
      <point x="774" y="466"/>
      <point x="806" y="459"/>
      <point x="830" y="445" type="curve"/>
      <point x="841" y="438"/>
      <point x="847" y="430"/>
      <point x="847" y="420" type="curve"/>
      <point x="847" y="408"/>
      <point x="837" y="401"/>
      <point x="818" y="398" type="curve"/>
      <point x="772" y="393"/>
      <point x="725" y="369"/>
      <point x="675" y="325" type="curve"/>
    </contour>
  </outline>
</glyph>
<glyph name="cid00038" format="1">
  <advance width="1000"/>
  <unicode hex="3061"/>
  <outline>
    <contour>
      <point x="284" y="795" type="line"/>
      <point x="298" y="797"/>
      <point x="310" y="799"/>
      <point x="320" y="799" type="curve"/>
      <point x="348" y="799"/>
      <point x="370" y="792"/>
      <point x="386" y="778" type="curve"/>
      <point x="400" y="766"/>
      <point x="407" y="751"/>
      <point x="407" y="734" type="curve"/>
      <point x="407" y="723"/>
      <point x="404" y="711"/>
      <point x="399" y="701" type="curve"/>
      <point x="396" y="695"/>
      <point x="393" y="688"/>
      <point x="389" y="676" type="curve"/>
      <point x="385" y="667"/>
      <point x="381" y="658"/>
      <point x="378" y="651" type="curve"/>
      <point x="373" y="638"/>
      <point x="367" y="619"/>
      <point x="359" y="592" type="curve"/>
      <point x="444" y="612"/>
      <point x="501" y="633"/>
      <point x="530" y="656" type="curve"/>
      <point x="543" y="666"/>
      <point x="556" y="671"/>
      <point x="568" y="671" type="curve"/>
      <point x="586" y="671"/>
      <point x="603" y="665"/>
      <point x="618" y="654" type="curve"/>
      <point x="626" y="647"/>
      <point x="630" y="641"/>
      <point x="630" y="634" type="curve"/>
      <point x="630" y="619"/>
      <point x="612" y="605"/>
      <point x="577" y="591" type="curve"/>
      <point x="525" y="571"/>
      <point x="447" y="551"/>
      <point x="342" y="530" type="curve"/>
      <point x="317" y="427"/>
      <point x="304" y="351"/>
      <point x="304" y="300" type="curve"/>
      <point x="304" y="290"/>
      <point x="307" y="285"/>
      <point x="313" y="285" type="curve"/>
      <point x="316" y="285"/>
      <point x="323" y="288"/>
      <point x="333" y="295" type="curve"/>
      <point x="371" y="321"/>
      <point x="416" y="345"/>
      <point x="468" y="367" type="curve"/>
      <point x="523" y="390"/>
      <point x="575" y="401"/>
      <point x="625" y="401" type="curve"/>
      <point x="685" y="401"/>
      <point x="734" y="385"/>
      <point x="774" y="354" type="curve"/>
      <point x="814" y="322"/>
      <point x="834" y="280"/>
      <point x="834" y="227" type="curve"/>
      <point x="834" y="171"/>
      <point x="811" y="122"/>
      <point x="763" y="79" type="curve"/>
      <point x="726" y="44"/>
      <point x="673" y="17"/>
      <point x="607" y="-4" type="curve"/>
      <point x="540" y="-26"/>
      <point x="468" y="-39"/>
      <point x="393" y="-42" type="curve"/>
      <point x="375" y="-6" type="line"/>
      <point x="477" y="7"/>
      <point x="562" y="30"/>
      <point x="629" y="63" type="curve"/>
      <point x="711" y="104"/>
      <point x="752" y="160"/>
      <point x="752" y="229" type="curve"/>
      <point x="752" y="269"/>
      <point x="738" y="301"/>
      <point x="710" y="323" type="curve"/>
      <point x="684" y="343"/>
      <point x="651" y="353"/>
      <point x="612" y="353" type="curve"/>
      <point x="557" y="353"/>
      <point x="499" y="333"/>
      <point x="438" y="293" type="curve"/>
      <point x="379" y="254"/>
      <point x="337" y="218"/>
      <point x="312" y="183" type="curve"/>
      <point x="307" y="175"/>
      <point x="298" y="171"/>
      <point x="288" y="171" type="curve"/>
      <point x="275" y="171"/>
      <point x="265" y="179"/>
      <point x="257" y="194" type="curve"/>
      <point x="247" y="213"/>
      <point x="241" y="241"/>
      <point x="241" y="276" type="curve"/>
      <point x="241" y="336"/>
      <point x="253" y="418"/>
      <point x="277" y="520" type="curve"/>
      <point x="261" y="518"/>
      <point x="244" y="516"/>
      <point x="225" y="516" type="curve"/>
      <point x="182" y="516"/>
      <point x="147" y="527"/>
      <point x="123" y="548" type="curve"/>
      <point x="107" y="561"/>
      <point x="94" y="579"/>
      <point x="81" y="603" type="curve"/>
      <point x="109" y="630" type="line"/>
      <point x="135" y="591"/>
      <point x="173" y="571"/>
      <point x="224" y="571" type="curve"/>
      <point x="244" y="571"/>
      <point x="266" y="574"/>
      <point x="291" y="578" type="curve"/>
      <point x="295" y="599"/>
      <point x="301" y="620"/>
      <point x="306" y="642" type="curve"/>
      <point x="317" y="682"/>
      <point x="322" y="708"/>
      <point x="322" y="717" type="curve"/>
      <point x="322" y="738"/>
      <point x="313" y="751"/>
      <point x="296" y="755" type="curve"/>
      <point x="289" y="758"/>
      <point x="278" y="759"/>
      <point x="266" y="759" type="curve"/>
    </contour>
  </outline>
</glyph>
<glyph name="cid00040" format="1">
  <advance width="1000"/>
  <unicode hex="3063"/>
  <outline>
    <contour>
      <point x="175" y="410" type="line"/>
      <point x="187" y="393"/>
      <point x="199" y="384"/>
      <point x="213" y="384" type="curve"/>
      <point x="224" y="384"/>
      <point x="250" y="393"/>
      <point x="293" y="410" type="curve"/>
      <point x="409" y="456"/>
      <point x="505" y="479"/>
      <point x="580" y="479" type="curve"/>
      <point x="647" y="479"/>
      <point x="703" y="461"/>
      <point x="747" y="425" type="curve"/>
      <point x="792" y="387"/>
      <point x="814" y="339"/>
      <point x="814" y="280" type="curve"/>
      <point x="814" y="183"/>
      <point x="761" y="110"/>
      <point x="656" y="62" type="curve"/>
      <point x="600" y="36"/>
      <point x="522" y="17"/>
      <point x="424" y="5" type="curve"/>
      <point x="401" y="47" type="line"/>
      <point x="499" y="59"/>
      <point x="578" y="83"/>
      <point x="639" y="118" type="curve"/>
      <point x="704" y="156"/>
      <point x="737" y="212"/>
      <point x="737" y="286" type="curve"/>
      <point x="737" y="330"/>
      <point x="722" y="365"/>
      <point x="693" y="392" type="curve"/>
      <point x="664" y="419"/>
      <point x="628" y="432"/>
      <point x="586" y="432" type="curve"/>
      <point x="549" y="432"/>
      <point x="501" y="422"/>
      <point x="442" y="402" type="curve"/>
      <point x="374" y="379"/>
      <point x="316" y="351"/>
      <point x="271" y="319" type="curve"/>
      <point x="259" y="311"/>
      <point x="247" y="307"/>
      <point x="233" y="307" type="curve"/>
      <point x="197" y="307"/>
      <point x="168" y="332"/>
      <point x="147" y="381" type="curve"/>
    </contour>
  </outline>
</glyph>
<glyph name="cid00042" format="1">
  <advance width="1000"/>
  <unicode hex="3065"/>
  <outline>
    <contour>
      <point x="93" y="547" type="line"/>
      <point x="105" y="528"/>
      <point x="121" y="519"/>
      <point x="141" y="519" type="curve"/>
      <point x="155" y="519"/>
      <point x="180" y="526"/>
      <point x="217" y="540" type="curve"/>
      <point x="296" y="570"/>
      <point x="359" y="592"/>
      <point x="404" y="605" type="curve"/>
      <point x="479" y="627"/>
      <point x="545" y="638"/>
      <point x="601" y="638" type="curve"/>
      <point x="677" y="638"/>
      <point x="743" y="618"/>
      <point x="797" y="576" type="curve"/>
      <point x="856" y="531"/>
      <point x="886" y="470"/>
      <point x="886" y="395" type="curve"/>
      <point x="886" y="280"/>
      <point x="827" y="194"/>
      <point x="709" y="137" type="curve"/>
      <point x="634" y="100"/>
      <point x="534" y="73"/>
      <point x="409" y="57" type="curve"/>
      <point x="386" y="99" type="line"/>
      <point x="509" y="120"/>
      <point x="602" y="147"/>
      <point x="663" y="180" type="curve"/>
      <point x="709" y="205"/>
      <point x="744" y="234"/>
      <point x="766" y="268" type="curve"/>
      <point x="790" y="305"/>
      <point x="802" y="350"/>
      <point x="802" y="403" type="curve"/>
      <point x="802" y="460"/>
      <point x="783" y="505"/>
      <point x="745" y="540" type="curve"/>
      <point x="707" y="574"/>
      <point x="660" y="591"/>
      <point x="604" y="591" type="curve"/>
      <point x="551" y="591"/>
      <point x="489" y="578"/>
      <point x="418" y="552" type="curve"/>
      <point x="367" y="533"/>
      <point x="297" y="498"/>
      <point x="208" y="448" type="curve"/>
      <point x="194" y="439"/>
      <point x="180" y="435"/>
      <point x="167" y="435" type="curve"/>
      <point x="136" y="435"/>
      <point x="109" y="449"/>
      <point x="88" y="477" type="curve"/>
      <point x="82" y="485"/>
      <point x="74" y="499"/>
      <point x="64" y="518" type="curve"/>
    </contour>
    <contour>
      <point x="751" y="771" type="line"/>
      <point x="788" y="758"/>
      <point x="817" y="742"/>
      <point x="840" y="723" type="curve"/>
      <point x="868" y="699"/>
      <point x="882" y="675"/>
      <point x="882" y="650" type="curve"/>
      <point x="882" y="636"/>
      <point x="877" y="625"/>
      <point x="869" y="618" type="curve"/>
      <point x="862" y="614"/>
      <point x="856" y="611"/>
      <point x="849" y="611" type="curve"/>
      <point x="835" y="611"/>
      <point x="825" y="617"/>
      <point x="820" y="628" type="curve"/>
      <point x="819" y="630"/>
      <point x="817" y="636"/>
      <point x="814" y="646" type="curve"/>
      <point x="801" y="688"/>
      <point x="773" y="721"/>
      <point x="730" y="746" type="curve"/>
    </contour>
    <contour>
      <point x="845" y="844" type="line"/>
      <point x="881" y="831"/>
      <point x="912" y="815"/>
      <point x="935" y="795" type="curve"/>
      <point x="962" y="772"/>
      <point x="976" y="748"/>
      <point x="976" y="723" type="curve"/>
      <point x="976" y="708"/>
      <point x="972" y="698"/>
      <point x="963" y="691" type="curve"/>
      <point x="957" y="687"/>
      <point x="950" y="684"/>
      <point x="943" y="684" type="curve"/>
      <point x="929" y="684"/>
      <point x="919" y="690"/>
      <point x="914" y="701" type="curve"/>
      <point x="913" y="703"/>
      <point x="911" y="709"/>
      <point x="908" y="718" type="curve"/>
      <point x="895" y="761"/>
      <point x="867" y="794"/>
      <point x="824" y="819" type="curve"/>
    </contour>
  </outline>
</glyph>
<glyph name="cid00043" format="1">
  <advance width="1000"/>
  <unicode hex="3066"/>
  <outline>
    <contour>
      <point x="101" y="655" type="line"/>
      <point x="110" y="632"/>
      <point x="128" y="620"/>
      <point x="153" y="620" type="curve"/>
      <point x="170" y="620"/>
      <point x="200" y="625"/>
      <point x="244" y="635" type="curve"/>
      <point x="336" y="657"/>
      <point x="483" y="684"/>
      <point x="684" y="716" type="curve"/>
      <point x="703" y="719"/>
      <point x="717" y="721"/>
      <point x="726" y="723" type="curve"/>
      <point x="748" y="728"/>
      <point x="767" y="730"/>
      <point x="783" y="730" type="curve"/>
      <point x="807" y="730"/>
      <point x="828" y="725"/>
      <point x="846" y="714" type="curve"/>
      <point x="866" y="702"/>
      <point x="876" y="689"/>
      <point x="876" y="675" type="curve"/>
      <point x="876" y="667"/>
      <point x="872" y="659"/>
      <point x="863" y="654" type="curve"/>
      <point x="853" y="647"/>
      <point x="840" y="644"/>
      <point x="825" y="644" type="curve"/>
      <point x="812" y="644"/>
      <point x="793" y="646"/>
      <point x="769" y="650" type="curve"/>
      <point x="749" y="653"/>
      <point x="730" y="655"/>
      <point x="714" y="655" type="curve"/>
      <point x="633" y="655"/>
      <point x="566" y="619"/>
      <point x="511" y="548" type="curve"/>
      <point x="492" y="523"/>
      <point x="476" y="496"/>
      <point x="463" y="466" type="curve"/>
      <point x="438" y="409"/>
      <point x="425" y="350"/>
      <point x="425" y="291" type="curve"/>
      <point x="425" y="219"/>
      <point x="444" y="163"/>
      <point x="481" y="124" type="curve"/>
      <point x="518" y="86"/>
      <point x="568" y="68"/>
      <point x="632" y="68" type="curve"/>
      <point x="647" y="68"/>
      <point x="665" y="70"/>
      <point x="685" y="74" type="curve"/>
      <point x="704" y="77"/>
      <point x="718" y="79"/>
      <point x="725" y="79" type="curve"/>
      <point x="753" y="79"/>
      <point x="775" y="70"/>
      <point x="791" y="53" type="curve"/>
      <point x="797" y="45"/>
      <point x="801" y="38"/>
      <point x="801" y="30" type="curve"/>
      <point x="801" y="2"/>
      <point x="761" y="-12"/>
      <point x="682" y="-12" type="curve"/>
      <point x="468" y="-12"/>
      <point x="362" y="85"/>
      <point x="362" y="281" type="curve"/>
      <point x="362" y="444"/>
      <point x="431" y="566"/>
      <point x="568" y="648" type="curve"/>
      <point x="568" y="651" type="line"/>
      <point x="416" y="620"/>
      <point x="297" y="586"/>
      <point x="211" y="550" type="curve"/>
      <point x="188" y="541"/>
      <point x="171" y="536"/>
      <point x="160" y="536" type="curve"/>
      <point x="117" y="536"/>
      <point x="87" y="568"/>
      <point x="70" y="631" type="curve"/>
    </contour>
  </outline>
</glyph>
<glyph name="cid00045" format="1">
  <advance width="1000"/>
  <unicode hex="3068"/>
  <outline>
    <contour>
      <point x="277" y="780" type="line"/>
      <point x="291" y="784"/>
      <point x="304" y="786"/>
      <point x="319" y="786" type="curve"/>
      <point x="351" y="786"/>
      <point x="376" y="779"/>
      <point x="393" y="766" type="curve"/>
      <point x="408" y="753"/>
      <point x="416" y="737"/>
      <point x="416" y="717" type="curve"/>
      <point x="416" y="702"/>
      <point x="415" y="687"/>
      <point x="413" y="671" type="curve"/>
      <point x="411" y="659"/>
      <point x="410" y="642"/>
      <point x="410" y="621" type="curve"/>
      <point x="410" y="554"/>
      <point x="420" y="491"/>
      <point x="441" y="434" type="curve"/>
      <point x="481" y="457"/>
      <point x="540" y="488"/>
      <point x="616" y="528" type="curve"/>
      <point x="640" y="541"/>
      <point x="653" y="548"/>
      <point x="654" y="548" type="curve"/>
      <point x="671" y="558"/>
      <point x="679" y="569"/>
      <point x="679" y="581" type="curve"/>
      <point x="679" y="591"/>
      <point x="672" y="601"/>
      <point x="658" y="611" type="curve"/>
      <point x="692" y="630" type="line"/>
      <point x="718" y="619"/>
      <point x="738" y="605"/>
      <point x="752" y="587" type="curve"/>
      <point x="766" y="572"/>
      <point x="772" y="556"/>
      <point x="772" y="539" type="curve"/>
      <point x="772" y="516"/>
      <point x="759" y="501"/>
      <point x="734" y="494" type="curve"/>
      <point x="709" y="488"/>
      <point x="678" y="476"/>
      <point x="640" y="459" type="curve"/>
      <point x="500" y="396"/>
      <point x="403" y="346"/>
      <point x="351" y="307" type="curve"/>
      <point x="286" y="260"/>
      <point x="254" y="213"/>
      <point x="254" y="169" type="curve"/>
      <point x="254" y="130"/>
      <point x="279" y="102"/>
      <point x="328" y="83" type="curve"/>
      <point x="369" y="68"/>
      <point x="426" y="60"/>
      <point x="499" y="60" type="curve"/>
      <point x="594" y="60"/>
      <point x="661" y="68"/>
      <point x="699" y="85" type="curve"/>
      <point x="721" y="95"/>
      <point x="739" y="100"/>
      <point x="753" y="100" type="curve"/>
      <point x="771" y="100"/>
      <point x="788" y="95"/>
      <point x="801" y="86" type="curve"/>
      <point x="816" y="76"/>
      <point x="824" y="63"/>
      <point x="824" y="49" type="curve"/>
      <point x="824" y="30"/>
      <point x="805" y="16"/>
      <point x="765" y="9" type="curve"/>
      <point x="741" y="4"/>
      <point x="705" y="0"/>
      <point x="657" y="-4" type="curve"/>
      <point x="608" y="-8"/>
      <point x="568" y="-10"/>
      <point x="537" y="-10" type="curve"/>
      <point x="314" y="-10"/>
      <point x="203" y="49"/>
      <point x="203" y="167" type="curve"/>
      <point x="203" y="242"/>
      <point x="266" y="321"/>
      <point x="390" y="402" type="curve"/>
      <point x="360" y="471"/>
      <point x="341" y="560"/>
      <point x="332" y="671" type="curve"/>
      <point x="330" y="704"/>
      <point x="323" y="725"/>
      <point x="314" y="733" type="curve"/>
      <point x="305" y="741"/>
      <point x="289" y="745"/>
      <point x="264" y="745" type="curve"/>
    </contour>
  </outline>
</glyph>
<glyph name="cid00047" format="1">
  <advance width="1000"/>
  <unicode hex="306A"/>
  <outline>
    <contour>
      <point x="644" y="454" type="curve"/>
      <point x="681" y="431" type="line"/>
      <point x="667" y="405"/>
      <point x="660" y="375"/>
      <point x="660" y="340" type="curve"/>
      <point x="660" y="329"/>
      <point x="661" y="313"/>
      <point x="664" y="291" type="curve"/>
      <point x="669" y="250"/>
      <point x="674" y="213"/>
      <point x="677" y="178" type="curve"/>
      <point x="734" y="160"/>
      <point x="784" y="137"/>
      <point x="826" y="109" type="curve"/>
      <point x="867" y="82"/>
      <point x="887" y="55"/>
      <point x="887" y="30" type="curve"/>
      <point x="887" y="5"/>
      <point x="876" y="-7"/>
      <point x="854" y="-7" type="curve"/>
      <point x="841" y="-7"/>
      <point x="826" y="1"/>
      <point x="806" y="19" type="curve"/>
      <point x="761" y="58"/>
      <point x="719" y="89"/>
      <point x="681" y="110" type="curve"/>
      <point x="682" y="104"/>
      <point x="682" y="96"/>
      <point x="682" y="87" type="curve"/>
      <point x="682" y="41"/>
      <point x="667" y="6"/>
      <point x="638" y="-17" type="curve"/>
      <point x="609" y="-40"/>
      <point x="570" y="-51"/>
      <point x="519" y="-51" type="curve"/>
      <point x="469" y="-51"/>
      <point x="425" y="-40"/>
      <point x="386" y="-19" type="curve"/>
      <point x="345" y="4"/>
      <point x="324" y="36"/>
      <point x="324" y="77" type="curve"/>
      <point x="324" y="116"/>
      <point x="342" y="146"/>
      <point x="379" y="168" type="curve"/>
      <point x="414" y="189"/>
      <point x="462" y="200"/>
      <point x="522" y="200" type="curve"/>
      <point x="551" y="200"/>
      <point x="580" y="198"/>
      <point x="609" y="193" type="curve"/>
      <point x="607" y="217"/>
      <point x="606" y="240"/>
      <point x="604" y="263" type="curve"/>
      <point x="602" y="294"/>
      <point x="601" y="315"/>
      <point x="601" y="326" type="curve"/>
      <point x="601" y="381"/>
      <point x="615" y="423"/>
    </contour>
    <contour>
      <point x="612" y="138" type="line"/>
      <point x="578" y="147"/>
      <point x="544" y="152"/>
      <point x="511" y="152" type="curve"/>
      <point x="474" y="152"/>
      <point x="441" y="146"/>
      <point x="416" y="133" type="curve"/>
      <point x="390" y="121"/>
      <point x="377" y="104"/>
      <point x="377" y="82" type="curve"/>
      <point x="377" y="63"/>
      <point x="387" y="47"/>
      <point x="407" y="34" type="curve"/>
      <point x="432" y="18"/>
      <point x="465" y="10"/>
      <point x="507" y="10" type="curve"/>
      <point x="543" y="10"/>
      <point x="570" y="17"/>
      <point x="587" y="30" type="curve"/>
      <point x="604" y="43"/>
      <point x="613" y="68"/>
      <point x="613" y="105" type="curve"/>
      <point x="613" y="111"/>
      <point x="613" y="121"/>
      <point x="612" y="134" type="curve"/>
    </contour>
    <contour>
      <point x="329" y="804" type="line"/>
      <point x="338" y="806"/>
      <point x="347" y="806"/>
      <point x="356" y="806" type="curve"/>
      <point x="381" y="806"/>
      <point x="402" y="801"/>
      <point x="421" y="790" type="curve"/>
      <point x="441" y="779"/>
      <point x="451" y="763"/>
      <point x="451" y="744" type="curve"/>
      <point x="451" y="736"/>
      <point x="448" y="725"/>
      <point x="441" y="713" type="curve"/>
      <point x="431" y="695"/>
      <point x="422" y="674"/>
      <point x="413" y="650" type="curve"/>
      <point x="408" y="638" type="line"/>
      <point x="407" y="635" type="line"/>
      <point x="438" y="643"/>
      <point x="460" y="653"/>
      <point x="475" y="667" type="curve"/>
      <point x="482" y="675"/>
      <point x="493" y="678"/>
      <point x="508" y="678" type="curve"/>
      <point x="533" y="678"/>
      <point x="550" y="672"/>
      <point x="560" y="659" type="curve"/>
      <point x="563" y="654"/>
      <point x="565" y="649"/>
      <point x="565" y="644" type="curve"/>
      <point x="565" y="619"/>
      <point x="503" y="595"/>
      <point x="381" y="572" type="curve"/>
      <point x="378" y="565" type="line"/>
      <point x="319" y="431"/>
      <point x="257" y="315"/>
      <point x="194" y="219" type="curve"/>
      <point x="170" y="182"/>
      <point x="150" y="163"/>
      <point x="136" y="163" type="curve"/>
      <point x="112" y="163"/>
      <point x="100" y="180"/>
      <point x="100" y="212" type="curve"/>
      <point x="100" y="229"/>
      <point x="107" y="246"/>
      <point x="121" y="261" type="curve"/>
      <point x="191" y="337"/>
      <point x="256" y="438"/>
      <point x="315" y="563" type="curve"/>
      <point x="300" y="561"/>
      <point x="283" y="559"/>
      <point x="266" y="559" type="curve"/>
      <point x="228" y="559"/>
      <point x="199" y="566"/>
      <point x="177" y="580" type="curve"/>
      <point x="161" y="590"/>
      <point x="147" y="606"/>
      <point x="134" y="627" type="curve"/>
      <point x="160" y="656" type="line"/>
      <point x="183" y="627"/>
      <point x="214" y="612"/>
      <point x="254" y="612" type="curve"/>
      <point x="286" y="612"/>
      <point x="314" y="615"/>
      <point x="339" y="620" type="curve"/>
      <point x="357" y="671"/>
      <point x="366" y="707"/>
      <point x="366" y="728" type="curve"/>
      <point x="366" y="754"/>
      <point x="349" y="768"/>
      <point x="314" y="770" type="curve"/>
    </contour>
    <contour>
      <point x="727" y="493" type="line"/>
      <point x="751" y="504"/>
      <point x="778" y="511"/>
      <point x="808" y="511" type="curve"/>
      <point x="816" y="511"/>
      <point x="821" y="514"/>
      <point x="821" y="518" type="curve"/>
      <point x="821" y="526"/>
      <point x="815" y="537"/>
      <point x="805" y="549" type="curve"/>
      <point x="778" y="579"/>
      <point x="739" y="604"/>
      <point x="689" y="625" type="curve"/>
      <point x="710" y="658" type="line"/>
      <point x="842" y="616"/>
      <point x="908" y="561"/>
      <point x="908" y="494" type="curve"/>
      <point x="908" y="476"/>
      <point x="902" y="461"/>
      <point x="891" y="449" type="curve"/>
      <point x="884" y="442"/>
      <point x="876" y="439"/>
      <point x="867" y="439" type="curve"/>
      <point x="859" y="439"/>
      <point x="849" y="443"/>
      <point x="837" y="450" type="curve"/>
      <point x="818" y="462"/>
      <point x="800" y="468"/>
      <point x="782" y="468" type="curve"/>
      <point x="771" y="468"/>
      <point x="758" y="466"/>
      <point x="745" y="462" type="curve"/>
    </contour>
  </outline>
</glyph>
<glyph name="cid00048" format="1">
  <advance width="1000"/>
  <unicode hex="306B"/>
  <outline>
    <contour>
      <point x="253" y="262" type="line"/>
      <point x="288" y="235" type="line"/>
      <point x="260" y="174"/>
      <point x="247" y="123"/>
      <point x="247" y="83" type="curve"/>
      <point x="247" y="73"/>
      <point x="247" y="63"/>
      <point x="249" y="52" type="curve"/>
      <point x="251" y="37"/>
      <point x="252" y="23"/>
      <point x="252" y="11" type="curve"/>
      <point x="252" y="-14"/>
      <point x="244" y="-27"/>
      <point x="228" y="-27" type="curve"/>
      <point x="210" y="-27"/>
      <point x="191" y="-7"/>
      <point x="172" y="33" type="curve"/>
      <point x="144" y="91"/>
      <point x="130" y="165"/>
      <point x="130" y="255" type="curve"/>
      <point x="130" y="339"/>
      <point x="145" y="438"/>
      <point x="174" y="553" type="curve"/>
      <point x="176" y="561"/>
      <point x="179" y="571"/>
      <point x="183" y="585" type="curve"/>
      <point x="192" y="617"/>
      <point x="197" y="642"/>
      <point x="197" y="660" type="curve"/>
      <point x="197" y="693"/>
      <point x="186" y="719"/>
      <point x="164" y="738" type="curve"/>
      <point x="194" y="760" type="line"/>
      <point x="220" y="748"/>
      <point x="242" y="731"/>
      <point x="258" y="710" type="curve"/>
      <point x="274" y="689"/>
      <point x="283" y="668"/>
      <point x="283" y="647" type="curve"/>
      <point x="283" y="627"/>
      <point x="276" y="608"/>
      <point x="262" y="588" type="curve"/>
      <point x="253" y="576"/>
      <point x="243" y="551"/>
      <point x="231" y="515" type="curve"/>
      <point x="200" y="418"/>
      <point x="185" y="328"/>
      <point x="185" y="243" type="curve"/>
      <point x="185" y="209"/>
      <point x="189" y="175"/>
      <point x="198" y="142" type="curve"/>
    </contour>
    <contour>
      <point x="570" y="535" type="line"/>
      <point x="643" y="596" type="line"/>
      <point x="631" y="596"/>
      <point x="622" y="596"/>
      <point x="616" y="596" type="curve"/>
      <point x="530" y="596"/>
      <point x="471" y="611"/>
      <point x="436" y="641" type="curve"/>
      <point x="450" y="678" type="line"/>
      <point x="482" y="659"/>
      <point x="522" y="649"/>
      <point x="569" y="649" type="curve"/>
      <point x="614" y="649"/>
      <point x="658" y="655"/>
      <point x="700" y="668" type="curve"/>
      <point x="728" y="677"/>
      <point x="748" y="681"/>
      <point x="760" y="681" type="curve"/>
      <point x="778" y="681"/>
      <point x="795" y="677"/>
      <point x="810" y="667" type="curve"/>
      <point x="825" y="658"/>
      <point x="833" y="646"/>
      <point x="833" y="633" type="curve"/>
      <point x="833" y="620"/>
      <point x="827" y="611"/>
      <point x="814" y="606" type="curve"/>
      <point x="805" y="603"/>
      <point x="791" y="602"/>
      <point x="773" y="601" type="curve"/>
      <point x="731" y="601"/>
      <point x="674" y="570"/>
      <point x="601" y="510" type="curve"/>
    </contour>
    <contour>
      <point x="439" y="236" type="line"/>
      <point x="461" y="187"/>
      <point x="491" y="152"/>
      <point x="531" y="132" type="curve"/>
      <point x="565" y="115"/>
      <point x="609" y="106"/>
      <point x="662" y="106" type="curve"/>
      <point x="686" y="106"/>
      <point x="713" y="108"/>
      <point x="742" y="112" type="curve"/>
      <point x="771" y="115"/>
      <point x="790" y="120"/>
      <point x="799" y="124" type="curve"/>
      <point x="808" y="128"/>
      <point x="817" y="130"/>
      <point x="827" y="130" type="curve"/>
      <point x="844" y="130"/>
      <point x="861" y="125"/>
      <point x="876" y="114" type="curve"/>
      <point x="890" y="104"/>
      <point x="897" y="94"/>
      <point x="897" y="83" type="curve"/>
      <point x="897" y="66"/>
      <point x="884" y="55"/>
      <point x="858" y="48" type="curve"/>
      <point x="828" y="41"/>
      <point x="777" y="37"/>
      <point x="706" y="37" type="curve"/>
      <point x="624" y="37"/>
      <point x="560" y="49"/>
      <point x="514" y="73" type="curve"/>
      <point x="461" y="101"/>
      <point x="424" y="148"/>
      <point x="403" y="215" type="curve"/>
    </contour>
  </outline>
</glyph>
<glyph name="cid00050" format="1">
  <advance width="1000"/>
  <unicode hex="306D"/>
  <outline>
    <contour>
      <point x="227" y="131" type="line"/>
      <point x="301" y="78" type="line"/>
      <point x="301" y="165"/>
      <point x="303" y="255"/>
      <point x="306" y="351" type="curve"/>
      <point x="228" y="247"/>
      <point x="164" y="156"/>
      <point x="116" y="80" type="curve"/>
      <point x="106" y="65"/>
      <point x="97" y="57"/>
      <point x="88" y="57" type="curve"/>
      <point x="81" y="57"/>
      <point x="75" y="61"/>
      <point x="70" y="68" type="curve"/>
      <point x="60" y="82"/>
      <point x="55" y="98"/>
      <point x="55" y="118" type="curve"/>
      <point x="55" y="135"/>
      <point x="60" y="147"/>
      <point x="69" y="155" type="curve"/>
      <point x="91" y="173"/>
      <point x="130" y="218"/>
      <point x="188" y="290" type="curve"/>
      <point x="248" y="365"/>
      <point x="288" y="414"/>
      <point x="308" y="439" type="curve"/>
      <point x="308" y="442" type="line"/>
      <point x="309" y="467" type="line"/>
      <point x="310" y="496"/>
      <point x="310" y="516"/>
      <point x="310" y="528" type="curve"/>
      <point x="255" y="502"/>
      <point x="217" y="483"/>
      <point x="196" y="471" type="curve"/>
      <point x="183" y="464"/>
      <point x="171" y="460"/>
      <point x="161" y="460" type="curve"/>
      <point x="141" y="460"/>
      <point x="125" y="470"/>
      <point x="115" y="491" type="curve"/>
      <point x="109" y="503"/>
      <point x="103" y="523"/>
      <point x="97" y="550" type="curve"/>
      <point x="126" y="575" type="line"/>
      <point x="136" y="548"/>
      <point x="151" y="535"/>
      <point x="169" y="535" type="curve"/>
      <point x="190" y="535"/>
      <point x="216" y="542"/>
      <point x="247" y="555" type="curve"/>
      <point x="305" y="579" type="line"/>
      <point x="310" y="581" type="line"/>
      <point x="310" y="649"/>
      <point x="309" y="689"/>
      <point x="307" y="703" type="curve"/>
      <point x="303" y="739"/>
      <point x="282" y="759"/>
      <point x="246" y="763" type="curve"/>
      <point x="263" y="797" type="line"/>
      <point x="294" y="796"/>
      <point x="324" y="791"/>
      <point x="353" y="780" type="curve"/>
      <point x="377" y="771"/>
      <point x="389" y="754"/>
      <point x="389" y="731" type="curve"/>
      <point x="389" y="725"/>
      <point x="387" y="713"/>
      <point x="381" y="696" type="curve"/>
      <point x="374" y="673"/>
      <point x="368" y="639"/>
      <point x="362" y="593" type="curve"/>
      <point x="374" y="591"/>
      <point x="385" y="583"/>
      <point x="396" y="570" type="curve"/>
      <point x="409" y="555"/>
      <point x="415" y="541"/>
      <point x="415" y="529" type="curve"/>
      <point x="415" y="522"/>
      <point x="411" y="514"/>
      <point x="402" y="503" type="curve"/>
      <point x="382" y="479"/>
      <point x="366" y="457"/>
      <point x="353" y="435" type="curve"/>
      <point x="350" y="408" type="line"/>
      <point x="408" y="467"/>
      <point x="456" y="511"/>
      <point x="495" y="540" type="curve"/>
      <point x="558" y="587"/>
      <point x="613" y="611"/>
      <point x="661" y="611" type="curve"/>
      <point x="726" y="611"/>
      <point x="775" y="581"/>
      <point x="810" y="520" type="curve"/>
      <point x="844" y="460"/>
      <point x="860" y="387"/>
      <point x="860" y="298" type="curve"/>
      <point x="860" y="248"/>
      <point x="853" y="198"/>
      <point x="837" y="151" type="curve"/>
      <point x="872" y="129"/>
      <point x="901" y="105"/>
      <point x="924" y="80" type="curve"/>
      <point x="943" y="59"/>
      <point x="952" y="40"/>
      <point x="952" y="23" type="curve"/>
      <point x="952" y="10"/>
      <point x="949" y="-1"/>
      <point x="943" y="-10" type="curve"/>
      <point x="935" y="-21"/>
      <point x="926" y="-26"/>
      <point x="916" y="-26" type="curve"/>
      <point x="907" y="-26"/>
      <point x="896" y="-18"/>
      <point x="882" y="-1" type="curve"/>
      <point x="855" y="33"/>
      <point x="829" y="61"/>
      <point x="804" y="83" type="curve"/>
      <point x="762" y="16"/>
      <point x="704" y="-18"/>
      <point x="629" y="-18" type="curve"/>
      <point x="593" y="-18"/>
      <point x="562" y="-10"/>
      <point x="535" y="6" type="curve"/>
      <point x="501" y="26"/>
      <point x="484" y="56"/>
      <point x="484" y="94" type="curve"/>
      <point x="484" y="125"/>
      <point x="498" y="151"/>
      <point x="524" y="171" type="curve"/>
      <point x="557" y="196"/>
      <point x="599" y="208"/>
      <point x="650" y="208" type="curve"/>
      <point x="688" y="208"/>
      <point x="729" y="200"/>
      <point x="773" y="184" type="curve"/>
      <point x="782" y="223"/>
      <point x="787" y="264"/>
      <point x="787" y="308" type="curve"/>
      <point x="787" y="382"/>
      <point x="773" y="443"/>
      <point x="747" y="491" type="curve"/>
      <point x="724" y="531"/>
      <point x="694" y="551"/>
      <point x="657" y="551" type="curve"/>
      <point x="612" y="551"/>
      <point x="561" y="530"/>
      <point x="503" y="488" type="curve"/>
      <point x="465" y="460"/>
      <point x="415" y="414"/>
      <point x="352" y="349" type="curve"/>
      <point x="353" y="268"/>
      <point x="356" y="178"/>
      <point x="362" y="80" type="curve"/>
      <point x="362" y="77" type="line"/>
      <point x="364" y="53"/>
      <point x="365" y="39"/>
      <point x="365" y="35" type="curve"/>
      <point x="365" y="15"/>
      <point x="359" y="-6"/>
      <point x="346" y="-27" type="curve"/>
      <point x="336" y="-44"/>
      <point x="324" y="-53"/>
      <point x="311" y="-53" type="curve"/>
      <point x="296" y="-53"/>
      <point x="286" y="-40"/>
      <point x="282" y="-14" type="curve"/>
      <point x="277" y="21"/>
      <point x="251" y="60"/>
      <point x="205" y="101" type="curve"/>
    </contour>
    <contour>
      <point x="749" y="122" type="curve"/>
      <point x="709" y="144"/>
      <point x="672" y="155"/>
      <point x="636" y="155" type="curve"/>
      <point x="610" y="155"/>
      <point x="587" y="149"/>
      <point x="569" y="138" type="curve"/>
      <point x="549" y="127"/>
      <point x="540" y="112"/>
      <point x="540" y="93" type="curve"/>
      <point x="540" y="78"/>
      <point x="545" y="65"/>
      <point x="557" y="55" type="curve"/>
      <point x="572" y="42"/>
      <point x="591" y="35"/>
      <point x="614" y="35" type="curve"/>
      <point x="671" y="35"/>
      <point x="716" y="64"/>
    </contour>
  </outline>
</glyph>
<glyph name="cid00051" format="1">
  <advance width="1000"/>
  <unicode hex="306E"/>
  <outline>
    <contour>
      <point x="521" y="41" type="line"/>
      <point x="614" y="59"/>
      <point x="688" y="91"/>
      <point x="742" y="137" type="curve"/>
      <point x="786" y="175"/>
      <point x="814" y="221"/>
      <point x="827" y="274" type="curve"/>
      <point x="833" y="303"/>
      <point x="837" y="336"/>
      <point x="837" y="374" type="curve"/>
      <point x="837" y="444"/>
      <point x="818" y="506"/>
      <point x="782" y="561" type="curve"/>
      <point x="757" y="597"/>
      <point x="726" y="626"/>
      <point x="686" y="647" type="curve"/>
      <point x="642" y="672"/>
      <point x="592" y="684"/>
      <point x="537" y="684" type="curve"/>
      <point x="523" y="684"/>
      <point x="510" y="683"/>
      <point x="498" y="681" type="curve"/>
      <point x="511" y="650"/>
      <point x="517" y="618"/>
      <point x="517" y="583" type="curve"/>
      <point x="517" y="492"/>
      <point x="492" y="395"/>
      <point x="442" y="292" type="curve"/>
      <point x="398" y="200"/>
      <point x="347" y="133"/>
      <point x="290" y="90" type="curve"/>
      <point x="263" y="70"/>
      <point x="235" y="60"/>
      <point x="207" y="60" type="curve"/>
      <point x="166" y="60"/>
      <point x="135" y="83"/>
      <point x="112" y="128" type="curve"/>
      <point x="92" y="168"/>
      <point x="82" y="218"/>
      <point x="82" y="276" type="curve"/>
      <point x="82" y="346"/>
      <point x="101" y="416"/>
      <point x="138" y="486" type="curve"/>
      <point x="169" y="545"/>
      <point x="211" y="594"/>
      <point x="263" y="632" type="curve"/>
      <point x="349" y="697"/>
      <point x="442" y="729"/>
      <point x="543" y="729" type="curve"/>
      <point x="641" y="729"/>
      <point x="725" y="702"/>
      <point x="792" y="647" type="curve"/>
      <point x="822" y="623"/>
      <point x="848" y="594"/>
      <point x="868" y="560" type="curve"/>
      <point x="903" y="503"/>
      <point x="920" y="442"/>
      <point x="920" y="376" type="curve"/>
      <point x="920" y="248"/>
      <point x="874" y="151"/>
      <point x="781" y="88" type="curve"/>
      <point x="723" y="48"/>
      <point x="642" y="20"/>
      <point x="539" y="3" type="curve"/>
    </contour>
    <contour>
      <point x="453" y="674" type="curve"/>
      <point x="376" y="655"/>
      <point x="313" y="616"/>
      <point x="261" y="558" type="curve"/>
      <point x="190" y="479"/>
      <point x="155" y="383"/>
      <point x="155" y="272" type="curve"/>
      <point x="155" y="227"/>
      <point x="161" y="192"/>
      <point x="172" y="168" type="curve"/>
      <point x="184" y="145"/>
      <point x="198" y="133"/>
      <point x="216" y="133" type="curve"/>
      <point x="237" y="133"/>
      <point x="264" y="152"/>
      <point x="297" y="190" type="curve"/>
      <point x="332" y="230"/>
      <point x="365" y="285"/>
      <point x="397" y="354" type="curve"/>
      <point x="442" y="451"/>
      <point x="464" y="534"/>
      <point x="464" y="603" type="curve"/>
      <point x="464" y="626"/>
      <point x="460" y="650"/>
    </contour>
  </outline>
</glyph>
<glyph name="cid00059" format="1">
  <advance width="1000"/>
  <unicode hex="3076"/>
  <outline>
    <contour>
      <point x="432" y="631" type="line"/>
      <point x="455" y="648"/>
      <point x="486" y="667"/>
      <point x="525" y="686" type="curve"/>
      <point x="494" y="694"/>
      <point x="468" y="705"/>
      <point x="448" y="717" type="curve"/>
      <point x="420" y="734"/>
      <point x="398" y="758"/>
      <point x="381" y="791" type="curve"/>
      <point x="409" y="817" type="line"/>
      <point x="433" y="779"/>
      <point x="471" y="758"/>
      <point x="523" y="751" type="curve"/>
      <point x="530" y="750"/>
      <point x="535" y="750"/>
      <point x="540" y="749" type="curve"/>
      <point x="577" y="744"/>
      <point x="602" y="736"/>
      <point x="614" y="727" type="curve"/>
      <point x="635" y="709"/>
      <point x="646" y="692"/>
      <point x="646" y="674" type="curve"/>
      <point x="646" y="658"/>
      <point x="635" y="649"/>
      <point x="614" y="649" type="curve"/>
      <point x="592" y="650" type="line"/>
      <point x="563" y="650"/>
      <point x="520" y="636"/>
      <point x="462" y="608" type="curve"/>
    </contour>
    <contour>
      <point x="292" y="88" type="line"/>
      <point x="357" y="50"/>
      <point x="415" y="31"/>
      <point x="465" y="31" type="curve"/>
      <point x="532" y="31"/>
      <point x="565" y="64"/>
      <point x="565" y="130" type="curve"/>
      <point x="565" y="181"/>
      <point x="545" y="236"/>
      <point x="505" y="295" type="curve"/>
      <point x="470" y="348"/>
      <point x="447" y="383"/>
      <point x="436" y="401" type="curve"/>
      <point x="414" y="437"/>
      <point x="395" y="473"/>
      <point x="380" y="509" type="curve"/>
      <point x="419" y="534" type="line"/>
      <point x="434" y="497"/>
      <point x="458" y="455"/>
      <point x="494" y="410" type="curve"/>
      <point x="549" y="339"/>
      <point x="585" y="289"/>
      <point x="603" y="258" type="curve"/>
      <point x="630" y="208"/>
      <point x="644" y="162"/>
      <point x="644" y="120" type="curve"/>
      <point x="644" y="72"/>
      <point x="628" y="35"/>
      <point x="596" y="6" type="curve"/>
      <point x="566" y="-20"/>
      <point x="528" y="-33"/>
      <point x="481" y="-33" type="curve"/>
      <point x="407" y="-33"/>
      <point x="339" y="-5"/>
      <point x="277" y="52" type="curve"/>
    </contour>
    <contour>
      <point x="307" y="227" type="line"/>
      <point x="261" y="194"/>
      <point x="226" y="161"/>
      <point x="201" y="127" type="curve"/>
      <point x="191" y="113"/>
      <point x="185" y="101"/>
      <point x="181" y="89" type="curve"/>
      <point x="172" y="56"/>
      <point x="158" y="39"/>
      <point x="139" y="39" type="curve"/>
      <point x="113" y="39"/>
      <point x="92" y="58"/>
      <point x="75" y="95" type="curve"/>
      <point x="63" y="122"/>
      <point x="58" y="154"/>
      <point x="58" y="191" type="curve"/>
      <point x="58" y="219"/>
      <point x="61" y="251"/>
      <point x="68" y="289" type="curve"/>
      <point x="107" y="297" type="line"/>
      <point x="106" y="287"/>
      <point x="106" y="278"/>
      <point x="106" y="271" type="curve"/>
      <point x="106" y="222"/>
      <point x="111" y="186"/>
      <point x="123" y="164" type="curve"/>
      <point x="128" y="153"/>
      <point x="134" y="147"/>
      <point x="140" y="147" type="curve"/>
      <point x="144" y="147"/>
      <point x="150" y="152"/>
      <point x="160" y="160" type="curve"/>
      <point x="195" y="191"/>
      <point x="239" y="224"/>
      <point x="290" y="260" type="curve"/>
    </contour>
    <contour>
      <point x="676" y="387" type="line"/>
      <point x="745" y="369"/>
      <point x="807" y="338"/>
      <point x="861" y="295" type="curve"/>
      <point x="877" y="282"/>
      <point x="894" y="265"/>
      <point x="910" y="246" type="curve"/>
      <point x="933" y="216"/>
      <point x="945" y="188"/>
      <point x="945" y="161" type="curve"/>
      <point x="945" y="149"/>
      <point x="942" y="139"/>
      <point x="938" y="130" type="curve"/>
      <point x="930" y="114"/>
      <point x="918" y="105"/>
      <point x="901" y="105" type="curve"/>
      <point x="888" y="105"/>
      <point x="876" y="117"/>
      <point x="866" y="139" type="curve"/>
      <point x="836" y="203"/>
      <point x="805" y="251"/>
      <point x="772" y="285" type="curve"/>
      <point x="743" y="313"/>
      <point x="705" y="336"/>
      <point x="658" y="353" type="curve"/>
    </contour>
    <contour>
      <point x="734" y="728" type="line"/>
      <point x="771" y="715"/>
      <point x="801" y="699"/>
      <point x="824" y="679" type="curve"/>
      <point x="852" y="656"/>
      <point x="865" y="631"/>
      <point x="865" y="606" type="curve"/>
      <point x="865" y="592"/>
      <point x="861" y="582"/>
      <point x="852" y="575" type="curve"/>
      <point x="846" y="570"/>
      <point x="839" y="568"/>
      <point x="832" y="568" type="curve"/>
      <point x="818" y="568"/>
      <point x="809" y="574"/>
      <point x="803" y="585" type="curve"/>
      <point x="802" y="587"/>
      <point x="800" y="593"/>
      <point x="797" y="602" type="curve"/>
      <point x="784" y="645"/>
      <point x="756" y="678"/>
      <point x="713" y="703" type="curve"/>
    </contour>
    <contour>
      <point x="828" y="801" type="line"/>
      <point x="864" y="789"/>
      <point x="894" y="772"/>
      <point x="917" y="752" type="curve"/>
      <point x="945" y="729"/>
      <point x="959" y="705"/>
      <point x="959" y="680" type="curve"/>
      <point x="959" y="666"/>
      <point x="955" y="655"/>
      <point x="946" y="648" type="curve"/>
      <point x="939" y="644"/>
      <point x="933" y="641"/>
      <point x="926" y="641" type="curve"/>
      <point x="912" y="641"/>
      <point x="902" y="647"/>
      <point x="897" y="658" type="curve"/>
      <point x="896" y="660"/>
      <point x="894" y="666"/>
      <point x="891" y="675" type="curve"/>
      <point x="878" y="718"/>
      <point x="850" y="751"/>
      <point x="807" y="776" type="curve"/>
    </contour>
  </outline>
</glyph>
<glyph name="cid00062" format="1">
  <advance width="1000"/>
  <unicode hex="3079"/>
  <outline>
    <contour>
      <point x="79" y="353" type="line"/>
      <point x="90" y="336"/>
      <point x="103" y="328"/>
      <point x="115" y="328" type="curve"/>
      <point x="127" y="328"/>
      <point x="144" y="343"/>
      <point x="165" y="373" type="curve"/>
      <point x="235" y="470"/>
      <point x="291" y="543"/>
      <point x="332" y="591" type="curve"/>
      <point x="352" y="615"/>
      <point x="374" y="627"/>
      <point x="397" y="627" type="curve"/>
      <point x="417" y="627"/>
      <point x="435" y="619"/>
      <point x="453" y="603" type="curve"/>
      <point x="460" y="596"/>
      <point x="474" y="582"/>
      <point x="493" y="561" type="curve"/>
      <point x="609" y="435"/>
      <point x="737" y="328"/>
      <point x="878" y="239" type="curve"/>
      <point x="901" y="225"/>
      <point x="917" y="212"/>
      <point x="923" y="202" type="curve"/>
      <point x="930" y="190"/>
      <point x="934" y="176"/>
      <point x="934" y="160" type="curve"/>
      <point x="934" y="146"/>
      <point x="930" y="137"/>
      <point x="923" y="130" type="curve"/>
      <point x="918" y="126"/>
      <point x="913" y="124"/>
      <point x="908" y="124" type="curve"/>
      <point x="886" y="124"/>
      <point x="849" y="144"/>
      <point x="798" y="185" type="curve"/>
      <point x="684" y="276"/>
      <point x="568" y="387"/>
      <point x="452" y="519" type="curve"/>
      <point x="420" y="555"/>
      <point x="401" y="574"/>
      <point x="396" y="574" type="curve"/>
      <point x="390" y="574"/>
      <point x="380" y="565"/>
      <point x="368" y="547" type="curve"/>
      <point x="309" y="463"/>
      <point x="249" y="366"/>
      <point x="188" y="256" type="curve"/>
      <point x="177" y="236"/>
      <point x="165" y="226"/>
      <point x="152" y="226" type="curve"/>
      <point x="113" y="226"/>
      <point x="81" y="259"/>
      <point x="53" y="324" type="curve"/>
    </contour>
    <contour>
      <point x="701" y="684" type="line"/>
      <point x="738" y="671"/>
      <point x="768" y="655"/>
      <point x="791" y="635" type="curve"/>
      <point x="818" y="612"/>
      <point x="832" y="587"/>
      <point x="832" y="563" type="curve"/>
      <point x="832" y="548"/>
      <point x="828" y="538"/>
      <point x="819" y="531" type="curve"/>
      <point x="813" y="526"/>
      <point x="806" y="524"/>
      <point x="799" y="524" type="curve"/>
      <point x="785" y="524"/>
      <point x="775" y="530"/>
      <point x="770" y="541" type="curve"/>
      <point x="769" y="543"/>
      <point x="767" y="549"/>
      <point x="764" y="558" type="curve"/>
      <point x="751" y="601"/>
      <point x="723" y="634"/>
      <point x="680" y="659" type="curve"/>
    </contour>
    <contour>
      <point x="795" y="757" type="line"/>
      <point x="832" y="744"/>
      <point x="862" y="728"/>
      <point x="885" y="708" type="curve"/>
      <point x="913" y="685"/>
      <point x="926" y="661"/>
      <point x="926" y="636" type="curve"/>
      <point x="926" y="622"/>
      <point x="922" y="611"/>
      <point x="913" y="604" type="curve"/>
      <point x="907" y="600"/>
      <point x="900" y="597"/>
      <point x="893" y="597" type="curve"/>
      <point x="879" y="597"/>
      <point x="870" y="603"/>
      <point x="864" y="614" type="curve"/>
      <point x="863" y="616"/>
      <point x="861" y="622"/>
      <point x="858" y="631" type="curve"/>
      <point x="845" y="674"/>
      <point x="817" y="707"/>
      <point x="774" y="732" type="curve"/>
    </contour>
  </outline>
</glyph>
<glyph name="cid00063" format="1">
  <advance width="1000"/>
  <unicode hex="307A"/>
  <outline>
    <contour>
      <point x="79" y="353" type="line"/>
      <point x="90" y="336"/>
      <point x="103" y="328"/>
      <point x="115" y="328" type="curve"/>
      <point x="127" y="328"/>
      <point x="144" y="343"/>
      <point x="165" y="373" type="curve"/>
      <point x="235" y="470"/>
      <point x="291" y="543"/>
      <point x="332" y="591" type="curve"/>
      <point x="352" y="615"/>
      <point x="374" y="627"/>
      <point x="397" y="627" type="curve"/>
      <point x="417" y="627"/>
      <point x="435" y="619"/>
      <point x="453" y="603" type="curve"/>
      <point x="460" y="596"/>
      <point x="474" y="582"/>
      <point x="493" y="561" type="curve"/>
      <point x="609" y="435"/>
      <point x="737" y="328"/>
      <point x="878" y="239" type="curve"/>
      <point x="901" y="225"/>
      <point x="917" y="212"/>
      <point x="923" y="202" type="curve"/>
      <point x="930" y="190"/>
      <point x="934" y="176"/>
      <point x="934" y="160" type="curve"/>
      <point x="934" y="146"/>
      <point x="930" y="137"/>
      <point x="923" y="130" type="curve"/>
      <point x="918" y="126"/>
      <point x="913" y="124"/>
      <point x="908" y="124" type="curve"/>
      <point x="886" y="124"/>
      <point x="849" y="144"/>
      <point x="798" y="185" type="curve"/>
      <point x="684" y="276"/>
      <point x="568" y="387"/>
      <point x="452" y="519" type="curve"/>
      <point x="420" y="555"/>
      <point x="401" y="574"/>
      <point x="396" y="574" type="curve"/>
      <point x="390" y="574"/>
      <point x="380" y="565"/>
      <point x="368" y="547" type="curve"/>
      <point x="309" y="463"/>
      <point x="249" y="366"/>
      <point x="188" y="256" type="curve"/>
      <point x="177" y="236"/>
      <point x="165" y="226"/>
      <point x="152" y="226" type="curve"/>
      <point x="113" y="226"/>
      <point x="81" y="259"/>
      <point x="53" y="324" type="curve"/>
    </contour>
    <contour>
      <point x="790" y="751" type="curve"/>
      <point x="807" y="751"/>
      <point x="823" y="747"/>
      <point x="838" y="739" type="curve"/>
      <point x="861" y="728"/>
      <point x="877" y="711"/>
      <point x="888" y="688" type="curve"/>
      <point x="895" y="674"/>
      <point x="898" y="658"/>
      <point x="898" y="642" type="curve"/>
      <point x="898" y="624"/>
      <point x="894" y="606"/>
      <point x="885" y="590" type="curve"/>
      <point x="864" y="552"/>
      <point x="832" y="533"/>
      <point x="789" y="533" type="curve"/>
      <point x="765" y="533"/>
      <point x="743" y="541"/>
      <point x="723" y="556" type="curve"/>
      <point x="694" y="578"/>
      <point x="680" y="606"/>
      <point x="680" y="643" type="curve"/>
      <point x="680" y="674"/>
      <point x="691" y="700"/>
      <point x="714" y="722" type="curve"/>
      <point x="735" y="741"/>
      <point x="760" y="751"/>
    </contour>
    <contour>
      <point x="789" y="708" type="curve"/>
      <point x="778" y="708"/>
      <point x="768" y="706"/>
      <point x="758" y="700" type="curve"/>
      <point x="735" y="688"/>
      <point x="723" y="668"/>
      <point x="723" y="642" type="curve"/>
      <point x="723" y="629"/>
      <point x="727" y="618"/>
      <point x="733" y="607" type="curve"/>
      <point x="747" y="586"/>
      <point x="766" y="576"/>
      <point x="790" y="576" type="curve"/>
      <point x="806" y="576"/>
      <point x="821" y="582"/>
      <point x="833" y="593" type="curve"/>
      <point x="848" y="606"/>
      <point x="855" y="623"/>
      <point x="855" y="642" type="curve"/>
      <point x="855" y="662"/>
      <point x="848" y="679"/>
      <point x="833" y="692" type="curve"/>
      <point x="820" y="703"/>
      <point x="805" y="708"/>
    </contour>
  </outline>
</glyph>
<glyph name="cid00064" format="1">
  <advance width="1000"/>
  <unicode hex="307B"/>
  <outline>
    <contour>
      <point x="429" y="729" type="line"/>
      <point x="450" y="705"/>
      <point x="483" y="693"/>
      <point x="527" y="693" type="curve"/>
      <point x="592" y="693"/>
      <point x="653" y="701"/>
      <point x="708" y="718" type="curve"/>
      <point x="729" y="724"/>
      <point x="744" y="730"/>
      <point x="754" y="736" type="curve"/>
      <point x="767" y="743"/>
      <point x="779" y="747"/>
      <point x="792" y="747" type="curve"/>
      <point x="805" y="747"/>
      <point x="817" y="743"/>
      <point x="831" y="735" type="curve"/>
      <point x="844" y="728"/>
      <point x="850" y="719"/>
      <point x="850" y="708" type="curve"/>
      <point x="850" y="696"/>
      <point x="841" y="688"/>
      <point x="824" y="682" type="curve"/>
      <point x="797" y="673"/>
      <point x="756" y="665"/>
      <point x="701" y="656" type="curve"/>
      <point x="702" y="586"/>
      <point x="703" y="525"/>
      <point x="705" y="474" type="curve"/>
      <point x="725" y="478"/>
      <point x="742" y="481"/>
      <point x="754" y="484" type="curve"/>
      <point x="776" y="490"/>
      <point x="794" y="497"/>
      <point x="809" y="506" type="curve"/>
      <point x="822" y="514"/>
      <point x="834" y="518"/>
      <point x="847" y="518" type="curve"/>
      <point x="863" y="518"/>
      <point x="880" y="514"/>
      <point x="896" y="507" type="curve"/>
      <point x="911" y="500"/>
      <point x="919" y="491"/>
      <point x="919" y="480" type="curve"/>
      <point x="919" y="468"/>
      <point x="908" y="458"/>
      <point x="885" y="449" type="curve"/>
      <point x="852" y="438"/>
      <point x="792" y="427"/>
      <point x="707" y="417" type="curve"/>
      <point x="708" y="393" type="line"/>
      <point x="710" y="330" type="line"/>
      <point x="713" y="270"/>
      <point x="714" y="226"/>
      <point x="716" y="198" type="curve"/>
      <point x="762" y="188"/>
      <point x="811" y="173"/>
      <point x="862" y="152" type="curve"/>
      <point x="925" y="126"/>
      <point x="957" y="97"/>
      <point x="957" y="63" type="curve"/>
      <point x="957" y="52"/>
      <point x="954" y="43"/>
      <point x="948" y="37" type="curve"/>
      <point x="941" y="30"/>
      <point x="934" y="26"/>
      <point x="926" y="26" type="curve"/>
      <point x="915" y="26"/>
      <point x="902" y="32"/>
      <point x="889" y="44" type="curve"/>
      <point x="855" y="75"/>
      <point x="798" y="105"/>
      <point x="719" y="135" type="curve"/>
      <point x="719" y="134"/>
      <point x="720" y="128"/>
      <point x="720" y="117" type="curve"/>
      <point x="720" y="115"/>
      <point x="720" y="113"/>
      <point x="720" y="111" type="curve"/>
      <point x="720" y="73"/>
      <point x="712" y="43"/>
      <point x="695" y="20" type="curve"/>
      <point x="688" y="9"/>
      <point x="678" y="0"/>
      <point x="666" y="-6" type="curve"/>
      <point x="635" y="-22"/>
      <point x="597" y="-31"/>
      <point x="552" y="-31" type="curve"/>
      <point x="501" y="-31"/>
      <point x="456" y="-20"/>
      <point x="416" y="2" type="curve"/>
      <point x="374" y="26"/>
      <point x="353" y="59"/>
      <point x="353" y="101" type="curve"/>
      <point x="353" y="133"/>
      <point x="370" y="160"/>
      <point x="402" y="181" type="curve"/>
      <point x="442" y="205"/>
      <point x="494" y="217"/>
      <point x="558" y="217" type="curve"/>
      <point x="582" y="217"/>
      <point x="611" y="215"/>
      <point x="647" y="210" type="curve"/>
      <point x="646" y="227" type="line"/>
      <point x="645" y="281" type="line"/>
      <point x="642" y="343"/>
      <point x="641" y="386"/>
      <point x="640" y="410" type="curve"/>
      <point x="605" y="407"/>
      <point x="577" y="405"/>
      <point x="555" y="405" type="curve"/>
      <point x="457" y="405"/>
      <point x="394" y="428"/>
      <point x="365" y="474" type="curve"/>
      <point x="396" y="498" type="line"/>
      <point x="420" y="471"/>
      <point x="471" y="458"/>
      <point x="549" y="458" type="curve"/>
      <point x="575" y="458"/>
      <point x="604" y="460"/>
      <point x="638" y="464" type="curve"/>
      <point x="635" y="540"/>
      <point x="633" y="601"/>
      <point x="633" y="647" type="curve"/>
      <point x="600" y="645"/>
      <point x="573" y="643"/>
      <point x="553" y="643" type="curve"/>
      <point x="509" y="643"/>
      <point x="476" y="648"/>
      <point x="454" y="658" type="curve"/>
      <point x="434" y="667"/>
      <point x="417" y="683"/>
      <point x="405" y="705" type="curve"/>
    </contour>
    <contour>
      <point x="649" y="156" type="curve"/>
      <point x="606" y="166"/>
      <point x="570" y="170"/>
      <point x="542" y="170" type="curve"/>
      <point x="499" y="170"/>
      <point x="464" y="162"/>
      <point x="436" y="146" type="curve"/>
      <point x="415" y="134"/>
      <point x="404" y="119"/>
      <point x="404" y="101" type="curve"/>
      <point x="404" y="77"/>
      <point x="418" y="58"/>
      <point x="446" y="45" type="curve"/>
      <point x="472" y="33"/>
      <point x="503" y="26"/>
      <point x="541" y="26" type="curve"/>
      <point x="579" y="26"/>
      <point x="606" y="32"/>
      <point x="622" y="43" type="curve"/>
      <point x="641" y="57"/>
      <point x="651" y="82"/>
      <point x="651" y="117" type="curve"/>
      <point x="651" y="125"/>
      <point x="650" y="138"/>
    </contour>
    <contour>
      <point x="234" y="271" type="line"/>
      <point x="261" y="237" type="line"/>
      <point x="224" y="162"/>
      <point x="205" y="105"/>
      <point x="205" y="66" type="curve"/>
      <point x="205" y="61"/>
      <point x="206" y="54"/>
      <point x="207" y="45" type="curve"/>
      <point x="210" y="21"/>
      <point x="212" y="2"/>
      <point x="212" y="-11" type="curve"/>
      <point x="212" y="-33"/>
      <point x="203" y="-44"/>
      <point x="184" y="-44" type="curve"/>
      <point x="167" y="-44"/>
      <point x="152" y="-30"/>
      <point x="139" y="-1" type="curve"/>
      <point x="116" y="48"/>
      <point x="104" y="117"/>
      <point x="104" y="205" type="curve"/>
      <point x="104" y="246"/>
      <point x="108" y="292"/>
      <point x="116" y="344" type="curve"/>
      <point x="122" y="384"/>
      <point x="138" y="461"/>
      <point x="163" y="576" type="curve"/>
      <point x="167" y="593"/>
      <point x="170" y="608"/>
      <point x="173" y="624" type="curve"/>
      <point x="178" y="650"/>
      <point x="181" y="669"/>
      <point x="181" y="681" type="curve"/>
      <point x="181" y="713"/>
      <point x="169" y="739"/>
      <point x="144" y="756" type="curve"/>
      <point x="176" y="779" type="line"/>
      <point x="202" y="768"/>
      <point x="223" y="753"/>
      <point x="239" y="735" type="curve"/>
      <point x="257" y="714"/>
      <point x="266" y="692"/>
      <point x="266" y="667" type="curve"/>
      <point x="266" y="652"/>
      <point x="260" y="632"/>
      <point x="247" y="608" type="curve"/>
      <point x="234" y="583"/>
      <point x="220" y="548"/>
      <point x="207" y="503" type="curve"/>
      <point x="187" y="434"/>
      <point x="172" y="359"/>
      <point x="163" y="279" type="curve"/>
      <point x="160" y="248"/>
      <point x="158" y="222"/>
      <point x="158" y="202" type="curve"/>
      <point x="158" y="181"/>
      <point x="160" y="158"/>
      <point x="164" y="133" type="curve"/>
    </contour>
  </outline>
</glyph>
<glyph name="cid00066" format="1">
  <advance width="1000"/>
  <unicode hex="307D"/>
  <outline>
    <contour>
      <point x="429" y="719" type="line"/>
      <point x="449" y="695"/>
      <point x="479" y="683"/>
      <point x="518" y="683" type="curve"/>
      <point x="554" y="683"/>
      <point x="599" y="690"/>
      <point x="651" y="704" type="curve"/>
      <point x="672" y="710"/>
      <point x="688" y="717"/>
      <point x="699" y="726" type="curve"/>
      <point x="708" y="733"/>
      <point x="721" y="737"/>
      <point x="737" y="737" type="curve"/>
      <point x="749" y="737"/>
      <point x="762" y="733"/>
      <point x="774" y="726" type="curve"/>
      <point x="788" y="718"/>
      <point x="794" y="709"/>
      <point x="794" y="699" type="curve"/>
      <point x="794" y="688"/>
      <point x="785" y="678"/>
      <point x="768" y="670" type="curve"/>
      <point x="755" y="665"/>
      <point x="733" y="658"/>
      <point x="701" y="652" type="curve"/>
      <point x="702" y="578"/>
      <point x="704" y="519"/>
      <point x="705" y="474" type="curve"/>
      <point x="754" y="483"/>
      <point x="789" y="494"/>
      <point x="809" y="506" type="curve"/>
      <point x="822" y="514"/>
      <point x="834" y="518"/>
      <point x="847" y="518" type="curve"/>
      <point x="863" y="518"/>
      <point x="880" y="514"/>
      <point x="896" y="507" type="curve"/>
      <point x="911" y="500"/>
      <point x="919" y="491"/>
      <point x="919" y="480" type="curve"/>
      <point x="919" y="467"/>
      <point x="908" y="457"/>
      <point x="885" y="449" type="curve"/>
      <point x="852" y="438"/>
      <point x="792" y="427"/>
      <point x="707" y="417" type="curve"/>
      <point x="708" y="393" type="line"/>
      <point x="710" y="330" type="line"/>
      <point x="713" y="270"/>
      <point x="714" y="226"/>
      <point x="716" y="198" type="curve"/>
      <point x="763" y="188"/>
      <point x="812" y="173"/>
      <point x="862" y="152" type="curve"/>
      <point x="925" y="126"/>
      <point x="957" y="96"/>
      <point x="957" y="63" type="curve"/>
      <point x="957" y="52"/>
      <point x="954" y="43"/>
      <point x="948" y="37" type="curve"/>
      <point x="941" y="29"/>
      <point x="934" y="26"/>
      <point x="926" y="26" type="curve"/>
      <point x="915" y="26"/>
      <point x="902" y="32"/>
      <point x="889" y="44" type="curve"/>
      <point x="854" y="75"/>
      <point x="798" y="105"/>
      <point x="719" y="135" type="curve"/>
      <point x="719" y="134"/>
      <point x="720" y="128"/>
      <point x="720" y="117" type="curve"/>
      <point x="720" y="115"/>
      <point x="720" y="113"/>
      <point x="720" y="111" type="curve"/>
      <point x="720" y="73"/>
      <point x="712" y="43"/>
      <point x="695" y="20" type="curve"/>
      <point x="688" y="9"/>
      <point x="678" y="0"/>
      <point x="666" y="-6" type="curve"/>
      <point x="635" y="-22"/>
      <point x="597" y="-31"/>
      <point x="552" y="-31" type="curve"/>
      <point x="501" y="-31"/>
      <point x="456" y="-20"/>
      <point x="416" y="2" type="curve"/>
      <point x="374" y="26"/>
      <point x="353" y="59"/>
      <point x="353" y="100" type="curve"/>
      <point x="353" y="133"/>
      <point x="370" y="160"/>
      <point x="402" y="180" type="curve"/>
      <point x="442" y="205"/>
      <point x="494" y="217"/>
      <point x="558" y="217" type="curve"/>
      <point x="584" y="217"/>
      <point x="613" y="214"/>
      <point x="647" y="210" type="curve"/>
      <point x="646" y="227" type="line"/>
      <point x="645" y="281" type="line"/>
      <point x="642" y="343"/>
      <point x="641" y="386"/>
      <point x="640" y="410" type="curve"/>
      <point x="604" y="407"/>
      <point x="575" y="405"/>
      <point x="555" y="405" type="curve"/>
      <point x="457" y="405"/>
      <point x="394" y="428"/>
      <point x="365" y="474" type="curve"/>
      <point x="396" y="498" type="line"/>
      <point x="420" y="471"/>
      <point x="471" y="458"/>
      <point x="549" y="458" type="curve"/>
      <point x="575" y="458"/>
      <point x="604" y="459"/>
      <point x="638" y="464" type="curve"/>
      <point x="636" y="534"/>
      <point x="634" y="592"/>
      <point x="633" y="640" type="curve"/>
      <point x="601" y="635"/>
      <point x="574" y="633"/>
      <point x="550" y="633" type="curve"/>
      <point x="506" y="633"/>
      <point x="474" y="638"/>
      <point x="452" y="649" type="curve"/>
      <point x="433" y="658"/>
      <point x="417" y="673"/>
      <point x="405" y="695" type="curve"/>
    </contour>
    <contour>
      <point x="649" y="156" type="curve"/>
      <point x="605" y="165"/>
      <point x="569" y="170"/>
      <point x="542" y="170" type="curve"/>
      <point x="499" y="170"/>
      <point x="464" y="162"/>
      <point x="436" y="146" type="curve"/>
      <point x="415" y="133"/>
      <point x="404" y="119"/>
      <point x="404" y="101" type="curve"/>
      <point x="404" y="77"/>
      <point x="418" y="58"/>
      <point x="446" y="45" type="curve"/>
      <point x="472" y="33"/>
      <point x="503" y="26"/>
      <point x="541" y="26" type="curve"/>
      <point x="578" y="26"/>
      <point x="605" y="32"/>
      <point x="622" y="43" type="curve"/>
      <point x="641" y="57"/>
      <point x="651" y="82"/>
      <point x="651" y="117" type="curve"/>
      <point x="651" y="125"/>
      <point x="650" y="138"/>
    </contour>
    <contour>
      <point x="234" y="271" type="line"/>
      <point x="261" y="237" type="line"/>
      <point x="224" y="162"/>
      <point x="205" y="105"/>
      <point x="205" y="66" type="curve"/>
      <point x="205" y="61"/>
      <point x="206" y="54"/>
      <point x="207" y="45" type="curve"/>
      <point x="210" y="21"/>
      <point x="212" y="2"/>
      <point x="212" y="-11" type="curve"/>
      <point x="212" y="-33"/>
      <point x="203" y="-44"/>
      <point x="184" y="-44" type="curve"/>
      <point x="167" y="-44"/>
      <point x="152" y="-30"/>
      <point x="139" y="-1" type="curve"/>
      <point x="116" y="48"/>
      <point x="104" y="117"/>
      <point x="104" y="205" type="curve"/>
      <point x="104" y="246"/>
      <point x="108" y="292"/>
      <point x="116" y="344" type="curve"/>
      <point x="122" y="384"/>
      <point x="138" y="461"/>
      <point x="163" y="576" type="curve"/>
      <point x="167" y="593"/>
      <point x="170" y="608"/>
      <point x="173" y="624" type="curve"/>
      <point x="178" y="650"/>
      <point x="181" y="669"/>
      <point x="181" y="681" type="curve"/>
      <point x="181" y="713"/>
      <point x="169" y="739"/>
      <point x="144" y="756" type="curve"/>
      <point x="176" y="779" type="line"/>
      <point x="202" y="768"/>
      <point x="223" y="753"/>
      <point x="239" y="735" type="curve"/>
      <point x="257" y="714"/>
      <point x="266" y="692"/>
      <point x="266" y="667" type="curve"/>
      <point x="266" y="652"/>
      <point x="260" y="632"/>
      <point x="247" y="608" type="curve"/>
      <point x="234" y="583"/>
      <point x="220" y="548"/>
      <point x="207" y="503" type="curve"/>
      <point x="187" y="434"/>
      <point x="172" y="359"/>
      <point x="163" y="279" type="curve"/>
      <point x="160" y="248"/>
      <point x="158" y="222"/>
      <point x="158" y="202" type="curve"/>
      <point x="158" y="181"/>
      <point x="160" y="158"/>
      <point x="164" y="133" type="curve"/>
    </contour>
    <contour>
      <point x="891" y="879" type="curve"/>
      <point x="907" y="879"/>
      <point x="923" y="875"/>
      <point x="939" y="867" type="curve"/>
      <point x="961" y="856"/>
      <point x="978" y="839"/>
      <point x="989" y="816" type="curve"/>
      <point x="996" y="802"/>
      <point x="999" y="786"/>
      <point x="999" y="770" type="curve"/>
      <point x="999" y="752"/>
      <point x="995" y="734"/>
      <point x="985" y="718" type="curve"/>
      <point x="964" y="680"/>
      <point x="933" y="661"/>
      <point x="889" y="661" type="curve"/>
      <point x="865" y="661"/>
      <point x="843" y="668"/>
      <point x="824" y="684" type="curve"/>
      <point x="795" y="706"/>
      <point x="781" y="734"/>
      <point x="781" y="771" type="curve"/>
      <point x="781" y="801"/>
      <point x="792" y="828"/>
      <point x="815" y="850" type="curve"/>
      <point x="836" y="869"/>
      <point x="861" y="879"/>
    </contour>
    <contour>
      <point x="890" y="836" type="curve"/>
      <point x="879" y="836"/>
      <point x="869" y="833"/>
      <point x="859" y="828" type="curve"/>
      <point x="835" y="816"/>
      <point x="824" y="796"/>
      <point x="824" y="770" type="curve"/>
      <point x="824" y="757"/>
      <point x="827" y="746"/>
      <point x="834" y="735" type="curve"/>
      <point x="847" y="714"/>
      <point x="866" y="704"/>
      <point x="890" y="704" type="curve"/>
      <point x="907" y="704"/>
      <point x="921" y="710"/>
      <point x="934" y="721" type="curve"/>
      <point x="949" y="734"/>
      <point x="956" y="750"/>
      <point x="956" y="770" type="curve"/>
      <point x="956" y="790"/>
      <point x="948" y="807"/>
      <point x="933" y="820" type="curve"/>
      <point x="920" y="831"/>
      <point x="906" y="836"/>
    </contour>
  </outline>
</glyph>
<glyph name="cid00070" format="1">
  <advance width="1000"/>
  <unicode hex="3081"/>
  <outline>
    <contour>
      <point x="183" y="707" type="line"/>
      <point x="233" y="685"/>
      <point x="268" y="634"/>
      <point x="287" y="555" type="curve"/>
      <point x="360" y="601"/>
      <point x="438" y="628"/>
      <point x="519" y="636" type="curve"/>
      <point x="524" y="673"/>
      <point x="526" y="701"/>
      <point x="526" y="721" type="curve"/>
      <point x="526" y="738"/>
      <point x="520" y="752"/>
      <point x="508" y="762" type="curve"/>
      <point x="500" y="767"/>
      <point x="489" y="773"/>
      <point x="474" y="779" type="curve"/>
      <point x="493" y="808" type="line"/>
      <point x="528" y="803"/>
      <point x="555" y="794"/>
      <point x="575" y="782" type="curve"/>
      <point x="603" y="765"/>
      <point x="617" y="745"/>
      <point x="617" y="722" type="curve"/>
      <point x="617" y="712"/>
      <point x="612" y="695"/>
      <point x="603" y="672" type="curve"/>
      <point x="599" y="662"/>
      <point x="595" y="650"/>
      <point x="592" y="636" type="curve"/>
      <point x="676" y="630"/>
      <point x="745" y="605"/>
      <point x="801" y="562" type="curve"/>
      <point x="860" y="515"/>
      <point x="897" y="455"/>
      <point x="915" y="381" type="curve"/>
      <point x="919" y="362"/>
      <point x="921" y="341"/>
      <point x="921" y="318" type="curve"/>
      <point x="921" y="202"/>
      <point x="874" y="112"/>
      <point x="780" y="49" type="curve"/>
      <point x="731" y="16"/>
      <point x="655" y="-10"/>
      <point x="552" y="-29" type="curve"/>
      <point x="528" y="9" type="line"/>
      <point x="617" y="28"/>
      <point x="688" y="60"/>
      <point x="742" y="104" type="curve"/>
      <point x="809" y="159"/>
      <point x="842" y="232"/>
      <point x="842" y="323" type="curve"/>
      <point x="842" y="399"/>
      <point x="813" y="465"/>
      <point x="754" y="520" type="curve"/>
      <point x="712" y="558"/>
      <point x="655" y="582"/>
      <point x="582" y="591" type="curve"/>
      <point x="537" y="431"/>
      <point x="480" y="301"/>
      <point x="412" y="201" type="curve"/>
      <point x="414" y="200"/>
      <point x="417" y="197"/>
      <point x="420" y="194" type="curve"/>
      <point x="447" y="170"/>
      <point x="460" y="146"/>
      <point x="460" y="122" type="curve"/>
      <point x="460" y="96"/>
      <point x="451" y="83"/>
      <point x="434" y="83" type="curve"/>
      <point x="413" y="83"/>
      <point x="391" y="102"/>
      <point x="367" y="139" type="curve"/>
      <point x="339" y="106"/>
      <point x="316" y="83"/>
      <point x="297" y="71" type="curve"/>
      <point x="264" y="49"/>
      <point x="233" y="38"/>
      <point x="204" y="38" type="curve"/>
      <point x="167" y="38"/>
      <point x="138" y="53"/>
      <point x="116" y="84" type="curve"/>
      <point x="93" y="117"/>
      <point x="81" y="163"/>
      <point x="81" y="221" type="curve"/>
      <point x="81" y="326"/>
      <point x="130" y="422"/>
      <point x="228" y="510" type="curve"/>
      <point x="226" y="519"/>
      <point x="223" y="532"/>
      <point x="219" y="549" type="curve"/>
      <point x="212" y="587"/>
      <point x="204" y="616"/>
      <point x="196" y="635" type="curve"/>
      <point x="187" y="656"/>
      <point x="174" y="673"/>
      <point x="159" y="684" type="curve"/>
    </contour>
    <contour>
      <point x="241" y="453" type="curve"/>
      <point x="179" y="386"/>
      <point x="148" y="309"/>
      <point x="148" y="221" type="curve"/>
      <point x="148" y="141"/>
      <point x="169" y="100"/>
      <point x="211" y="100" type="curve"/>
      <point x="251" y="100"/>
      <point x="292" y="130"/>
      <point x="336" y="190" type="curve"/>
      <point x="298" y="261"/>
      <point x="267" y="349"/>
    </contour>
    <contour>
      <point x="510" y="590" type="curve"/>
      <point x="431" y="581"/>
      <point x="359" y="551"/>
      <point x="295" y="502" type="curve"/>
      <point x="308" y="404"/>
      <point x="336" y="321"/>
      <point x="378" y="251" type="curve"/>
      <point x="436" y="342"/>
      <point x="480" y="455"/>
    </contour>
  </outline>
</glyph>
<glyph name="cid00072" format="1">
  <advance width="1000"/>
  <unicode hex="3083"/>
  <outline>
    <contour>
      <point x="216" y="540" type="line"/>
      <point x="242" y="557"/>
      <point x="269" y="566"/>
      <point x="295" y="566" type="curve"/>
      <point x="328" y="566"/>
      <point x="346" y="552"/>
      <point x="349" y="524" type="curve"/>
      <point x="350" y="521"/>
      <point x="351" y="516"/>
      <point x="354" y="508" type="curve"/>
      <point x="355" y="504"/>
      <point x="356" y="501"/>
      <point x="358" y="497" type="curve"/>
      <point x="361" y="486"/>
      <point x="374" y="453"/>
      <point x="397" y="399" type="curve"/>
      <point x="509" y="455"/>
      <point x="600" y="483"/>
      <point x="670" y="483" type="curve"/>
      <point x="722" y="483"/>
      <point x="766" y="468"/>
      <point x="802" y="438" type="curve"/>
      <point x="835" y="411"/>
      <point x="852" y="377"/>
      <point x="852" y="337" type="curve"/>
      <point x="852" y="290"/>
      <point x="834" y="251"/>
      <point x="800" y="221" type="curve"/>
      <point x="767" y="192"/>
      <point x="726" y="178"/>
      <point x="675" y="178" type="curve"/>
      <point x="644" y="178"/>
      <point x="617" y="183"/>
      <point x="595" y="193" type="curve"/>
      <point x="583" y="199"/>
      <point x="569" y="208"/>
      <point x="552" y="221" type="curve"/>
      <point x="563" y="261" type="line"/>
      <point x="592" y="242"/>
      <point x="624" y="232"/>
      <point x="658" y="232" type="curve"/>
      <point x="695" y="232"/>
      <point x="724" y="243"/>
      <point x="747" y="265" type="curve"/>
      <point x="768" y="285"/>
      <point x="778" y="310"/>
      <point x="778" y="339" type="curve"/>
      <point x="778" y="369"/>
      <point x="767" y="393"/>
      <point x="745" y="410" type="curve"/>
      <point x="722" y="427"/>
      <point x="694" y="436"/>
      <point x="661" y="436" type="curve"/>
      <point x="606" y="436"/>
      <point x="525" y="406"/>
      <point x="418" y="345" type="curve"/>
      <point x="426" y="323"/>
      <point x="439" y="291"/>
      <point x="457" y="248" type="curve"/>
      <point x="506" y="126"/>
      <point x="538" y="52"/>
      <point x="552" y="26" type="curve"/>
      <point x="559" y="13"/>
      <point x="563" y="-1"/>
      <point x="563" y="-17" type="curve"/>
      <point x="563" y="-55"/>
      <point x="551" y="-73"/>
      <point x="527" y="-73" type="curve"/>
      <point x="516" y="-73"/>
      <point x="508" y="-70"/>
      <point x="502" y="-63" type="curve"/>
      <point x="499" y="-60"/>
      <point x="496" y="-51"/>
      <point x="491" y="-35" type="curve"/>
      <point x="454" y="93"/>
      <point x="421" y="190"/>
      <point x="394" y="255" type="curve"/>
      <point x="394" y="257"/>
      <point x="388" y="271"/>
      <point x="378" y="296" type="curve"/>
      <point x="377" y="300"/>
      <point x="374" y="307"/>
      <point x="370" y="317" type="curve"/>
      <point x="350" y="306"/>
      <point x="323" y="289"/>
      <point x="290" y="265" type="curve"/>
      <point x="269" y="250"/>
      <point x="250" y="243"/>
      <point x="236" y="243" type="curve"/>
      <point x="198" y="243"/>
      <point x="168" y="265"/>
      <point x="147" y="307" type="curve"/>
      <point x="168" y="337" type="line"/>
      <point x="179" y="324"/>
      <point x="191" y="317"/>
      <point x="206" y="317" type="curve"/>
      <point x="215" y="317"/>
      <point x="232" y="322"/>
      <point x="256" y="332" type="curve"/>
      <point x="300" y="351"/>
      <point x="330" y="364"/>
      <point x="347" y="373" type="curve"/>
      <point x="327" y="419"/>
      <point x="309" y="455"/>
      <point x="293" y="479" type="curve"/>
      <point x="280" y="498"/>
      <point x="266" y="508"/>
      <point x="251" y="508" type="curve"/>
      <point x="245" y="508"/>
      <point x="235" y="506"/>
      <point x="222" y="504" type="curve"/>
    </contour>
    <contour>
      <point x="481" y="625" type="line"/>
      <point x="525" y="624"/>
      <point x="563" y="616"/>
      <point x="594" y="604" type="curve"/>
      <point x="632" y="589"/>
      <point x="651" y="567"/>
      <point x="651" y="539" type="curve"/>
      <point x="651" y="525"/>
      <point x="646" y="513"/>
      <point x="638" y="503" type="curve"/>
      <point x="631" y="495"/>
      <point x="622" y="490"/>
      <point x="612" y="490" type="curve"/>
      <point x="598" y="490"/>
      <point x="588" y="497"/>
      <point x="582" y="511" type="curve"/>
      <point x="562" y="556"/>
      <point x="522" y="582"/>
      <point x="463" y="590" type="curve"/>
    </contour>
  </outline>
</glyph>
<glyph name="cid00074" format="1">
  <advance width="1000"/>
  <unicode hex="3085"/>
  <outline>
    <contour>
      <point x="488" y="619" type="line"/>
      <point x="505" y="625"/>
      <point x="521" y="629"/>
      <point x="533" y="629" type="curve"/>
      <point x="558" y="629"/>
      <point x="576" y="623"/>
      <point x="587" y="611" type="curve"/>
      <point x="597" y="602"/>
      <point x="603" y="587"/>
      <point x="606" y="567" type="curve"/>
      <point x="606" y="565"/>
      <point x="609" y="547"/>
      <point x="613" y="516" type="curve"/>
      <point x="613" y="512" type="line"/>
      <point x="666" y="511"/>
      <point x="709" y="500"/>
      <point x="746" y="479" type="curve"/>
      <point x="761" y="470"/>
      <point x="774" y="460"/>
      <point x="786" y="448" type="curve"/>
      <point x="824" y="409"/>
      <point x="843" y="361"/>
      <point x="843" y="304" type="curve"/>
      <point x="843" y="240"/>
      <point x="824" y="186"/>
      <point x="786" y="140" type="curve"/>
      <point x="771" y="122"/>
      <point x="752" y="106"/>
      <point x="731" y="93" type="curve"/>
      <point x="690" y="66"/>
      <point x="647" y="53"/>
      <point x="601" y="53" type="curve"/>
      <point x="591" y="53"/>
      <point x="581" y="54"/>
      <point x="570" y="55" type="curve"/>
      <point x="541" y="0"/>
      <point x="494" y="-46"/>
      <point x="430" y="-84" type="curve"/>
      <point x="399" y="-55" type="line"/>
      <point x="452" y="-21"/>
      <point x="491" y="21"/>
      <point x="516" y="70" type="curve"/>
      <point x="474" y="87"/>
      <point x="439" y="117"/>
      <point x="414" y="158" type="curve"/>
      <point x="438" y="191" type="line"/>
      <point x="468" y="153"/>
      <point x="500" y="129"/>
      <point x="533" y="117" type="curve"/>
      <point x="548" y="167"/>
      <point x="555" y="236"/>
      <point x="555" y="326" type="curve"/>
      <point x="555" y="386" type="line"/>
      <point x="555" y="406"/>
      <point x="555" y="429"/>
      <point x="554" y="453" type="curve"/>
      <point x="467" y="425"/>
      <point x="399" y="360"/>
      <point x="349" y="258" type="curve"/>
      <point x="317" y="192"/>
      <point x="301" y="126"/>
      <point x="301" y="61" type="curve"/>
      <point x="301" y="50" type="line"/>
      <point x="301" y="36"/>
      <point x="296" y="25"/>
      <point x="287" y="19" type="curve"/>
      <point x="283" y="17"/>
      <point x="279" y="15"/>
      <point x="274" y="15" type="curve"/>
      <point x="261" y="15"/>
      <point x="248" y="26"/>
      <point x="235" y="49" type="curve"/>
      <point x="209" y="95"/>
      <point x="196" y="160"/>
      <point x="196" y="246" type="curve"/>
      <point x="196" y="280"/>
      <point x="201" y="330"/>
      <point x="210" y="394" type="curve"/>
      <point x="215" y="427"/>
      <point x="217" y="450"/>
      <point x="217" y="463" type="curve"/>
      <point x="217" y="489"/>
      <point x="206" y="508"/>
      <point x="184" y="521" type="curve"/>
      <point x="205" y="548" type="line"/>
      <point x="231" y="544"/>
      <point x="254" y="535"/>
      <point x="272" y="521" type="curve"/>
      <point x="290" y="507"/>
      <point x="298" y="492"/>
      <point x="298" y="474" type="curve"/>
      <point x="298" y="460"/>
      <point x="294" y="448"/>
      <point x="287" y="436" type="curve"/>
      <point x="279" y="422"/>
      <point x="272" y="403"/>
      <point x="268" y="378" type="curve"/>
      <point x="256" y="322"/>
      <point x="250" y="271"/>
      <point x="250" y="225" type="curve"/>
      <point x="250" y="199"/>
      <point x="251" y="181"/>
      <point x="254" y="171" type="curve"/>
      <point x="291" y="264"/>
      <point x="334" y="339"/>
      <point x="386" y="396" type="curve"/>
      <point x="431" y="445"/>
      <point x="485" y="480"/>
      <point x="549" y="501" type="curve"/>
      <point x="545" y="528"/>
      <point x="541" y="548"/>
      <point x="537" y="560" type="curve"/>
      <point x="532" y="576"/>
      <point x="521" y="584"/>
      <point x="505" y="584" type="curve"/>
      <point x="500" y="584"/>
      <point x="493" y="583"/>
      <point x="483" y="582" type="curve"/>
    </contour>
    <contour>
      <point x="616" y="463" type="curve"/>
      <point x="618" y="412"/>
      <point x="619" y="365"/>
      <point x="619" y="323" type="curve"/>
      <point x="619" y="235"/>
      <point x="610" y="163"/>
      <point x="591" y="107" type="curve"/>
      <point x="643" y="108"/>
      <point x="685" y="126"/>
      <point x="719" y="162" type="curve"/>
      <point x="754" y="200"/>
      <point x="772" y="247"/>
      <point x="772" y="303" type="curve"/>
      <point x="772" y="354"/>
      <point x="756" y="394"/>
      <point x="724" y="423" type="curve"/>
      <point x="696" y="449"/>
      <point x="660" y="462"/>
    </contour>
  </outline>
</glyph>
<glyph name="cid00076" format="1">
  <advance width="1000"/>
  <unicode hex="3087"/>
  <outline>
    <contour>
      <point x="430" y="620" type="line"/>
      <point x="444" y="624"/>
      <point x="457" y="625"/>
      <point x="469" y="625" type="curve"/>
      <point x="490" y="625"/>
      <point x="508" y="621"/>
      <point x="523" y="613" type="curve"/>
      <point x="543" y="603"/>
      <point x="553" y="586"/>
      <point x="553" y="565" type="curve"/>
      <point x="553" y="557"/>
      <point x="552" y="546"/>
      <point x="549" y="535" type="curve"/>
      <point x="547" y="524"/>
      <point x="544" y="489"/>
      <point x="543" y="429" type="curve"/>
      <point x="561" y="425"/>
      <point x="577" y="423"/>
      <point x="593" y="423" type="curve"/>
      <point x="630" y="423"/>
      <point x="660" y="431"/>
      <point x="684" y="446" type="curve"/>
      <point x="691" y="451"/>
      <point x="700" y="453"/>
      <point x="709" y="453" type="curve"/>
      <point x="723" y="453"/>
      <point x="736" y="449"/>
      <point x="747" y="440" type="curve"/>
      <point x="757" y="432"/>
      <point x="762" y="424"/>
      <point x="762" y="416" type="curve"/>
      <point x="762" y="383"/>
      <point x="719" y="367"/>
      <point x="631" y="367" type="curve"/>
      <point x="599" y="367"/>
      <point x="569" y="371"/>
      <point x="543" y="380" type="curve"/>
      <point x="543" y="313"/>
      <point x="546" y="232"/>
      <point x="550" y="136" type="curve"/>
      <point x="621" y="119"/>
      <point x="679" y="99"/>
      <point x="724" y="77" type="curve"/>
      <point x="762" y="59"/>
      <point x="781" y="37"/>
      <point x="781" y="12" type="curve"/>
      <point x="781" y="-11"/>
      <point x="769" y="-23"/>
      <point x="743" y="-23" type="curve"/>
      <point x="732" y="-23"/>
      <point x="719" y="-17"/>
      <point x="702" y="-4" type="curve"/>
      <point x="657" y="28"/>
      <point x="608" y="53"/>
      <point x="553" y="71" type="curve"/>
      <point x="554" y="59"/>
      <point x="554" y="50"/>
      <point x="554" y="44" type="curve"/>
      <point x="554" y="0"/>
      <point x="541" y="-29"/>
      <point x="515" y="-44" type="curve"/>
      <point x="486" y="-61"/>
      <point x="450" y="-69"/>
      <point x="408" y="-69" type="curve"/>
      <point x="356" y="-69"/>
      <point x="312" y="-58"/>
      <point x="276" y="-36" type="curve"/>
      <point x="242" y="-16"/>
      <point x="225" y="11"/>
      <point x="225" y="43" type="curve"/>
      <point x="225" y="82"/>
      <point x="243" y="109"/>
      <point x="278" y="127" type="curve"/>
      <point x="311" y="143"/>
      <point x="354" y="151"/>
      <point x="408" y="151" type="curve"/>
      <point x="427" y="151"/>
      <point x="454" y="149"/>
      <point x="486" y="146" type="curve"/>
      <point x="486" y="157" type="line"/>
      <point x="484" y="233"/>
      <point x="483" y="289"/>
      <point x="481" y="324" type="curve"/>
      <point x="481" y="342"/>
      <point x="480" y="368"/>
      <point x="479" y="402" type="curve"/>
      <point x="478" y="481"/>
      <point x="476" y="528"/>
      <point x="475" y="542" type="curve"/>
      <point x="472" y="562"/>
      <point x="464" y="574"/>
      <point x="451" y="579" type="curve"/>
      <point x="443" y="582"/>
      <point x="433" y="583"/>
      <point x="418" y="584" type="curve"/>
    </contour>
    <contour>
      <point x="489" y="88" type="line"/>
      <point x="454" y="96"/>
      <point x="421" y="100"/>
      <point x="392" y="100" type="curve"/>
      <point x="317" y="100"/>
      <point x="279" y="82"/>
      <point x="279" y="46" type="curve"/>
      <point x="279" y="26"/>
      <point x="292" y="12"/>
      <point x="318" y="3" type="curve"/>
      <point x="344" y="-6"/>
      <point x="372" y="-11"/>
      <point x="400" y="-11" type="curve"/>
      <point x="439" y="-11"/>
      <point x="465" y="-3"/>
      <point x="477" y="11" type="curve"/>
      <point x="485" y="21"/>
      <point x="489" y="43"/>
      <point x="489" y="78" type="curve"/>
    </contour>
  </outline>
</glyph>
<glyph name="cid00078" format="1">
  <advance width="1000"/>
  <unicode hex="3089"/>
  <outline>
    <contour>
      <point x="395" y="663" type="line"/>
      <point x="490" y="709" type="line"/>
      <point x="417" y="732"/>
      <point x="366" y="763"/>
      <point x="339" y="802" type="curve"/>
      <point x="364" y="830" type="line"/>
      <point x="387" y="807"/>
      <point x="428" y="787"/>
      <point x="485" y="768" type="curve"/>
      <point x="509" y="760"/>
      <point x="542" y="756"/>
      <point x="585" y="756" type="curve"/>
      <point x="604" y="756"/>
      <point x="620" y="752"/>
      <point x="631" y="746" type="curve"/>
      <point x="650" y="735"/>
      <point x="660" y="720"/>
      <point x="660" y="700" type="curve"/>
      <point x="660" y="688"/>
      <point x="656" y="680"/>
      <point x="648" y="673" type="curve"/>
      <point x="641" y="667"/>
      <point x="634" y="665"/>
      <point x="626" y="665" type="curve"/>
      <point x="621" y="665"/>
      <point x="612" y="666"/>
      <point x="600" y="668" type="curve"/>
      <point x="588" y="670"/>
      <point x="575" y="672"/>
      <point x="562" y="672" type="curve"/>
      <point x="523" y="672"/>
      <point x="475" y="660"/>
      <point x="417" y="636" type="curve"/>
    </contour>
    <contour>
      <point x="378" y="-18" type="line"/>
      <point x="636" y="19"/>
      <point x="765" y="99"/>
      <point x="765" y="220" type="curve"/>
      <point x="765" y="259"/>
      <point x="750" y="292"/>
      <point x="720" y="320" type="curve"/>
      <point x="691" y="346"/>
      <point x="657" y="359"/>
      <point x="618" y="359" type="curve"/>
      <point x="566" y="359"/>
      <point x="510" y="344"/>
      <point x="450" y="314" type="curve"/>
      <point x="397" y="288"/>
      <point x="354" y="257"/>
      <point x="321" y="221" type="curve"/>
      <point x="307" y="206"/>
      <point x="296" y="191"/>
      <point x="291" y="179" type="curve"/>
      <point x="285" y="165"/>
      <point x="274" y="158"/>
      <point x="259" y="158" type="curve"/>
      <point x="223" y="158"/>
      <point x="205" y="202"/>
      <point x="205" y="289" type="curve"/>
      <point x="205" y="453"/>
      <point x="242" y="563"/>
      <point x="315" y="620" type="curve"/>
      <point x="337" y="598" type="line"/>
      <point x="329" y="582"/>
      <point x="324" y="569"/>
      <point x="324" y="559" type="curve"/>
      <point x="324" y="554"/>
      <point x="325" y="548"/>
      <point x="327" y="540" type="curve"/>
      <point x="328" y="533"/>
      <point x="329" y="526"/>
      <point x="329" y="520" type="curve"/>
      <point x="329" y="506"/>
      <point x="321" y="488"/>
      <point x="306" y="466" type="curve"/>
      <point x="297" y="453"/>
      <point x="289" y="433"/>
      <point x="282" y="408" type="curve"/>
      <point x="271" y="366"/>
      <point x="265" y="321"/>
      <point x="265" y="275" type="curve"/>
      <point x="265" y="263"/>
      <point x="268" y="256"/>
      <point x="272" y="256" type="curve"/>
      <point x="275" y="256"/>
      <point x="282" y="261"/>
      <point x="293" y="271" type="curve"/>
      <point x="335" y="309"/>
      <point x="385" y="340"/>
      <point x="442" y="366" type="curve"/>
      <point x="502" y="393"/>
      <point x="561" y="406"/>
      <point x="620" y="406" type="curve"/>
      <point x="686" y="406"/>
      <point x="740" y="387"/>
      <point x="783" y="351" type="curve"/>
      <point x="826" y="314"/>
      <point x="847" y="268"/>
      <point x="847" y="213" type="curve"/>
      <point x="847" y="157"/>
      <point x="823" y="107"/>
      <point x="774" y="64" type="curve"/>
      <point x="697" y="-4"/>
      <point x="570" y="-44"/>
      <point x="393" y="-57" type="curve"/>
    </contour>
  </outline>
</glyph>
<glyph name="cid00079" format="1">
  <advance width="1000"/>
  <unicode hex="308A"/>
  <outline>
    <contour>
      <point x="375" y="443" type="line"/>
      <point x="399" y="415" type="line"/>
      <point x="360" y="358"/>
      <point x="338" y="299"/>
      <point x="333" y="238" type="curve"/>
      <point x="331" y="214"/>
      <point x="323" y="202"/>
      <point x="309" y="202" type="curve"/>
      <point x="300" y="202"/>
      <point x="291" y="209"/>
      <point x="281" y="224" type="curve"/>
      <point x="256" y="264"/>
      <point x="243" y="315"/>
      <point x="243" y="379" type="curve"/>
      <point x="243" y="431"/>
      <point x="254" y="501"/>
      <point x="275" y="590" type="curve"/>
      <point x="285" y="627"/>
      <point x="289" y="655"/>
      <point x="289" y="673" type="curve"/>
      <point x="289" y="697"/>
      <point x="279" y="719"/>
      <point x="258" y="738" type="curve"/>
      <point x="288" y="763" type="line"/>
      <point x="346" y="729"/>
      <point x="375" y="694"/>
      <point x="375" y="657" type="curve"/>
      <point x="375" y="643"/>
      <point x="369" y="625"/>
      <point x="356" y="604" type="curve"/>
      <point x="347" y="589"/>
      <point x="338" y="570"/>
      <point x="330" y="545" type="curve"/>
      <point x="310" y="487"/>
      <point x="300" y="432"/>
      <point x="300" y="380" type="curve"/>
      <point x="300" y="371"/>
      <point x="300" y="360"/>
      <point x="301" y="349" type="curve"/>
    </contour>
    <contour>
      <point x="579" y="759" type="line"/>
      <point x="599" y="777"/>
      <point x="620" y="786"/>
      <point x="643" y="786" type="curve"/>
      <point x="680" y="786"/>
      <point x="705" y="764"/>
      <point x="719" y="720" type="curve"/>
      <point x="739" y="658"/>
      <point x="749" y="562"/>
      <point x="749" y="432" type="curve"/>
      <point x="749" y="291"/>
      <point x="716" y="178"/>
      <point x="651" y="94" type="curve"/>
      <point x="611" y="42"/>
      <point x="559" y="0"/>
      <point x="496" y="-29" type="curve"/>
      <point x="466" y="-42"/>
      <point x="431" y="-55"/>
      <point x="389" y="-66" type="curve"/>
      <point x="367" y="-31" type="line"/>
      <point x="487" y="12"/>
      <point x="570" y="78"/>
      <point x="616" y="167" type="curve"/>
      <point x="652" y="237"/>
      <point x="670" y="333"/>
      <point x="670" y="452" type="curve"/>
      <point x="670" y="574"/>
      <point x="664" y="658"/>
      <point x="653" y="704" type="curve"/>
      <point x="647" y="726"/>
      <point x="638" y="737"/>
      <point x="625" y="737" type="curve"/>
      <point x="614" y="737"/>
      <point x="604" y="733"/>
      <point x="594" y="726" type="curve"/>
    </contour>
  </outline>
</glyph>
<glyph name="cid00082" format="1">
  <advance width="1000"/>
  <unicode hex="308D"/>
  <outline>
    <contour>
      <point x="278" y="749" type="line"/>
      <point x="290" y="725"/>
      <point x="310" y="713"/>
      <point x="336" y="713" type="curve"/>
      <point x="356" y="713"/>
      <point x="420" y="727"/>
      <point x="527" y="754" type="curve"/>
      <point x="552" y="761"/>
      <point x="569" y="767"/>
      <point x="579" y="773" type="curve"/>
      <point x="594" y="783"/>
      <point x="605" y="787"/>
      <point x="613" y="787" type="curve"/>
      <point x="627" y="787"/>
      <point x="643" y="777"/>
      <point x="660" y="757" type="curve"/>
      <point x="676" y="737"/>
      <point x="684" y="719"/>
      <point x="684" y="703" type="curve"/>
      <point x="684" y="692"/>
      <point x="676" y="684"/>
      <point x="659" y="679" type="curve"/>
      <point x="643" y="674"/>
      <point x="623" y="662"/>
      <point x="599" y="642" type="curve"/>
      <point x="562" y="612"/>
      <point x="486" y="542"/>
      <point x="373" y="432" type="curve"/>
      <point x="354" y="414"/>
      <point x="334" y="395"/>
      <point x="314" y="376" type="curve"/>
      <point x="316" y="373" type="line"/>
      <point x="412" y="423"/>
      <point x="503" y="448"/>
      <point x="590" y="448" type="curve"/>
      <point x="665" y="448"/>
      <point x="727" y="431"/>
      <point x="774" y="395" type="curve"/>
      <point x="825" y="357"/>
      <point x="850" y="306"/>
      <point x="850" y="243" type="curve"/>
      <point x="850" y="159"/>
      <point x="810" y="95"/>
      <point x="730" y="49" type="curve"/>
      <point x="641" y="-3"/>
      <point x="526" y="-29"/>
      <point x="388" y="-30" type="curve"/>
      <point x="370" y="8" type="line"/>
      <point x="474" y="14"/>
      <point x="564" y="35"/>
      <point x="640" y="70" type="curve"/>
      <point x="725" y="109"/>
      <point x="768" y="167"/>
      <point x="768" y="243" type="curve"/>
      <point x="768" y="298"/>
      <point x="746" y="339"/>
      <point x="701" y="367" type="curve"/>
      <point x="663" y="390"/>
      <point x="616" y="401"/>
      <point x="560" y="401" type="curve"/>
      <point x="506" y="401"/>
      <point x="447" y="386"/>
      <point x="382" y="355" type="curve"/>
      <point x="297" y="315"/>
      <point x="238" y="269"/>
      <point x="205" y="215" type="curve"/>
      <point x="196" y="201"/>
      <point x="186" y="194"/>
      <point x="172" y="194" type="curve"/>
      <point x="161" y="194"/>
      <point x="151" y="198"/>
      <point x="143" y="207" type="curve"/>
      <point x="134" y="217"/>
      <point x="129" y="229"/>
      <point x="129" y="244" type="curve"/>
      <point x="129" y="259"/>
      <point x="139" y="277"/>
      <point x="160" y="296" type="curve"/>
      <point x="167" y="303"/>
      <point x="182" y="316"/>
      <point x="204" y="335" type="curve"/>
      <point x="238" y="366"/>
      <point x="342" y="469"/>
      <point x="516" y="644" type="curve"/>
      <point x="568" y="696" type="line"/>
      <point x="601" y="730" type="line"/>
      <point x="601" y="733" type="line"/>
      <point x="587" y="728" type="line"/>
      <point x="467" y="686"/>
      <point x="395" y="659"/>
      <point x="372" y="646" type="curve"/>
      <point x="357" y="638"/>
      <point x="344" y="634"/>
      <point x="333" y="634" type="curve"/>
      <point x="294" y="634"/>
      <point x="267" y="664"/>
      <point x="249" y="725" type="curve"/>
    </contour>
  </outline>
</glyph>
<glyph name="cid00083" format="1">
  <advance width="1000"/>
  <unicode hex="308E"/>
  <outline>
    <contour>
      <point x="286" y="93" type="line"/>
      <point x="349" y="49" type="line"/>
      <point x="349" y="125"/>
      <point x="350" y="193"/>
      <point x="352" y="252" type="curve"/>
      <point x="275" y="153"/>
      <point x="228" y="85"/>
      <point x="209" y="48" type="curve"/>
      <point x="202" y="34"/>
      <point x="193" y="27"/>
      <point x="182" y="27" type="curve"/>
      <point x="174" y="27"/>
      <point x="167" y="32"/>
      <point x="160" y="43" type="curve"/>
      <point x="155" y="51"/>
      <point x="152" y="62"/>
      <point x="152" y="75" type="curve"/>
      <point x="152" y="88"/>
      <point x="154" y="99"/>
      <point x="159" y="106" type="curve"/>
      <point x="163" y="111"/>
      <point x="185" y="137"/>
      <point x="225" y="185" type="curve"/>
      <point x="250" y="213"/>
      <point x="268" y="235"/>
      <point x="279" y="248" type="curve"/>
      <point x="314" y="291" type="line"/>
      <point x="347" y="332" type="line"/>
      <point x="354" y="340" type="line"/>
      <point x="354" y="361"/>
      <point x="355" y="386"/>
      <point x="355" y="414" type="curve"/>
      <point x="355" y="422" type="line"/>
      <point x="324" y="409"/>
      <point x="296" y="395"/>
      <point x="273" y="380" type="curve"/>
      <point x="261" y="373"/>
      <point x="250" y="369"/>
      <point x="241" y="369" type="curve"/>
      <point x="224" y="369"/>
      <point x="211" y="378"/>
      <point x="202" y="395" type="curve"/>
      <point x="196" y="407"/>
      <point x="190" y="424"/>
      <point x="184" y="448" type="curve"/>
      <point x="215" y="475" type="line"/>
      <point x="224" y="451"/>
      <point x="234" y="439"/>
      <point x="248" y="439" type="curve"/>
      <point x="265" y="439"/>
      <point x="301" y="450"/>
      <point x="355" y="473" type="curve"/>
      <point x="354" y="514"/>
      <point x="354" y="539"/>
      <point x="353" y="550" type="curve"/>
      <point x="351" y="576"/>
      <point x="333" y="589"/>
      <point x="302" y="591" type="curve"/>
      <point x="320" y="629" type="line"/>
      <point x="350" y="629"/>
      <point x="376" y="624"/>
      <point x="399" y="614" type="curve"/>
      <point x="419" y="605"/>
      <point x="429" y="591"/>
      <point x="429" y="571" type="curve"/>
      <point x="429" y="564"/>
      <point x="427" y="555"/>
      <point x="423" y="542" type="curve"/>
      <point x="420" y="533"/>
      <point x="417" y="516"/>
      <point x="412" y="491" type="curve"/>
      <point x="411" y="483" type="line"/>
      <point x="423" y="477"/>
      <point x="434" y="466"/>
      <point x="442" y="451" type="curve"/>
      <point x="447" y="442"/>
      <point x="450" y="435"/>
      <point x="450" y="428" type="curve"/>
      <point x="450" y="420"/>
      <point x="446" y="413"/>
      <point x="438" y="406" type="curve"/>
      <point x="428" y="396"/>
      <point x="415" y="379"/>
      <point x="400" y="355" type="curve"/>
      <point x="400" y="333" type="line"/>
      <point x="432" y="363"/>
      <point x="467" y="390"/>
      <point x="506" y="414" type="curve"/>
      <point x="559" y="446"/>
      <point x="608" y="462"/>
      <point x="654" y="462" type="curve"/>
      <point x="714" y="462"/>
      <point x="763" y="441"/>
      <point x="800" y="400" type="curve"/>
      <point x="836" y="359"/>
      <point x="855" y="306"/>
      <point x="855" y="241" type="curve"/>
      <point x="855" y="184"/>
      <point x="841" y="133"/>
      <point x="812" y="90" type="curve"/>
      <point x="786" y="50"/>
      <point x="748" y="22"/>
      <point x="696" y="6" type="curve"/>
      <point x="656" y="-6"/>
      <point x="606" y="-12"/>
      <point x="544" y="-13" type="curve"/>
      <point x="530" y="28" type="line"/>
      <point x="607" y="31"/>
      <point x="667" y="47"/>
      <point x="709" y="75" type="curve"/>
      <point x="721" y="83"/>
      <point x="732" y="94"/>
      <point x="742" y="107" type="curve"/>
      <point x="768" y="143"/>
      <point x="781" y="188"/>
      <point x="781" y="244" type="curve"/>
      <point x="781" y="294"/>
      <point x="769" y="333"/>
      <point x="746" y="363" type="curve"/>
      <point x="722" y="393"/>
      <point x="688" y="408"/>
      <point x="646" y="408" type="curve"/>
      <point x="604" y="408"/>
      <point x="559" y="391"/>
      <point x="508" y="358" type="curve"/>
      <point x="466" y="330"/>
      <point x="430" y="299"/>
      <point x="399" y="265" type="curve"/>
      <point x="399" y="173"/>
      <point x="401" y="101"/>
      <point x="407" y="49" type="curve"/>
      <point x="407" y="44"/>
      <point x="408" y="38"/>
      <point x="409" y="28" type="curve"/>
      <point x="410" y="22"/>
      <point x="410" y="17"/>
      <point x="410" y="14" type="curve"/>
      <point x="410" y="0"/>
      <point x="406" y="-15"/>
      <point x="398" y="-29" type="curve"/>
      <point x="398" y="-29"/>
      <point x="397" y="-30"/>
      <point x="396" y="-32" type="curve"/>
      <point x="388" y="-51"/>
      <point x="376" y="-61"/>
      <point x="362" y="-61" type="curve"/>
      <point x="346" y="-61"/>
      <point x="336" y="-49"/>
      <point x="333" y="-26" type="curve"/>
      <point x="329" y="1"/>
      <point x="308" y="32"/>
      <point x="270" y="66" type="curve"/>
    </contour>
  </outline>
</glyph>
<glyph name="cid00085" format="1">
  <advance width="1000"/>
  <unicode hex="3090"/>
  <outline>
    <contour>
      <point x="278" y="780" type="line"/>
      <point x="290" y="751"/>
      <point x="308" y="737"/>
      <point x="332" y="737" type="curve"/>
      <point x="344" y="737"/>
      <point x="363" y="740"/>
      <point x="387" y="746" type="curve"/>
      <point x="395" y="748"/>
      <point x="405" y="751"/>
      <point x="419" y="754" type="curve"/>
      <point x="461" y="765"/>
      <point x="485" y="771"/>
      <point x="492" y="773" type="curve"/>
      <point x="498" y="775"/>
      <point x="504" y="779"/>
      <point x="511" y="786" type="curve"/>
      <point x="519" y="793"/>
      <point x="527" y="797"/>
      <point x="535" y="797" type="curve"/>
      <point x="548" y="797"/>
      <point x="564" y="785"/>
      <point x="582" y="762" type="curve"/>
      <point x="597" y="742"/>
      <point x="605" y="727"/>
      <point x="605" y="715" type="curve"/>
      <point x="605" y="707"/>
      <point x="599" y="698"/>
      <point x="586" y="689" type="curve"/>
      <point x="576" y="682"/>
      <point x="568" y="668"/>
      <point x="563" y="649" type="curve"/>
      <point x="544" y="588"/>
      <point x="532" y="546"/>
      <point x="524" y="523" type="curve"/>
      <point x="551" y="526"/>
      <point x="575" y="528"/>
      <point x="597" y="528" type="curve"/>
      <point x="688" y="528"/>
      <point x="763" y="505"/>
      <point x="821" y="459" type="curve"/>
      <point x="881" y="412"/>
      <point x="912" y="348"/>
      <point x="912" y="270" type="curve"/>
      <point x="912" y="189"/>
      <point x="886" y="120"/>
      <point x="833" y="63" type="curve"/>
      <point x="779" y="4"/>
      <point x="709" y="-26"/>
      <point x="623" y="-26" type="curve"/>
      <point x="570" y="-26"/>
      <point x="527" y="-15"/>
      <point x="492" y="8" type="curve"/>
      <point x="453" y="34"/>
      <point x="433" y="69"/>
      <point x="433" y="116" type="curve"/>
      <point x="433" y="148"/>
      <point x="444" y="174"/>
      <point x="468" y="194" type="curve"/>
      <point x="491" y="213"/>
      <point x="521" y="223"/>
      <point x="558" y="223" type="curve"/>
      <point x="607" y="223"/>
      <point x="649" y="207"/>
      <point x="686" y="175" type="curve"/>
      <point x="718" y="146"/>
      <point x="740" y="115"/>
      <point x="749" y="80" type="curve"/>
      <point x="758" y="87"/>
      <point x="768" y="97"/>
      <point x="778" y="109" type="curve"/>
      <point x="816" y="153"/>
      <point x="834" y="206"/>
      <point x="834" y="268" type="curve"/>
      <point x="834" y="336"/>
      <point x="810" y="389"/>
      <point x="762" y="428" type="curve"/>
      <point x="715" y="464"/>
      <point x="656" y="483"/>
      <point x="584" y="483" type="curve"/>
      <point x="557" y="483"/>
      <point x="532" y="480"/>
      <point x="508" y="475" type="curve"/>
      <point x="458" y="332"/>
      <point x="402" y="217"/>
      <point x="337" y="131" type="curve"/>
      <point x="281" y="55"/>
      <point x="228" y="17"/>
      <point x="177" y="17" type="curve"/>
      <point x="151" y="17"/>
      <point x="131" y="27"/>
      <point x="116" y="48" type="curve"/>
      <point x="100" y="71"/>
      <point x="92" y="99"/>
      <point x="92" y="134" type="curve"/>
      <point x="92" y="184"/>
      <point x="108" y="237"/>
      <point x="142" y="291" type="curve"/>
      <point x="207" y="397"/>
      <point x="310" y="470"/>
      <point x="451" y="510" type="curve"/>
      <point x="473" y="582"/>
      <point x="491" y="655"/>
      <point x="505" y="731" type="curve"/>
      <point x="440" y="707"/>
      <point x="391" y="686"/>
      <point x="358" y="668" type="curve"/>
      <point x="345" y="661"/>
      <point x="333" y="657"/>
      <point x="321" y="657" type="curve"/>
      <point x="303" y="657"/>
      <point x="288" y="666"/>
      <point x="277" y="683" type="curve"/>
      <point x="263" y="705"/>
      <point x="252" y="732"/>
      <point x="247" y="763" type="curve"/>
    </contour>
    <contour>
      <point x="689" y="47" type="curve"/>
      <point x="662" y="132"/>
      <point x="619" y="174"/>
      <point x="558" y="174" type="curve"/>
      <point x="512" y="174"/>
      <point x="489" y="155"/>
      <point x="489" y="116" type="curve"/>
      <point x="489" y="92"/>
      <point x="499" y="73"/>
      <point x="520" y="59" type="curve"/>
      <point x="542" y="42"/>
      <point x="573" y="34"/>
      <point x="611" y="34" type="curve"/>
      <point x="637" y="34"/>
      <point x="663" y="39"/>
    </contour>
    <contour>
      <point x="434" y="457" type="line"/>
      <point x="376" y="437"/>
      <point x="328" y="411"/>
      <point x="290" y="378" type="curve"/>
      <point x="239" y="334"/>
      <point x="201" y="285"/>
      <point x="177" y="231" type="curve"/>
      <point x="164" y="200"/>
      <point x="157" y="170"/>
      <point x="157" y="142" type="curve"/>
      <point x="157" y="102"/>
      <point x="169" y="82"/>
      <point x="195" y="82" type="curve"/>
      <point x="225" y="82"/>
      <point x="262" y="117"/>
      <point x="306" y="186" type="curve"/>
      <point x="350" y="253"/>
      <point x="392" y="341"/>
      <point x="430" y="447" type="curve"/>
    </contour>
  </outline>
</glyph>
